<mxfile host="app.diagrams.net" modified="2023-10-16T14:44:12.803Z" agent="Mozilla/5.0 (X11; Linux x86_64) AppleWebKit/537.36 (KHTML, like Gecko) Chrome/117.0.0.0 Safari/537.36" etag="GG8zo41ze32UGijM1Xra" version="22.0.4" type="google">
  <diagram name="Page-1" id="mvqehFwdGbZk_JJAeHjo">
    <mxGraphModel grid="1" page="1" gridSize="10" guides="1" tooltips="1" connect="1" arrows="1" fold="1" pageScale="1" pageWidth="850" pageHeight="1100" math="0" shadow="0">
      <root>
        <mxCell id="0" />
        <mxCell id="1" parent="0" />
        <mxCell id="rXRJDe7qG6HzljNRHyR7-1" value="&lt;b&gt;Proxy&lt;br&gt;&lt;/b&gt;" style="html=1;points=[[0,0,0,0,5],[0,1,0,0,-5],[1,0,0,0,5],[1,1,0,0,-5]];perimeter=orthogonalPerimeter;outlineConnect=0;targetShapes=umlLifeline;portConstraint=eastwest;newEdgeStyle={&quot;curved&quot;:0,&quot;rounded&quot;:0};" vertex="1" parent="1">
          <mxGeometry x="20" y="206.25" width="40" height="120" as="geometry" />
        </mxCell>
        <mxCell id="rXRJDe7qG6HzljNRHyR7-23" style="edgeStyle=orthogonalEdgeStyle;rounded=0;orthogonalLoop=1;jettySize=auto;html=1;curved=0;shadow=0;" edge="1" parent="1" source="rXRJDe7qG6HzljNRHyR7-3" target="rXRJDe7qG6HzljNRHyR7-7">
          <mxGeometry relative="1" as="geometry">
            <Array as="points">
              <mxPoint x="475" y="150" />
            </Array>
          </mxGeometry>
        </mxCell>
        <mxCell id="rXRJDe7qG6HzljNRHyR7-3" value="" style="html=1;points=[[0,0,0,0,5],[0,1,0,0,-5],[1,0,0,0,5],[1,1,0,0,-5]];perimeter=orthogonalPerimeter;outlineConnect=0;targetShapes=umlLifeline;portConstraint=eastwest;newEdgeStyle={&quot;curved&quot;:0,&quot;rounded&quot;:0};" vertex="1" parent="1">
          <mxGeometry x="320" y="60" width="40" height="120" as="geometry" />
        </mxCell>
        <mxCell id="rXRJDe7qG6HzljNRHyR7-4" value="" style="html=1;points=[[0,0,0,0,5],[0,1,0,0,-5],[1,0,0,0,5],[1,1,0,0,-5]];perimeter=orthogonalPerimeter;outlineConnect=0;targetShapes=umlLifeline;portConstraint=eastwest;newEdgeStyle={&quot;curved&quot;:0,&quot;rounded&quot;:0};" vertex="1" parent="1">
          <mxGeometry x="320" y="400" width="40" height="120" as="geometry" />
        </mxCell>
        <mxCell id="rXRJDe7qG6HzljNRHyR7-5" value="&lt;b&gt;movies&lt;/b&gt;" style="strokeWidth=2;html=1;shape=mxgraph.flowchart.database;whiteSpace=wrap;" vertex="1" parent="1">
          <mxGeometry x="525" y="85" width="60" height="70" as="geometry" />
        </mxCell>
        <mxCell id="rXRJDe7qG6HzljNRHyR7-6" value="&lt;b&gt;movies1&lt;/b&gt;" style="strokeWidth=2;html=1;shape=mxgraph.flowchart.database;whiteSpace=wrap;" vertex="1" parent="1">
          <mxGeometry x="520" y="430" width="60" height="70" as="geometry" />
        </mxCell>
        <mxCell id="rXRJDe7qG6HzljNRHyR7-26" style="edgeStyle=orthogonalEdgeStyle;rounded=0;orthogonalLoop=1;jettySize=auto;html=1;" edge="1" parent="1" source="rXRJDe7qG6HzljNRHyR7-7">
          <mxGeometry relative="1" as="geometry">
            <mxPoint x="339.9999999999998" y="190" as="targetPoint" />
          </mxGeometry>
        </mxCell>
        <mxCell id="rXRJDe7qG6HzljNRHyR7-7" value="" style="strokeWidth=2;html=1;shape=mxgraph.flowchart.direct_data;whiteSpace=wrap;" vertex="1" parent="1">
          <mxGeometry x="425" y="266.25" width="100" height="60" as="geometry" />
        </mxCell>
        <mxCell id="rXRJDe7qG6HzljNRHyR7-13" style="edgeStyle=orthogonalEdgeStyle;rounded=0;orthogonalLoop=1;jettySize=auto;html=1;" edge="1" parent="1" source="rXRJDe7qG6HzljNRHyR7-11" target="rXRJDe7qG6HzljNRHyR7-4">
          <mxGeometry relative="1" as="geometry" />
        </mxCell>
        <mxCell id="rXRJDe7qG6HzljNRHyR7-14" style="edgeStyle=orthogonalEdgeStyle;rounded=0;orthogonalLoop=1;jettySize=auto;html=1;" edge="1" parent="1" source="rXRJDe7qG6HzljNRHyR7-11" target="rXRJDe7qG6HzljNRHyR7-3">
          <mxGeometry relative="1" as="geometry" />
        </mxCell>
        <mxCell id="rXRJDe7qG6HzljNRHyR7-11" value="" style="strokeWidth=2;html=1;shape=mxgraph.flowchart.decision;whiteSpace=wrap;" vertex="1" parent="1">
          <mxGeometry x="100" y="242.5" width="50" height="47.5" as="geometry" />
        </mxCell>
        <mxCell id="rXRJDe7qG6HzljNRHyR7-12" style="edgeStyle=orthogonalEdgeStyle;rounded=0;orthogonalLoop=1;jettySize=auto;html=1;curved=0;entryX=0;entryY=0.5;entryDx=0;entryDy=0;entryPerimeter=0;" edge="1" parent="1" source="rXRJDe7qG6HzljNRHyR7-1" target="rXRJDe7qG6HzljNRHyR7-11">
          <mxGeometry relative="1" as="geometry" />
        </mxCell>
        <mxCell id="rXRJDe7qG6HzljNRHyR7-15" value="&lt;b&gt;Load Balancer using&lt;br&gt;&amp;nbsp;Round Robin algorithm&lt;/b&gt;" style="text;html=1;align=center;verticalAlign=middle;resizable=0;points=[];autosize=1;strokeColor=none;fillColor=none;" vertex="1" parent="1">
          <mxGeometry x="135" y="246.25" width="160" height="40" as="geometry" />
        </mxCell>
        <mxCell id="rXRJDe7qG6HzljNRHyR7-16" value="&lt;b&gt;port 9000&lt;/b&gt;" style="text;html=1;align=center;verticalAlign=middle;resizable=0;points=[];autosize=1;strokeColor=none;fillColor=none;" vertex="1" parent="1">
          <mxGeometry x="190" y="90" width="80" height="30" as="geometry" />
        </mxCell>
        <mxCell id="rXRJDe7qG6HzljNRHyR7-17" value="&lt;b&gt;port 9001&lt;br&gt;&lt;/b&gt;" style="text;html=1;align=center;verticalAlign=middle;resizable=0;points=[];autosize=1;strokeColor=none;fillColor=none;" vertex="1" parent="1">
          <mxGeometry x="190" y="430" width="80" height="30" as="geometry" />
        </mxCell>
        <mxCell id="rXRJDe7qG6HzljNRHyR7-18" value="&lt;b&gt;Movies API&lt;/b&gt;" style="text;html=1;align=center;verticalAlign=middle;resizable=0;points=[];autosize=1;strokeColor=none;fillColor=none;" vertex="1" parent="1">
          <mxGeometry x="295" y="30" width="90" height="30" as="geometry" />
        </mxCell>
        <mxCell id="rXRJDe7qG6HzljNRHyR7-20" value="&lt;b&gt;Movies API&lt;/b&gt;" style="text;html=1;align=center;verticalAlign=middle;resizable=0;points=[];autosize=1;strokeColor=none;fillColor=none;" vertex="1" parent="1">
          <mxGeometry x="295" y="370" width="90" height="30" as="geometry" />
        </mxCell>
        <mxCell id="rXRJDe7qG6HzljNRHyR7-24" style="edgeStyle=orthogonalEdgeStyle;rounded=0;orthogonalLoop=1;jettySize=auto;html=1;curved=0;entryX=0.5;entryY=1;entryDx=0;entryDy=0;entryPerimeter=0;" edge="1" parent="1" source="rXRJDe7qG6HzljNRHyR7-4" target="rXRJDe7qG6HzljNRHyR7-7">
          <mxGeometry relative="1" as="geometry">
            <Array as="points">
              <mxPoint x="475" y="420" />
            </Array>
          </mxGeometry>
        </mxCell>
        <mxCell id="rXRJDe7qG6HzljNRHyR7-25" style="edgeStyle=orthogonalEdgeStyle;rounded=0;orthogonalLoop=1;jettySize=auto;html=1;" edge="1" parent="1">
          <mxGeometry relative="1" as="geometry">
            <mxPoint x="425" y="296" as="sourcePoint" />
            <mxPoint x="340" y="360" as="targetPoint" />
          </mxGeometry>
        </mxCell>
        <mxCell id="rXRJDe7qG6HzljNRHyR7-27" style="edgeStyle=orthogonalEdgeStyle;rounded=0;orthogonalLoop=1;jettySize=auto;html=1;curved=0;entryX=0;entryY=0.5;entryDx=0;entryDy=0;entryPerimeter=0;" edge="1" parent="1" source="rXRJDe7qG6HzljNRHyR7-3" target="rXRJDe7qG6HzljNRHyR7-5">
          <mxGeometry relative="1" as="geometry" />
        </mxCell>
        <mxCell id="rXRJDe7qG6HzljNRHyR7-28" style="edgeStyle=orthogonalEdgeStyle;rounded=0;orthogonalLoop=1;jettySize=auto;html=1;curved=0;entryX=0;entryY=0.5;entryDx=0;entryDy=0;entryPerimeter=0;" edge="1" parent="1">
          <mxGeometry relative="1" as="geometry">
            <mxPoint x="360" y="458.88000000000005" as="sourcePoint" />
            <mxPoint x="519.9999999999998" y="459.47" as="targetPoint" />
            <Array as="points">
              <mxPoint x="440" y="458.47" />
            </Array>
          </mxGeometry>
        </mxCell>
        <mxCell id="rXRJDe7qG6HzljNRHyR7-29" value="" style="shape=image;verticalLabelPosition=bottom;labelBackgroundColor=default;verticalAlign=top;aspect=fixed;imageAspect=0;image=data:image/png,iVBORw0KGgoAAAANSUhEUgAAAGsAAABVCAYAAABOzxrRAAAABHNCSVQICAgIfAhkiAAAABl0RVh0U29mdHdhcmUAZ25vbWUtc2NyZWVuc2hvdO8Dvz4AAAAudEVYdENyZWF0aW9uIFRpbWUATW9uIDE2IE9jdCAyMDIzIDA1OjA4OjI5IFBNIEVFU1RxcgakAAAGGUlEQVR4nO2dUagVRRjHf9+ec1WqK17TykwrosyKHkR8EQJfo4igMCIIHxQCe6seKiJfMqKXHvItLHoIDCwfM4iCIELoJVKLSMNUzPBmV6967j379bA758w995xzd/fs2d1h5wfLObvM7MyZ/3wzszPfzhGNoBcRWXTNUy5N6C+MqnrBKkZgrEpVsS1sJKHMPc3psKCLwgwLPTitJYMNTC/5PcpGTDOYmxWpggAIXPoLfv4KZmdAhMVCxNeaTdj0GGx4tFtwafKjGoWfjtO7OhPnoReTXgPu3w53b+nGdQAJw1BtoXIT7u8/4K2nYG4+Wfi2wt79sPXpFAWodFQ5/RO8swvarWTpBU14/mXYsZuOiP0VrgyBiHSawFwt7KO9MDsHAcmOpsCHr0dxE+chKmRtz8MX70HYSp6ezsPRTyKrd0AoiPssEekc/UaGmTh1GpYlLABTVqpw7kSKRKKIMncdrs10LyVl+jLMX6drWdUmsE/swcbopKipdtCwnTIN7X5NmezCsI5YVm7WVDhuNF95EZg+yu6vcm0Ox4o40Hjlx4KH4l7BXMCNXOZDp8/qHQm6YVn1ommaPNu6wB3LqhNBr0XlPoT35EYwyIK8ZVWPYOkgnqrgxXIIL5ZDeLEcwovlEF4sh/BiOYSzYtXxob1ZdgayYs+yZH98t2NWf7mlgpaV0FvJTJOpomg2D6WOF1b1hYKqiRUXfrKgsWWJRMUchunTG9kyi6VaYgHJLSvSVrIs5/ek50r3V0GxkiG5+U+4YldVE0uVTpaWrO6KqlXQGVcJOo5Vw312K0F1xFIgELjw+4JL9udCBCF29gnbcHk6fZrX2si1/1ARRE1atnQ6MPXUmMo3QptbHbEgquLfHETbc52BQ+84zS4+FUEkgK8PwIV/k6djbtoAPn0lTls6WVAkrgoSi5cDZvA0wjqh9H3fZwTMzWTPw9EILW3e2sCG22DHC7BybfQD++VQBFpX4fvP4ZeTMJEyoZCoqraB21fB4y/B1Lqur74CjeXxKIbRDKwRwLoH4ebVUQUz+U9J7mJBXHH3PAShphPL5KSt0DLn/WyL6JoAE0Su12l/u/2rQ+CGxvm17DmvolFgsgm734Ztz2a+zRgtK6VY3Z4+vkGGeFnjFPFMrIAGcOBHdPktmZLLvc+S+EjdbNjPS1lcoEeJU8ToXYB2COeOZ77FGAcY1Rv6lo7AKEWeu1id0Zr3jupi11vJXonH0gx6esipUMZiWRFetrzJfT3LSzQ+qjWD4RmKF8shvFhqHTD8iSNN2DHgxUrjhlGyy4azDjO5Ywp+kHeAPbNS0sv99RXLnhcMgckVsPE+WLmKvg3O9Stw/k84fylaWimB+oplC7V5E+z6AKbuhMZE//CqMHMRvvsYjhwsLp8W9e2zjFBrJuHVL+HWjdEWQYMQgcm18ORrsHVbKYOM+ooF0FJ4cX/3fNh8pr3K+8y+aM2t4EFGvcVqAus3R9+X8lk0zaYqrLkHVjT90L1QJgKQBt0thZYYt9sz5hPFjzLqLZaaJ9wU2+V13aAKp95ipcK0g+UVmRcrMb1OIsVTc7HSOHzI0NMiqLdYcZ+lSb1lbR/GsHgLq6dYpkW7oTDzTzJvWaX72krrarSlbMHWVT+xjFAhkRfvZ2/GO74OWPswjqZiWdWRd30zWAj2oK5B5Hp96A2Yv0F3s0lZEF7jvk01hGOH4dsjUXy/RFIQxkqaAkcPI78dg3sfQVbdtWg2QwS4Mo2cPQG/noRWu5RqXl+xjFWYZvH0GTh1Zul4xiLtuAVRT7F6hTKfKSYyFtynIOrXZ9mM4idfAvUWyzG8WA7hxXIIL5ZDeLEcwovlEF6sItAB31MyPrFKWEKoLPaaZZU2LenMXd+xGua9YIC1BgZMrc98mzFMN8XzMc/tg/f3wqxGc2l11c0sx7QUdu5Ep9ZnnlPMf9OSeLNGBYKzx+GHQ3DlIkhNu0dVWHYTbHmC8IHtSNDM/Nch49m0JF50LeGtmEpi78Myyr8o5f9OsaVQUZu3VBn794/6b7Vj2bvJMx5q2pG4iRfLIbxYDuHFcggvlkN4sRzCi+UQXiyH+B/UhzBqVYhJUAAAAABJRU5ErkJggg==;" vertex="1" parent="1">
          <mxGeometry x="440" y="276.25" width="50.35" height="40" as="geometry" />
        </mxCell>
        <mxCell id="rXRJDe7qG6HzljNRHyR7-30" value="" style="shape=image;verticalLabelPosition=bottom;labelBackgroundColor=default;verticalAlign=top;aspect=fixed;imageAspect=0;image=data:image/png,iVBORw0KGgoAAAANSUhEUgAAAU4AAAGUCAYAAABa9ssgAAAABHNCSVQICAgIfAhkiAAAABl0RVh0U29mdHdhcmUAZ25vbWUtc2NyZWVuc2hvdO8Dvz4AAAAudEVYdENyZWF0aW9uIFRpbWUATW9uIDE2IE9jdCAyMDIzIDA1OjA5OjQyIFBNIEVFU1RlnKRRAAAgAElEQVR4nOy9eZwcZ33n/3mequp77hmdlmRdlizZsmyDjbHBDoaAHRaWbHhtsgRYAolDwiYk2ewvHMkrr91NSMhmyZKEK9iEIwQMNhh8YfB9ytZlXZasY3TOSBrNPX1XPc/vj+rq6enp6q6qrr6/b7/ao+mufuqZnqrPfL/P93iYlFKCIAiCcAxv9AQIgiBaDRJOgiAIl5BwEgRBuISEkyAIwiUknARBEC4h4SQIgnAJCSdBEIRLSDgJgiBcQsJJEAThEhJOoiokzMKzo5NHMJuZafBsCKI+kHASVWFV7F6Mj+DR4482eDYEUR9IOAlfMITAk2eeQkZkGz0Vgqg5JJxEVViu+njqEiZTk9g1usd8nnrHEG0MCSfhC5PpKWSMJH505CEAgIBo8IwIonaQcBLVIU2rcyI5DjCGIxMnsH/sIBSmwJBGo2dHEDWBhJPwjISEwhVMJycxlZpCVAthPD2Bnx59FIJcdaKNIeEkPCOE6Y4fnnwNFxMXofEAwmoAuy8cxPD0SShMyR9DEO0ECSfhCQkJzhgA4OCl/ZhOz0BhHF1aCCemzuKpk88CABhj+QASQbQLJJyEJ6QUYIxjeOo49lzYg4gagZACQgqE1RAePv4ETk+fNYWT3HaizSDhJDwgwcAhpcTjp36GS4lxqFwFIBFQOIKKhuGZc/jF8FM5y5QuM6K9oCuacI2ABGMML448j6fPPouYFl0QQTekge5AFD96/WGcn7sIKSW560RbQcJJuIaD49zsWfzboW+blmcuZ1MC4DnXnDOO88lJPHj0ETDGwMAaO2mC8BESTsIxltWY1BO459WvYSo5Bc6UvC3JAKjcvKSkFIioQTxw9GcYmT2/4P0E0eqQcBKOEBBgYDCkgW/s+zoOjB9GSA0CZcSQg2E8NYO7937THENSahLRHpBwEhURUoDngkHf3P91PHnmGUS1MISUYBL54kpZ8H+LAFfxzNlX8MLZHWZeJ4kn0QaQcBJlEVKAM465zCzu2fdVPHbqCUS1CAxZqhpdgjEgwDkkCiqL0nO477WfIJFNQEBQehLR8pBwErZYonl6+iT+4ZW/x2Mnf4GgEigrfAwsl/Ru2p6GlIgGInhuZA8ePPYzqEwl4SRaHhJOoiQSpmi+Nn4QX3jl/2Lv2AFE1Mii1CJR9NUSzMKRAIBzjntf+ynOzJwF55xcdqKlIeEkFiGlmeD+zOkn8YVX/gEXEmOIahHolcROmpF1hoXiKaRAVA3h5OwIvrL7X5HUk2CgUkyidSHhJPJYQsYYw49fvw9f2/d1zGbnoClaWQuR5fTPAKAwQFU4UOSOZ4WObi2KR089h1dGdlMpJtHSkHASAEzRZGAQUuD7h/8d3zr4XQAMKldLiqYXa1FIgZASwD/uugfnZkfAGSfxJFoSEk4iL5rJbALfPPANfP/wDxFRw2aTYlkkkV50LrfwKaWECo4zM+fx9zu+hJn0rPkyiSfRYpBwdjjmeiZDQo/ja69+Ffcd/QmiasSRRWkdIzDvrovcmPkoUYlhgqqG587uwj/v/Dp0oQOMxJNoLUg4OxizNRxDUk/gX/b+C5488yz6gt2Qha65XPDF/FpG4xhjCChmGaZddTqTDBE1hAeO/Rxf2nU3DGGQeBItBQlnhyJg9tNM6Ul8be/X8OSpZxDTohBCFqQWORcyy+rkQL7BsR0yF34PqUF888D9uHvPtwryP0k8ieaHhLMDkTBLKFNGEl/Z8xU8fvppxAIRSCFcC5dXobOsy+5AFN/Yfx/uP/KTBc8TRDNDwtlhyFwT4mQ2gS/v/jJ+cfppdGlRGMVBoIVvKvxS0V13PJdcMn1Q1fD5l76KHx3+CTij5Hii+SHh7CDygaBsHF/Z+xU8fvoZdAdiJXeknBdJd+66V4KKhs/v+Bp+fOSnBeJJ1ifRnJBwdghCCjAGJLIJfG3v1/D46Wdzojkvd2UtSVni25LH5tYqXWqeGVRSTfE8bIqn1SiEIJoNEs4OYH7fH4ZvH/wWHjv5FLq1qOP1RKfiZUXStQrBoZLvzXWN17iCv93xVdx/5CdUlkk0LSScHYC1lvjvh76Lh44/hu6gaWmWEk4v65f5Us0q5yly6VFBRcPfvvAVPHPqOXBwM9eTIJoIEs42R0gDnHHce/gH+LfXfoCIFs5XA7lex5QLNdWvINGCU+TEPKCq+KsX/hEvn3sFKlcXbAZHEI2GhLONMd1fBU+cegLfO/RDhNUwjGIrs4zwLRTJ8gppNZuTMHfBrAarpV08E8efP/157Di3k7rHE00FCWebYrm9u8/vwtf23m2ucZbQs1JWp50laR2zyOp0g5QOHuZxGlcR11P4y6c/j1fO7QJn3KwyIogGQ8LZhhg59/zApQP4pz1fRUbouSj1fG25U9ymwxf+m5USRRcISAS5hunMHP7PS/+M45PDULhCbjvRcEg42wwpJRSmYDI1iW/t/w4uJMagccVV0w7z395ROYfKWVV5nRa6NBBWQzg9dwF/+czncXr6DBRG4kk0FhLONsKqAc+KLL6y56t49dJruY3VfIzgFFURLf7Gf3RpIKwEcHjiBP72hS9iKjUFhTn7Y0AQtYCEs42wKoO+feA7ePrMC+gNxGCI0nbfgmcr6I8beao2MGSHIQW6tAheGn0Vf/fiF5HIxmtyHoJwAglnG8EZx8PHH8EDRx9BLBDL7xFUKGWsTHml+W9Z+oXC12tUu14JQwr0BKJ4+MSz+NLOeyhBnmgYJJxtgJX7eHj8EL598HvgnC/sqVmAsPm3X1bnfJlktenwpTGkQF8whu8dfgjf2PsdMDBa7yTqDglniyOlBGMME8kJfHH3VzCTmQUHq8oOW5B21IQGnZQSUSWIu/d9Hz898hAFi4i6Q8LZwkhICAhkjQy+uvdfcGzyJEJqcN59laWj5JXcdSfntXPXa2NnLkRAQuEcDAxf2vVNvDyyi8STqCsknC2MkAKcMTxw9Kd45uwOdAWcNe6otbsO1P7CMqSAxhVMZRP4/Av/iOHJkxRpJ+oGCWeLYuVr7r94AP/+2n0IKlqJGnR4tjorueuFVmfh+6U0rUGFu28tV2o+5R66FAgqGoZnR/GFHV9GMptsyqUFov0g4WxBJMx1zen0FP5x11eQ0NP5/pVOsU1O90F4vLjrpYTRCUII9KhRvDD6Kr748tfAPLS0Iwi3kHC2MP+866s4PTuCiBqEURRFl0VfnVLqeL+DRF5F0u6NujQQUYL40euP4bsHfggAVNNO1BQSzhZDQICB4aFjD+O5kZcR1kIwpFHeyrPxmUu565VY5M4XeeyySAn9Fkk7GGNQOcc9r34Pz555kWraiZpCwtlCCGnuTnls8ji+e/iHYFjY8cjtDpGi6Ov8QNXM0sMwntW1YAgpEeAaZtJxfHnnNzA6d4Fa0RE1g4SzRZBSQkqJeGYO/7rv2xhLTCCgqA6bd7g8V/5rUWCpWkG1i/L4hC4NdGkRHJ44iX946UvIGBnztLTlMOEzJJwtgMz9p3AFj5z4GV65sBdRLZy3pha6yjYiIeWiYwuPd2N12kbfC1+voUCWIyt19AW78Pipl/D9gz/K7bVEEP5CV1ULYG1kdmzyOL5/+MdQuebIilokZm7Omf9aOp2pmckKHREthK+/+u94eWSXuetmy8yeaAVIOJscCbPjUVJP4pv7v4PpzCwCXC25F3rlwUpbnd7mtfibaoTabxgY0noWf/fiP2MsMU4NQQhfIeFsARhjePj4z/DMuZcRUcOLUo+K8bqm51cYhTE0PJ9SQiKoaDg1M4p/2vFVpPU0DGGQeBK+QMLZxFg3+fDUSXz3tR8iFoguiBI70Uc/rMBKreYKEQA4Y2blUBOIVEgJ4Ocnn8cDrz8MlasUKCJ8gYSzyWFguHvfNzGXTUABs20UbBf0scMuoOSldr1U+WUzICGhMA7BgG/vvw/DU6fNDd8ov5OoEhLOJsVMamd48NjD2HXhADSulhRNt1anG2yj500oknYYUiCqhjA6N4a793wLyWwSHJwsT6IqSDibEKuBx4XERTxw7GHoQgd3UAHuSApcNP1wNFz+qywZJGoGskJHdzCKh44/jceOP25G2VmzzZJoJUg4mxABASEFfnzkJzg2dRoRNbRgw7Va7OvjtdVcqyAM0/L86u7v4NzMiGl1tssPR9QdEs4mQ0gBhSk4eOkQHj35JMJKEEaFeLcbd72aph8t466XSL4XkFCZgvHUDL7w0pchhGjun4Foakg4mwhrG4yUnsR9Rx7AWGoSmjIfCS4USCdBokpVROWO92J11jRIZFeu6aJCSUAirATwzJmd+PGRB8EY7VdEeIOEs4lgjIGB4ZXze/DMuZcxEOxB1sf2aH5YnQueq6dI+ojKOf5t//04NXUWnHFqBEK4hoSziZCQSOlJfPvA96BCge5RNN0GiQrxq9WcqzfXsaZdQCKoBHB69gK+s//7+YoiWu8k3EDC2USY6Uc/w7Gp06aLnnve7pZ2EiTy2mpu8UCuhrEfowGNPxZNQ0qE1QAeG34WTw4/a7afE2R1Es4h4WwCJMyWcRcTl/Cj1x+EyhT37rTLN/jW9MNuoCYRyVIISKhcQSKbwr8d+AEmkpNQuALhW9Ep0e6QcDYBVlDo3sP343xyHApfnKCdF64iAfIjSGRXdVRtq7lmRhcGugNR7Dx/CA++/qj5O5DNUSZKND8knA3Gahl3ZuYsXhrZBSlNl93bWA6Osfm3o/HzX0tH5a3vOWNQc7tcNvMFlhU6urQI7j30E5ydGWl4YxKidWjm67ojsETo3sM/wumZcwirwfl8SRsl9LVa0MbqrCZIxBgA5m23y3qjMgUXk1O4Z893Gj0VooUg4WwgQgpwxrF/7ACeO/cyAmqw7DpbI4JE7b7qZ0CYHZROPYfdI3upbyfhCBLOBpMVWTx+6hmMxMcQUgLm3kJVjNeMreaaH4asMPCtffciracpr5OoCAlng7DWNk9MDuNnw0+hL9hdci/watx1PxLdOwEOIMBV7Dy/Hz8//gQUpkAXeqOnRTQxJJwNgjEGQxh45MTPMZ2OL9oXx4mIOaioLHre3fisRHRdLjA0W6R2vQRSzj8MKcGZgrSh40dHHsGF+Bg4o9ZzhD0knA3AEpzTM2fx4Ikn0BOMQpSpEqrmBnZbRVStVFgpm80UGCoUSetRjBACMS2MvReO4BcnnqJSTKIsJJwNwEo3uvfw/dCFPt/Ew8F7qwkQuaUVW805EUn795pbMD92/Cmcn7toJsWTeBIlIOFsABISY4lxvDi6GwpXq4riunXXF85j4ddSlEpLKpXs3gh3vRqRLIUhTatz98XDeGL4GeqcRNhCwllnhBRgYPj31+7DdHoOnBf8Csrc+a3orvtFKYGs1fKjIQz0ajH866v3YnT2grnW2cwmNtEQSDjriFVaOZmawiuju808TmmfHlSuDHzhuOZXL/mclaxOgcpBogVjuXKNnT3qiVXHfjExiUeO/hyA90ouon0h4awj1gZsDx9/DOfmLiKkBhZbM21idZYaupGC6AZdGugJRPH9Qz/FeGKi0dMhmhASzjphBR6m09N44dwrSIusrSVT6yBRrVvNMbSOSNohIDGTSeC7+38AoLo/WkT7QcJZJ6y1zR0jO3Fo/BgiWsjRzVjrKiKn5yoXJFpYRST9N1cbAAeDwhgePf40xhLjAEBrnUQeEs46IGFWCSWzSTx3dgeSehoqFPsbsUbWjVt3vZMRkAhwDROpafz4NXN/IkpNIixIOOuAFRQ6PnUCL43sRncgCkMs3LtyUcCnzGsljyn4ptBdd1tFVClIVCwd1jD5tCTGmi4B3iuMmTXsz515GWOJcWoAQuQh4awDVhXK8yMvYzqbhMJ45bVI2xr1Oty4LhLy2xkrr/O18WE8evQX5u+RttggQMJZcywLZTw1gYeOPY6YFkLWSqyW1bdta0SQyMmcWa4hZ8vKjJx/ZIWOHWd3YSY9A4UrFCgiSDhrjRU53zW6B2OpSSjM/iMvdzs6irT7UEXk9Fylx5D5iDpXGHirdFSXJR45DCnQq0Xx4sireOHMy+bhJJwdDwlnHZBS4sHjjyHANYgSN51bq6zm+ZzmSZwf30o6UkYkbcntd//osScQz8TBOVUTdToknHVgePoUDowfM908FO3hXZz/bvPvUt+XfI9Lq9NtkKhkFdGCfzdAUEqJod3DA7owENPCeOXcfhyfGJ4/J9GxkHDWECt95YGjjwDSQ6S5kVVEbo+vl5D4JIauYUDKyOCRY4+bObmtsgxB1AQSzhph5W5mjAx2nt+LbK7csvD1gm/KjOOduraaqwWNEskSGEIgooXw4NEnMBYfJ1e9wyHhrBFCCkhIPH7yGYwlJqGxMgnvRVR7S/oVJLKjXBWRgAd33Ue3utZkjSweOPwQNf7ocEg4awgDw+4LezGVmYPK1bJaYF8P3kB33W3TD0eh/xKPFoIxhl8MP4tkNtnoqRANhISzBggIKEzByNwFvD45DJUrYCUEwk8LtBH5nMX/Lj04WlYkS8EZx4X4OJ49/SIkJJVhdigknDXAqi7ZMfIKDk+dQkQNwYAAZHntsC3BLGP51WIXTFn41ebcdu46lwXnbwOhLEbjKuLZFH527Im8u07rnZ0HCafPSJjt47JGFgfHDiNrGOBl1sPyN12Fe6+Zrc5OQkoJjSk4Mj6Mw2Ov026YHQoJp89IKcHAcGb2HF4dO4wuLQTDYQTd8Tmqea/DN8uir6WotB9ROyIgEVQDGJ27hKdOPQeAKok6ERLOGvH6xDEcnT4DTdFcrYM1e5CIyDVqhsT+C69hNj1L9esdCAmnz3DGkREZ7D6/DwGuOnpPq7vrnea261KgSwtj7/nXsHNkLwBQkKjDIOH0EUt4plOz2D12EGE1kA8UOSlntLBuwUXHuUwPKtZBSzw9dYa3qV0vdteFh/GbESZl2YfCOCbTc9g9sheGNGg3zA6DhNNPcjGg4amTODEzksvd9KJS1VHdGmh1VmerXVB2wlgJQwr0BWPYcXYPzs9eBGOM3PUOotWu86bGSk954dwr0PjiSiFZ8A+nt1i547xYnZWetxu/HSTBi0DaIaVEUNHw2vgwXhs7bI5P1UQdAwmnzyT1JJ4/txMB5i4oVEzLt5prMH6KpB1CmhH2507vQFZkqfFHB0HC6TPDU6cwGr8ExeVN5HfTj3q66xaNCo/UQyQtRMFDlxIhNYinT+3AdHIGACXDdwoknD5hic2OkV0o1Ezf3XVpMx7sBc/JRm6VqojK/bsWQlUpOOOnSAoXj4WYm/DNZpJ4/sxL5rzJXe8ISDh9ZsfoHuhCeLqB6tFqzilurM5qW801ymIsLYbukFJC4wp+euSxqudGtA4knD4gc5bHRHISo/Ex53vttGCQyA6nYtfKImkHYwynps7h3MwoAHLXOwESTh+wrLNXzu/BbDYBZuX05fPafV4zrLKKyC4Z3m0VUdnja+RWl8KZW107GGNIGGm8cPolSEhKS+oASDh9wIqev3rhIGYzCahldrKsRD1azdUC285ONThPowTSDgUcaT2LF87spDXODoGEs1qkWWaZFVkMT5+CntuPpjAIZH6xsdQquOtOWs0tmpLLIFHRdMo+X1hFVHx8NRalt+BMcyAZwBhwavosLsYvURVRB0DCWSUCApxxnJ45i/HUNIKKVvVNU4/adUfzqKKKyL5mvnUE0SlmMnwAFxOTeHL4GQCAIYwGz4qoJSScVWK56UfGj+FCYhxBrkK4Dbg0vMzS3TnKHV6qdr1dBLIcKlcwnZ7DoYtHAFBaUrtDwukTR6eGcSk1A5WrYMXS0uZBomKsi6qdhdKCSfMhhUSQazg5dQYjs+ehcIU6JrUxJJxVICGhchUpPYXTMyMIqAHfIqp27nrx6M3qrrcblkAWPywkJCJqCCcmz+LIpaMAqNVcO0PCWQWWqIzOXcTo3AUEXHZD8ruJRq3zOd2cizGGVi3dLieQdkgpwTnDRGoGxy6dAGAGDYn2hH6zVWAJ59nZERybOoOwElhgZZRax/Tkrsvy0fVqrE4n7rqt1WnT9MOQEgpnUBhrqt6cdlajW5G0Q0ogpAax78IhTKemwRknq7NNIeGsAqsbzrnZUcxkk+aN4nKMwrSlVrA6/baSa4WfgugUKSUiahCHxo/lq4iI9oSE0yMSMm9RnJ0bQZBrJS0zP6PnboNEdalgaXCrOb+txmow17wVnJ8bx7EJ012n6Hp7QsJZJdPpGQxPnfYlf7OYck0/vJypfkGi2qR/N4tAlkPCjK4fungEutCpR2ebQsLpkfz+QukZHJo4gbCiwcjtL0TuesFAHnWjFUSyFEJIhLQgXhl5FXOZOQB1svyJukLCWSUTyQmMJ2fAuWJ7TLG77i7y7szqtBvRz3zOSmMVz6f4aKfBmVYRyVJISGhcxYmCbknkrbcfJJwesVJNTkyfBuMFG3XlvniOpbag1Vn2INH6YugWCXMXzFfPHwBA65ztCAlnFQgpcHRiGApTKu5bvsh6a9Mqog7SR3skoDCO3aP7Gj0TokaQcFZBSk/h0KXXEeRqTRvylhNZt+lBJGy1R0JC4Qr2XziCtJ5u9HSIGkDCWRUM5xJjUBiHUWYtchElXl+8Dlof/HDXSYwXw8CQyKZwKLd1MLWZay9IOKvg3Nwo5jLJ0ov/lcQRHoNEcrG7Ph+Vtx9ROnCn/agiKjd+R2BFxRhgSIG9o+Y6J0XW2wsSzio4NnliQZ5esWyVDRA5sDqrpR63akdbnbLEI4ciGXRdx+4RWudsR0g4q+BCfMz1ezolSNR2lBFJWxhwfm4MGT1DXeHbDBLOKjg0ftTyyupCvTvD23vlbSwApQTS44/LGcdcOoHXxszmxm39uXUYJJxVcDExvug5P931Rudz1uJcTYVPAmk3tMoUJPQkTk6dzj3Xcp8QYQMJp0cyRgbnc6667e3g8D5p5lZzhaLqNkjUMOysxhqJpB2ccySyKZyYODk/L6ItIOF0iSVJFxOXICVKNnHwzer0KS2p1lan31ayqxM3QBCdwsGQNLIYT0wCMDf2I9oDEk6XWJbWqemzyBi6p3I6P+/tWrWaq1QJVZZaiFcTC6TF4t07zTZz48kpJLNJqFyldc42gYTTIxPJCWSlDo4K97DP90kjWs3VPUjU5CLpZotjhXHEswnMZuJUs95GkHC6xBKukbnzyArD9mYgd93FG1tMJJ0iAWhcxVRyBudnz+eea7IfkPAECadHLsbHYQjD8/v9yucEPPT/rEIhPb+zydcjgepE0g7OOOaySUylZsxzkKveFpBwusQSnZH4RaSFbraXq2QV5l60LZWseNJii86Zu75YnB2cymWw3K6UU+aEkUmfTOYqsHOt/RbJReeVEirnmErN4vzshdyzJJztAAmnC6x9hgCJlMhA8Xn7V9/duEZWETWAegmiG0yLM4Xp9CwActXbBRJON0jzRphJzyKtp8EZW3AjlHW/GxQkqiafc9FxTXTPN5tAlsKytjWu4lLcLJZQmUri2QaojZ5AKzKbjSNjZOGl2FJg4V8raY2S/0eJ13LfSObhjGayaa3fMv9eLJyjH3HkZhTFQsr1YpWQUMEQzySgiyxU7v+mfkT9IYvTBdYFf3Z2FHOZBNTc+mYtzuEWL+LSjO56s1uSTMpFj7JIQFVUjCcmMZ2azT9HtDZkcbrAEjWGnOnH2IK0IbDFFpeEnE9ZKmFVLnjagdVZ+PqCse3GhCmQVoWTzRQWz9uF1Vk4vjVW4b9bQSdq1cHfXBdnyIgsDMPIP0c5na0NWZwusCy0c7OjmMkk8oEi38/TJlanRGtYjLXe9kTlKi7MjmEiNVmz8xD1hYTTA4bIwpDC9sNrSJCossfoYCwHx9S7iqgK6imQZefBGFJGBhkj05DzE/5DwumBlJGBIQUY2EJX1OF92ZBWc3Xd2kLWPQDSLCK5CAmouSR4a+M2Cg61PiScLrAu+DMzI5hKx6FwpebnckutXONmyulsWpEsgbXj5cXEFKYoONQ2UHDIAxrXSraTA+AsSIQyaUmLvil6qkRaUn7sRcGj4oCPuyCRXYDI/nm56HNxugrczOLnB5xxaIrW6GkQPkHC6QKeqxSK6wkoTbyHTLEoV6KU4JUeV4L7EA1ud5EsRkqJAFdwZvosgPnriGhd6DfoEAkJhSnIGllMpeagcsW1y+U0kFMVZaqIPA5R+hgXQaJWcatrCWcc8UwCQOnm10RrQcLpEmmTmShtv7GnbNOPckEin/pmVCOQvp2gg6jlmjhRX0g4m5i2bzXXUTBk9WzTLu8Q7iDhdIrlZUsJQxoLnyz1nY1VWOyu173VnCwzZ9v32Bxjc8oO9cZtERDQOMf52QuUktQmkHA6xLrQLyUnMZmahsaUulz69bzBqqkiKoYxBsZY54qoLHgIs0w3qachZLPVUhFeIOF0ScbIIC2yjgu5y+pGraqISoztSxJ9qXOWWovNRek7IgYibR4loKBQ+0DC6RLGWNkGDV5EydZdr1BF5DlI5MEMdPKWtjcuHQok0f6QcLYArdL0o60gkSTKQMJZBU4FrfiounWGLzMPR6lIVc+mRSCRJFxCwlkDyrnaXsew3aKjgrtua3WWafphZ3UWPt1MteslsVt7JJEkfICE0wOF1S9O3daGWJ0VxvXL6mx45JzEkKgzJJw1wq3VWU2rOc9CUaNWczXVLRJJogkg4WwhOi5IRCJJNCkknF5xsN5X5i2572unBHbu+uI5OBnLwTFFB7lKWaS1R6LFIOF0CWfM/V5DHt31Su64myi5lyBRhcNz4y5+l5QA4xycMfObDgvOdMiP2dGQcDrEqvoYDPejP9yHrNDBpPtKEFur04c7y3aIClZnVWMXHmP9KB1SIEMC2bmQcLpEUzRoiurexa211enTHetHFN26qNpJRPwQSD+aQBPNAQmnS4QUDW3U0Cqt5lqZ2liRDFmh13Rdm6gfJJwuUZgCjc3vOGeynQEAACAASURBVMJy90E1EeZauet+N/1oiZxOl9TD1WZgEMJAX6gHGqd9h9oB2nPIIQwMutChchU9oR5khG6uezpIMi+3CVspym7kBlMQCxuN5F93OP7iScoFYfDCYez2Iyp8i197EflFXbXbwV8KxoCs0LG8eykCSsB8rok+L8I9ZHG6wLLgNK7CKHDX3VqdZY9qcqvT0fnrqFx1Dc5IufjhEAYG3dBrODminpBweiCkBBDgmuM1QF+DRJXe71U5HHaGL/OWmtMqImkH9eNsH0g4XWC5V8u7lqJLCxVsoVF/2r2KqG4iWUoga/AXwRAGhqKDAEBd4NsAEk4PaFwFZ7ykWDRL0w9bd73sce7GtT1GSnNt1OF4DRXJOsAYQ0YY6Al25abRYhE0YhEknC4wK4aApZEhxLQwhBCOF/n9uFWK3fVyrebK4aSKaPFLpV+r1GpOwF4cfZMPO6uxASJZDAODlBIhNQCFUyy2XSDh9EBXMIoA12AA+fAzqyAgpai11VlybAdZAJXHKo+1lud7E5AmEkTHMEAXOpaGe9Eb7jaforXOloeE0wWWdbksugxRLQzhco3TcYAnRzu1mnNNqwlkGSQAVVGhMKXRUyF8goTTDcy03HqCMYTVIPQmuJmbOUhkWlYOrKs2EsliGBiyho4l0T50h7obPR3CJ0g4XcDAYAgDQSWIqBrO5XLOC4Pv7nqV2I4tKx3nfuxFr0sJRWHgxbrZxiJphwGBqBZFRAs3eiqET5BwuiUnBIORPmhccb2OV627Xskd90WGqmw1t+CFDhPJYqzE94FIL7qCsfxzRGtDwukSnvvINvdvQIRri3LymAdtcGoZ2r/fWbpR8QuizHHVWJ0dsX2wQxhjMKRERIsgqAbhuSyWaCpIOD3SF+oF50p1Jl6trc6q5uaT1UkgK3QMRvsBmBF2sjhbHxJOl1ipJJsHNyCsBCAgPQVamgVqNVdbhBSIqEEMREzhJM1sD0g4XZIvu4wuBRiDKCEk7dBqzsvYRI5cdj+TDIZhoC/QhaHYYKNnRfgICadHIloYSyP91YtNM7vr5U+x+JhOVNFy5VDMtDi7ghEMhPvMpyj5vS0g4ayCa4auBGB+iMXCVu9Wc5XSmLxYnfbBcif5nC1MKTG0e5SBgSErDPSEurAktgTAfHCRaG3ot1gF63vXeH6v71an45O5oAVazVWNSzF0S1bo6An1YFnXEjMDgwzOtoCEswo29a+HIeeDQ422smpRRVSN1dl0GlpjkSyGMbPBR08uf9MQBkXU2wQSziq4vHcVYmqwomA1S9MPW3e9wjzcjNsUeHCra4EhDMQCYWwcWg+A1jfbCRLOKggoQVwzuBFZITztuePHvVwuCORlOWDxIO7faO5HxCAMWXvXvQkE0g4hBUJKEMu7lgGgiqF2goSzCgJcw5UDG5AVer5XZ6Hb24hWc27c9cKUp3Lrp07c9VLHmC97VDIfgjONxOxrIBEJhLCuz1wLt64RovWh36RHrN0frxzYiLShe170d5s2VGo9sp5Wp9MAkatE+RYSRMcwwJAGwloYa/tX2+4WSrQmJJwesay1NT2XoS8QgSHn3XUKEpUZpB1FshTStDDX962CqmiefydEc0LC6RFrvWoo3I+rBjYgZWRLWhSt2mqu6rGtPecL987oICQkFMawYXBdo6dC1AASTq/kmhp3h3qwdXADknra8+K/H+764sHKPuUeF+46YwXHd6h3KiGhcAWbBjcCoMBQu0HC6REGBiEEFMZxRd9aiKI1rJoFiRyqYLO1mus4JBDgAVyz4ioAlIrUbpBwVoF1M6zvW4sN3cuRMjJQqr1BPFqdlYJAbq3akjTLfkRNyIJezZJBlwKX9SxDD22X0ZaQcFaB5X6t7l6JDb1rcu5663+k1GquPBUb2zPAMASuXbGVgkJtSuvf5Q2EMQZdGIgFYljbuxJpYdi6ZF46wxdDrebqj5fdPxgYMiKL61Zup7XNNoWEs2rMO+maoa1YHulDRmSrryJqZne9/ClaFj+3bJdSIqQGsXloY/57or0g4awShZt7ZV+/7BpcFl2CpJ7JW52tms8J2M/dUT5nkwtFLfeQ44wjZWRw48qr0RWMmk+S0dl2kHBWiVlaJ9Ab6sEGq82czY1YqUdnscVY9n7Oj1VmjArv9+SuO2g116i0TTursZ4bbXLGkdTTuG7lNkQCUUhIctfbEBJOP8jldF6zZAtiagi6NPIvtbLVaT+mzfM5VapH6k2z7jxsft4Mm4c2ggGLdkEl2gMSTh/gjIGB4bY1N6Mv2AVd2ndLqrYzfN1azVUZJDIMASEEqvVTG2E1eoUzjpSewVVD67Cq7zIAlPjerpBw+gCD2bB2MNyHjX2Xg1VxZ3t5p627XqmKyOs0a6RcrSKQdnDGEc8mceXQRiyNDpGb3saQcPpF7v5459q3QjK2wKJstLPWjE0/Wl0kSyGlhMI4rlq2GQE1ACEEVQy1KSScPmFZFm++7I2IamFHYlUxSGSTtunEXfdqdTou1XRQRdSoAE0jsKLpa3tXYsvSTQCozLKdIeH0md5gD+64/Gak9SyUgsa1ZHW2N4wxJLMprO27DJuGNkJIsjbbGRJOH7HE6fY1b0FW6LbrW43oDO9pbBfjdp5ULkRIgZAaxFVLN0PlqimctL7ZtpBw+klOPa7oW4urB9cjLUr36HQxlOcqotKDlX3KPR1oWZaCgSFtZLEsNoDb1r8FAG2T0e7Qb9dPcvmcvaFe3Ln2NkxlElCZkn+5o9x1USmDv41ggBACS7uGsHFwnRlNJze9rSHh9BEGll/bum7p1VgS6oEh9JI5na7cdSdBIlRXu+7UXV80TKkgEWMQQpr77Cw+bWsjFz+kkAhwFbesfiMA6+duu5+cKICE02c445BSYmP/Orxl5bWYyCSg8OYJEnnF87xbWT9KiGQpdGlAUzS8/YpfAsDITe8A6DfsMwwMhjQQUkN404rrEFEDEFKU/KCbudVcuRfKncosOGxBHIpkMQwMEBI3XrYNq3pW1G5+RFNBwlkDLKvzlstuxFX96zCTTYJ5sEK8VPk0utVc01NKIKv52RmgS4F3XPFLfsyOaBFIOGsAZxyGNDAUGcCNK7ZD46rjtKNaU89Wcw3HT4G0O4WUGIz04eY1N+RO2bSfBuEjJJw1wurT+d4Nd2Ag2IO0UbrBsR+t5ord9WZoNSeFhKhVupKd1VhjkSxG4ypm0wm8e/PtCGkhANTUo1Mg4awRVuOPVd3LcdOKa8DlvDg2OkDk2Soq87ZFUXk/xKtBgugExhgMKRBWNdy67qZ80jvRGZBw1pJcXucHtrwPqqLa3vTVtppz/qIzbK1OF6dyPY0mFUg7OOOYScfxlrU3YsPgOgBUm95JkHDWEJb7b/PARty0fBsysnROZyW8aEhTt5prMZG0gzGGWy6/AdFAFIYwyE3vIEg468SHtv4nMzG6xfcjclVF1MSudjWoTMFcOoFtS6/Am9a8EWalEN1KnQT9tmuMJVBbBjfhxqVbkdAzUMp87M3Q9KN4CNfuOgOEIdGuS34it7byptXXYXnXUgghwMlN7yhIOGuMFSQKqSH82uZfQUpkwXOVRG50xY98y+IxCgXRsbsuy8xbyvmWcrLSQK0JYwypbBqXdS/FuzbdDqpL70xIOOvIjcuvxW3Lt2MqM7eg+QfQfK3mFp+r/UTQE7nsiO3Lt2D9wFpIIanEsgOh33gdYIxBFzq6g914z4Z3QGMqJKTrD9+t1VlVqznSyZIY0kCXFsGvXvUrACiS3qmQcNYJhSmQUuItq27EG5deiZlMApwprRkkKueuw3xNivZUXiEErlt5Fa697BoAJJydCglnnWDMbDnXFezC+zf9CmKBMLIii8L7znd3vUqcjr3oWUOYa53tpCky18BFCHzsjR+gpYsOh4SzjihcgZAC71h7G25cdhUywoBndfHorldyx92UZ1ZOTWoR5XRQvskYQ9rI4PoVW3Hl0k2Us9nhkHDWGcYYJID/cuV/RFDRIMRC+fHSas7WMvQ5LcmP4xpKFXmlDBxpXccH3/B+83dI24Z0NCScdca0VCRuXHE9bl99A1IiCzeWmZcATr1bzUkhIY0GC4tHgSz1Ns44ZjJx3Lb2jbh2xTayNgkSzkbyO9d8EFElCNng+7Caph+L3PVGBEt8FMlizMbUAl2BKH5j+/sQC8Zo61+ChLMRWEnxq7svw4e3vBeT6ThUrs6/nruDq+nhWSt33WvTD9+ooUiWQs0183jb+jfhDauuo21/CQAknA1DQoIzhvdc8S5s7lmJuJ52nEjtu7uOxYJYzl0vl2jPAEgpIYV0bnw6CM6UUjuPb3MMYwxpkcVQtBd3bn47Aoq2oN8A0bmQcDYIzjgMIbA8uhQfvuo/ISt0APONcJu51Vyl46SAfRPjOluMVSGBlJHFLZe/ETesug66MPINqonOhoSzgXDOwBjDHetvx1tWbsd0Nt4Yq7PS+72qVCuJZBHWpnuD4R585PrfgMIVauRB5CHhbCBmQrWBsBrGh7e+H0OhXqRFtmFraG6CRIXHlszndFgS1QwiaUdSz+DOTbdh/eBaSEk16cQ8dCU0GIUrMKSBG1dch19efTOyhr5IwJql6YeTISQDhMCikks/1x7rgYDA2t4VuOumjwCg0kpiISScTYC1nfBvXfMbWN+7ArrDRpZ+CE+xu+6m1Vxh5L7UMoBkzS+QpdC4gplUHHfd+CHEAlFKdicWQcLZBDCYa51Lo0P47W2/gaSeMZ8ruF+bxeqsBGtFpSxA4Qpm0gncuvaNuHX9TebnR8YmUQQJZxMhpMQ7Lr8N/3H9rZjVU1BY5Qiu4wCPdQ5Hg9k85eAcDAATuUNbTECt9n+xQAS/feNvIpqzNilvkyiGhLPJULiC37vuI1gdHULKyEBpQEDCU5CohLveanDGEc+k8L6tv4zrVl5DFUKELSScTQTPtZ5bEVuG37v2N821Tr/d9SqpOJIEeItZmoD52ScySVy1ZD0+cN3785YmWZtEKUg4mwwrf/D2y9+K96x7K2ayiUXbbBRTrbteOQjkAgkwg7XOuqCUYFJCN3RoXMFvXvd+LOtaQhVCRFlIOJsM62YNqSH8zvYPYnVsCeaySdcuu63Vma9IqvR+e7m0e2V+n7YmMDmldPYAADBkhY47Nt2KO698B4QU+Q31CKIUdHU0IQozGx5f1rUCn7juwwgqGgyne+161CzHVmeZ8SUkFHDEZAAG6hhUsRVEZ+hCx4quJfj4mz8KBlCiO1ERukKaFM44hBS4Y93teM+625DQ0w0JFDmh0MJUJEMQCmoSUi9rNXqDMw5dGvjkW+7C0thQc1jLRNPTnHciAWDe8vmTGz6OrX1rkdDTVbW7dOuulx+rNAw+LW/6LJCl0LiK6fQcfm3LO/FL699Mie6EY0g4mxwJiZAawqfe9Pvo0iLQbfIKvTT9qDSGm1ZzAADGoEiOoKG5a85cB5EsRmUKZjMJbOhfhQ/f8AEo3NyymaLohBNIOJscBjNFaduSrfjE9g8grqccR3vLyo/PVqfM/WdW2ufSqFwFaOoHY2YwKKKF8Ae3/DZW9iw3A0JNuhRCNB90pbQA1tbCv7rp3fjV9W/DRGauZFWR71YnykTISzzNJLBcRtHDQzCkaNqLi4EhrpuJ7reuvzm3TTNZmoRzmvXaJgqwErFVruIPrv8Yrh/ahNls0pGFVE97TgIIgCMA3rQhFsYYEtkUblx5NT5x88egMA6Vq+SiE64g4WwRGLMa6/bjD6//CAZCXfmu8W6odau5EFyub9YZQxhYGu3Hn73tkwhpYapFJzxBwtlCWPmdb1h2Lf7g+g+b21MU3fONajUnYU6lByF08RCMJrQ5OePQhYE/eutd2DC41gwGkYtOeICEs8Wwene+d8Md+K9b34u5bOVN3iq1mvOjOYclP1EWgJabYzNZchpXMZmawa9vezfeueltEE4LCgiiBCScLYgVLPrtaz6Id66+EdOZ+IJgkdva9VK4tTolzIspIjVwpiDElKZJJte4ivHkNN6+/s34b7f8Tr4OvZmEnWgtSDhbmIASwB++4bexbWADkhUqi+ohYRwMIRlAgKmIcC1XdtlYOOOYyyZw9dIN+NPbPoGQFqJ8TaJqSDhbFM44DGngsq4V+LM3/T6Gwr3ICB3c4a908b5G3pGw1jgZIlARYBxhqA23OBVw6EJHTyCGP37rx7GqdyUMYVC+JlE1dAW1MAozN3q7euhK/OkNdwEADGmAgfniruep5K7niCEAASDINYR4ILe3ep0tOzn/kFIio2fxB7d8FDesvh5CCtoXnfAFEs4WR2EKBATetuYW/NF1/xVZYdhaetW2mqtEWKqAlNCYijBTYED6c4FJF48cCuNI6Cl87I2/jvdd/W7a3pfwFbqS2gAOs5PSr295Hz5y1a9iKpsAL0yzqUOrOQMSvTIIyRjCioaYEvSWklRGDJ2iMI7J1CzedcWt+PjNv2Va4ZR2RPgICWebwBmHhMTvbv8QPrT5VzCVSYA72OzNT8IwA0JhpiHqxFX3QSSLUbmCydQc7rjirfj02z8JzjhZmoTv0BXVTkhzs7dPXPdbuHPNmzGVjTvI8azeXbekMSaDYLmhepUIwlyFyDf8KPHwGZUrSOsZbFu2Eb9/y0fRFewyN1yjCDrhMyScbYRZlikQC8TwRzf8Lm5Ztg1pkTXFsw6t5qIIQmEMgklEeRAhKDDq1P2Ic454NoVlXYP4n+/6M6ztX0MRdKJm0FXVZii5zvHLo0vwFzf/MdZ2r0Aim8rvoVMrGdMh0C2DYOAQUqJXiSDGg5BSgNfQ4jONV4aMnkV3KIrP3P5JbBxcB0MYFEEnagYJZxtibbuxPLYU//Pm/44VsSGk9Exll9XGXa/Uak5Aok8GoTEVjAEGBHrVcD4J3gtOg+gMDIbQEQ2E8Td3fAo3rnkDhJQkmkRNIeFsUyzx3DSwAX9322exLDKAjKHngkj+IgGEoOYsSwYBIKqEEFVCjs7ldfmTMw5DGIgGIvjcHZ/Cm9bckHPPaU2TqC0knG2MJSybBzbg87d+GsuiA0gZmUVNkEu1mnMaJGJgMAD0IwwVSr5LkoTECq0bQaZCFCXO+xEjUnN/GADgL9/xx7jp8hvIPSfqBglnm6NwsxXdlYNX4HNv/f+wMjKElJGB6jJVqXzTD4kINCiMgTEzSKVLgRXBPgSZmttOw7/1VbPcVCIrdPzpbb+L2zbcQnuhE3WFrrQOwHLbtw5uxl+99X9gWXQACSPjS8SZAdAh0S8jUKFAAFDAYEBgeaAPUSWYSwnyBwYGXehI6Cl86tbfw/uveW++hR2lHRH1goSzQygUz8/f+mksjfQjbWTzYuOkM7yd1alDIMaCUBkHGCAZh2RAmGtYqXWDMeaLtWkGggxEtBD+z52fxa9tf68pyoxRZRBRV0g4OwhLPDf3b8Tf3fpZLIn0Iy2yUDxeBgzMjKgjaG6ZYcW5meVOC2yILIXiwx5EZvd2HZFACJ+741N4x6bbYEjK0yQaA111HYbVjs4KGK2IDCJhpPMlm3kcdoY3INElAwhCNWWTmZF1Lhkkk9gQXooo11DNCqfKOFJ6GtFAGH/9rj/DTZffAF3oJXf6JIh6QMLZgVh7F105cAU+f+tnsbV/nRkwchORzumgDokuZjYvtjZpYwyQHAAYglzDtV1rkJWGpxVIjXEkjQyWxwbxv3/5T/HmtTdCSAGVqx5GIwh/IOHsUCy3/YqB9fib2/4cb1iyBdPpeNku8sWYgSEDgzKKKAIwIKFg3uIUADhXsC22CioUuOrNKQGNKZhIzmFD/2r8w3v/N25Z/2YqoySaAroCOxjLbV8WHcKf3/wneMeamzCZmVsgnmWriKT5fZRpCDAFkgEyF6hhjEFhgIRAnxbDNV0rkZAFkfwKJUEKYxhPzuCdV9yMz935GWwcWgdDUp4m0RyQcHY4ltu+PLoEf/HmP8Z/2XQnptJzAEPZ9B4ryT0MFWEE8+WPjJl7DzHGIBmHIYGoGsT1PesQhmZGwcssd7LcYzaTxPuvvgP/645PYd3A5Wb3dlrTJJoEEk4i77bHAjH8yY2/j7uu+c/I6jqEEGbTkJLvYshCog8h9CIMAwJmRhDLWZ7mxcU4Q1bouCK6Em/qXYe4noZikzqkMAZdGjCkwO+96Tfx57/8J4gGomZyO7nnRBNBK+wEgJx4QkJlCj5+7UfQH+zFP+39NjKGjqCiQUgjf6xVVqlDoFcG0ccj0FlBKhIYOBgkY1DBIHJm5FsGt+BEYgzn0pMIcW1ByzmVc8ymE1jWNYD/dstH8e4t7zTPRVteEE0IXZFEHqv9m5AC/3nL+/DXb/kfWBrpx1w2uWht0bIZuxFEFAFIyFxzDVMwJSsQT8aREQaWhwfwnhVvRJQHkRF63vJUOcdEchbXr9yKz7/7L/DuLe/M16FTYjvRjDAp69RplmgpLPf49Ylj+Ied/4LnR19FfzCWFzSzCybH29habOerkGI6VK6AMQ6FcXBuPhhXwbkCRVUAxhALRPHq9DB+eOZ5jGfmEOAaEpkkfm3bHfjELR9Df6SPXHOi6SHhJGwxpAGFKRhPTeH/vfIVPDj8NLq1CICcm44A7mRbsIx1w+CAwk3RZIpiiibjUBTFFM7cV8Y4YsEITicv4f7Tz+Pk7AX84S2/hV/d/l4oXMmfkyCaGRJOoiyW9ZcxMvjea/fjnv0/QFYaEIxhDbrwG/w6pLkBhXFT8DgD50rO4lSg8ALhVBQoXAVXFES0EOIyg6GV67Fp1dW5SiWyNInWgK5SoiyccUgpEVAC+NBVv46/vPmPsTw8ACENrGa9Vl4SrGi6FRgyHzDLiHLRdgYGMAbOOZJGGquWrMWmVVdDSpFbI6XLkWgNKKpOVMQK0Egpcdvqm7EqtAR//9QXsMEYgJ6zEllBMKjwwa3ORdwUTWusSKQby1dtgoTM17cTRKtAf+IJx5jt4STWL9mIDyz/ZfQhbNan5/M3TfFUmJmTqTCWsz1NAeU5a1NKiZUrNyGghXJJ9iSaRGtBwkm4goFBSoF1G7cjm9vBkjEOxmTesjT7cZpfGQcYzznv3Gwv1x3rw+DAikb/KAThGRJOwjWMcQz0L0dXrDfffZ3nu3rOb5+R/48xMM7MNUxhYNmKDWC0zQXRwtDVS3giEAhi1epN0IUBzs3em5IV1KrnAkFg8+IJxhAIhhHr6suNQgkdRGtCwkl4ZsmS1WBS5iLoCwNEKNi4zXxwCCHQ07MEmhbKjUBrm0RrQsJJuMZK/e3uHkAk2gNDCjNqjty6Zj4had7SVDiHFAZ6ugehKJTgTrQ2JJyEa6yUomAwjP6B5ZCGAc75/PbAHPmgEM+VX0owqGoAoUgMwLz4EkQrQsJJeERC04Lo7umHIQ2wXCR9QVAol7tpJrZLBINhKIrW6IkTRNWQcBKesCzGnp7BvAXKgXxQiDEGJue7wZvCGUJACwAAqOkR0cqQcBJVEYn0IBrtMcsmWUF1UEFKEpi53qlpQXCFitWI1oeEk/CIaTJGI12IxfrNbvFcmXfVC0TUjLZLqFoQat5VJ5OTaF1IOAlP5ANEoQjCoTCEELCS38EZFFj9ODk4ZxCMQVODACgwRLQ+JJyEZ2QuKBQMxQAIMG7WEHHGIPl8OpKVmqRqgdziJgkn0dqQcBKekTLnrsd6EFCDgEROPFlB4ru1VTBdakT7QCv1hGesyHg41AU1EASsFnGsxBqnpkHTgg2dL0H4BZkBRBWYyhkKR6BpQUiJRZYmy1manKtQ1cCC9xFEq0LCSXjGsjiDwQg0NQBrAzfFql7PdUTifF5ACaIdoKuZqIKcxRkMQ9UCuXJLBsmZWXKZ6wzP8uLZ4OkShE+QcBJVIYQA5wo0VQMTBWKZb3Cc+8o5lQsRbQMJJ1E9jEFRtVxnpMUR9XwFEUG0CSScRFVYRmRXVx8UTcuXWiKfx5mzOnPfE0Q7QMJJ+ILEfOd3a3O2wsi61SmJINoBEk6iSqztfnugKKq5t1C+1NJ6mNF1kk2iXSDhJHxBVbV5d5zx3FYa8246CSfRTpBwEv5QMvm94MHN+nWCaAfoSiZ8IRyOQFVUIB8QMt31/PYZ4HSxEW0DXctEVVjxHlUNgjNlPhiUszIZnxdRgmgXqMkH4RPSrBYCM4NBnJuFl2w+WERRdaJdIDOAqBKW/7LA2rRKLXPfK8zs01nwDoJoWUg4CV9QFA0s76rPB4Tybjrn1L6YaBtIOAkfkAgEwuCKYjb6YKZQ8lziO7cszwLrlCBaGRJOwjfy22QUVQ1xroAxCSlFo6dIEL5Awkn4hlUpZKYgsfnqIcW8zKxN2mivNqLVoag64RvWuqZiBYO4knfTra2DAfLUidaHLE7CVxhYLvXIWuPMPZT5qDopJ9HqkHASvqFpAUgA0jByuZwMCjfXPDlTSDCJtoFcdcIHTEVctXorZqbHkM0kYRhZCCEgpTRddkUpWNskBSVaGyYlLdUT/iIhkUrMIJNJQjcykEKHyhnCkX4Ewz2Nnh5BVA0JJ+EfUkIC+SAQAAhpQOhZGCIDhatQtUjj5kcQPkHCSdQE67JiVJ9OtCG0xknUBBJMop2hqDpBEIRLSDgJgiBcQsJJEAThEhJOgugApJRo5Thws82fouoE0QCkEOZe9B63FLGEpFwIzm67klpkPEgpzHaCdaAZMjYoqk4Q9URKpNNpHD9+DAxAIBhEIBhyPUYqlYKezZQVj2isC2AMwUAAoVAIWkBDIBCEoigFQ8mqBSiTyeD4saMIBoMIBIP+dr+SEoqiIBQKmZ9VIIBAIJB7SeZ2Y6m/gJJwEkQ9YQynTp3C+dFRcM49u6BWv9NCiseRcgQAIISAqqoIRyKIxWLo6upCV1c3evv68mNUI6CjoyM4Pzpacg6+ICWElAiFw4jFoujr60dPbx96e3v9P5dDyFUniDoyOzuL3TtfzgkV9+SqL7pl3vqV5gAAIABJREFUpQRKCOk8DICEECL/CIVC6OntRV9fH1ZctsqzzWYIgZd3vIRkPA5FUUoKeiWcuN6MsfzcDV1HOBLBwOAg1ly+FqGQS4vdB0g4CaKOxONxTE5OID47i0w2i5mpKWR1fX7LkTJY1mlXV9fCF3KiEp+bW/Sewm78xWPpug5VUdDd04PLVq3C4NAS1z+PYRi4cOE8EvE40uk05mZnkU6nIYWouCV04c9jCIFEPG47/8LvAdOKNgwD0WgUmzZfid6+PtdzrwYSToJoAJZoCCEwOzOLs2dPY2J8vKTVxRiDYRjo6+vDpiu3QNO0kmMKIZDNZjEzPYV4PI7pqSkkk0lks1kAgKIoC6xVxpg5B8OAoqpYsmwZ1q/fAFVVPbnu1li6YeDUyWGMjozYjsEYw+YtW9Hb25sXR6ubVjKZxPTUJC5duoREPA5d10ta5owx6LqOYDCILVuvQm9fny9rtk4g4SSIJuHggX0Yuzi2SCQY40inU9h+3XUYHBxyNebc3BxGz53D5NQk4nNzeXe61G1vinM/Nl95JULhcFU/CwDs2vkK5mZnF1mMup7F0NASbL16W0WRm5ubxckTwxgfvwTO2OKdUhmDns2it68f12zfviDwVUsoj5MgGowlYitWXAbDMBaJSb5xfkEgxymxWAwbN23CNddei8tWrQKAkucAAFVVMTExjgP79yOZTHj5URbQ09tbcq5SAmDOtouOxbpw1bZtuHztOhilAmlSQlVVzMxMY3TkXO6p2tuCJJwE0SQoWm2SXKSUCAaC2HjFJmy96mpEolHoul5y3VPTNMzOzuDggQPQdb2q8/rpMK+5/HIsX768pCgyxiB0AxPjEzAM3dai9hMSToJoFmp0rxdaqgODg7h62zb09w8gm82WFE9VVTEzPY3XD79Wmwl5QEqJ9es3IBgMlki7klBUBYlEHIlE9ZayE0g4CaJDsCyxcDiCK7duxcDAQFnL8+LFizh16mT+uUbCGIOqaegfGLC1OnVdh64bdZkPCSdBNBG2mZg+RYot8QwEAth4xSbEYl0QRmmxYYzh/MgIEom4ef4miCMPDAyWjJxzzpFKJpFOpeoyDxJOgmgSVEXJlSwudkUDgQBUtXQaklss8YxEo9iwcSOUXPpR8Tk554jH4xg5d85Mn/Ll7NURiURKCrg1X6+1/24h4SSIBmNZT4xzKJpWWsQUxVdRsM7Z19+PJUuX2kS/zTrxsYsXEZ+bq0vQpRKMl47GCyEQCAah5erYa43vwumk9tY6pvA4rzW7duPU+xdsd956z8fN5+/lvX7TDJ+Z3bntrquazqsBn//la9chGAiU/Lk450gkEhgfHwfQ+C1RhBCLljPm127DCOfyT2s9z6qF06p+EEIAKN18oPjYUmVg1vdOb3y78xWOXeuLvNQ8FufgLXzeqo7wcw7WPKy1H6effzH1+twqXS+lPjPr+HJjeqXU51fuuspX3FRxzmaBMYZAIIDBJUtsf+eKomBi/BIymUydZ7eYZCIxn9hagBACPb29CIVCdfmD6zpxrPgvr6qqCy6wyckpDA8PY/v2a/KuhXWRWVULyWQSc7OzOHv2HCYmJxAOh7F61Wp0dXehp8fcd1sIUdI1MQwjPw4ATE1NYXJiEmfOnEFW19Hf34fly5cjFoshFosteI9fFP88AJCIx5FIJpFKpXD06FGzTE43sGTJEvQPDCASjaC7qys/D8MwwDn3VNZW+ChurJBIJDA6MgrDMLDxio0AAAYGQ8x/bul0GhMTEzg5fBLJVBKccxi6gXXr12FwcDBfC233O/CKJTTWmLquY3Z2FslkCqdOnUQingBXOIaGlmBgoB/hiPmZWcdbAlr481o3iVVO6PbzLL6eUqkU4vE40ukMzo+OYnpmGsIQ6O7pxvLlyxEOhRGJRhAOh/Nlgl4aWzQbK1asxLmzZxe549ba4czMDDLpNAI5y7RRP+/Y2NiiOQohEIlEsHTZsrrNw7FwWjdq8c2uZ7MYPX8e586N4PUjR/Dkk0/h3Llz+Oa3/hXLly/PX5iKouDChQs4sP8Annn6aby6bz8mJ6fAOcuPu2HDBrzrjnfh7bffju6e7gW/ICklDMOAqqoQUuLQwYN48cUXseOll3HixImcCc8gpEA4HMaWLVfirbfeitvf9jZ0dXf59su2xERRFCQSCRw9ehSHDr6GV1/di+PHTyz4xRbW327YuAFXX70N119/Ha7cvBlDS4YWjOeE4pvc4tL4OMYuXsTw8WE8/8LzeP75F7Bp0yb81ef+CgP9/dCFDlVRMTMzg32v7sPjjz+OF198CclkMtdYQubrobdvvwZ33HkHbr31VkQiEd/Es/CP1+joeRw6eAh79u7B4dcO49SpUzBykV3r9xwMBrF+w3pctXUrrr32WqzfsB7Lli2zncuZM2fw5JNP4kMf+pCj+Zh//GR+TocPH8HRo69j967dOHbsGEZyf3zMPztmiqWuZ7Fy5UpcccUVuOmmN2HzlZuxbt06AP7/kak3oVAIfX19mJycLFHyaab6zMzMINbVVXfRtO6lZCKOS7n7qxAhBFatXo2uru66ibrrWvXp6WmMjI7iwvnzOHd2BKdPncLrR1/HsWPH8+sM0WgYn/ubv8GmTZvMNZJ4HI8++hge+/lj2PfqPoRCIQSDwUW/oGw2i2QyiTe/+Sbc9bt3Yd26dQsEGwAOHDiAhx56GE8/9TRmZmYRiUSglai4SKfTyGQyuOmmm3DXXb+DdevXVfExmVg3fyKZwM9/9nPs3LkTO3a8jGQymV9bMYUNUFVtgVuu6zpSuVSJrVu34r3vfQ/e/o63u7aUdF3H6Ogozp+/gPOjoxg+eRInTpzAiWMnMD4xjkgkAiklNm7ciM989tO47LLLAADPPvccHvjRj7Fz5y4AQDQaXTQ2YwypVAqZTAa33/42fPKTn0RPb09VF6OUEpAA4wzDwyfxxBNPYMeOHTh08FD+Z7eioVoggEAuOGI1rEin0hBS4Oqrr8L27ddi7drLMbRkCXp6uqHrOsbHJ3Dm9Gk8+NMHkUgm8cP7flBxvoUi99RTT2PXzp147tnncXHsIsLhcH4+jDFoBfOxBMS6TletWoU777wD/+E9/wH9/f1V37TJZBJ79+xGJp1eNI6iqth2zXZ0dflnBCxASpw4cRwnh4fzP7OF9XOvXrMG6zdsdDzk8WNHceb06QX3OWMM2WwWy5Ytx+atWytWF1nXh67rOHTwACYnJoqaggisXnM51q5bX1dBr2hxWr+kqckp3HvvD7Bv/z5MTU5hfHwcU5NT0AIagsFg3sXOZrOQkuWtg5dfehnf+/73sXv3HigKx8DAQP4HLl4jUlUVPT09ePHFlzAXj+Mzn/kMli83x4nPxfGDH/wADz/8CEZGRtDT04Pe3p4F7lvhLzsYDCIcDmPHjh0YGTmHL3zhCxgcGvT8QVlu8a6du/Dtb38H+/btg2EYiMViMAwDUkoMDQ1B0zSkUimcPXsWwWAQmqblLe6u3F/rw4cP49jRY9i9ezc++rGPYsmSJbYWi/X5p9Mp3H/f/di5cxdmZ+dw6dIlTIxPIKtnEQwGEQwG0d/fD8YYZmZm0NPbgxUrVmByYhJ3330Pnnr6KczOzKK7u3vB+lzx303rc3vyyaeQTKbw6U9/yrPFnn8PA+6991785IGf4syZM9A0DeFwGN3d3dh29dXoH+jH7Nwcjh87huHhk+CcIxAIQNPMa4sxhqNHj2HPnr2IxWLo6+9DNBKFIQxMT81gctK8mdasWeNoXpxznDt7Dl+/+2689OJLmJudQ6wrhmg0imxWR39/P0KhEIQQOHXqFBjjCIXMzumcc4RCIUSjUUxNTeHur9+D3bv24K6P/w62bNni6vNpFqzfU6y7u+S9ZL0+Nzvri2Vt9QPlDq4n63o+OXwCE+Pj5rlzQq5pGtat34QVK1dWNR8vOHbVxy6N4aGHHsLY2BgCgQDC4TCGlgzlrapCV0tVVQS0AL5xzzdw3w/vw8zsrPlBcZ5fYLZuXs55vo2VNU5PTw8O7DuAe+6+G5/988/i4IGD+OIXv4jjx09ASolYLIZMZn7bgML1VqurtiWosVgMZ86cxd///f/FX//1X4Fxb3+VGGO47777cc/d9yCRSOTnoKoqPvihD+K2W29FOBLJ/SU0cOHCBbz4wkt44okncGlsDMHcjWhZ5VJKPPLIo/9/e18eH1V57/0958y+JbMkmewhC1sSCEFAgeDagsjmxx29arV28/Zt9d62eu312lr1YrX6tpeq16q0tiJWVFCxr1pvFWQVkBCIQMi+T5bZ93PO/ePMczJ7ZpKA0Xe+n898AjPnPOc5z/J7fvsPFosF991/X1LiCQDDwyN46aU/wuGwQ6lQQa6QQ6sb00XyvJBfkWEYBAIBZGdn43hjI5555jk0NzdDoVBAoVTA4/FEtCuRSMAwNDiOF9si47Zv/35s3rwZ991/34ROc4qi4PP6sGnT49izZw9YloVOp4PP58OqVStx3XXXw5RjhFwuh98fgMvlRGdHF/74pz/i6JGjUKvV4roiBJ1lWditdtisNrH/er0ebrcbVVXJuSFCAA4ePIinn/q/6O7uFjKi67QIBoO47PLLsH79euj12aF5oOByOXHyRDO2v/EG2lvbIFfIAQgMAsMw0GXp0Hi8Eb/8xcN44Of/htra2rQPmXC1TjBOGOT5glwmgzSBdZ1wipM1vJB9Ojo6gu6uLjBMYiLscrrgcjnhcrng9/vD9gaPvLw8zCivgDIkYQkVNM7fuKUsqnMch+7ubrz5xps4dOgzWCwWcBwXw9YDwiBnZ2ejr68PHMchLy8PZWVlWHLhEpQUF0OpUqKvtw+ffroXjY2NsNltUMgVMRwoz/OYPXs2LBYLurq6IJFIoNVqYTKZMGPGDFRUVoBhaHR2dOLEiZPi8yRRDr1Ef3fPvT/GqlWr0jo1CVF+4okn8f7/e1/khrxeL8pmlOG++3+GyorKhPcPDlrw/H//Nz75ZHeEEUH4Nw2nw4H6C+rx4IP/Dn2SfIKBQAA73tqJ999/H0NDQ7DZbGAYJuZdSZ/JIeIMJbdVq9VQKpXIzs5GYWEhBgYGYLVaYbPZ4PF44lojyWbZtOkxLKivF79LBSQDz68ffwK7dr0HlUoJhmHg8Xiwdu0a/OjHP0rYltVqxeObHseBAwdFzi+8T4CQEJimBbUIx3LIytbhkUcfQU1NTdwxJGqWgwcP4rFH/xNWqxUajQaBQABKpRL33HsPGhqWJ+yT3+/Htle3Ydu2vyIQ8EesH6Lvzs3LxYMP/jvmzp2b9hojnNWhA/tFA0w4zqWoTtpzOBw43ngMwVD+zuhrZDIZFi25EBJJavxWPFE9+pnR3G30NcI4UqDpsVyiCrkcOXlmmPPzIZPJRD31+TRaTSgfp8fjxl9fex3v7XoPo1Zr3M76fD7o9XosX74c111/rahri0bT8SY89dTT6OjogFwuEzkfApZlxbYWLlyIyy67FMuWL4tph+M4vPnmW3ht22uw2WwxriRutxsLFizAE0/8GqCopCddeJs0TeMvf3kFL77wIqRSKWiaBsdxMBqN+PUTj6OgoABA/Fje8D78+eU/409/ehkSqQR82DsyDAObzYaNN2/EXXfdFVokyft2/Phx7HhrJ44dOwa73Z4wyavX64VGo0FdXR0uvHAJli5bGlGnJeAP4O8f/R1vvfkWzp5tjXMICoTzoouW4OFfPZzywiTjtmPHTmz+r82iiBsMBpGfX4Df/vZp6LLGxMLwzUN0WhaLBfff929obW2NIOrk99raGnh9Pvh9PhgMBlxzzTWoX1iftD+HDx/Grx7+FRwOJxQKhejZ8POfP4CLll4kth9vLAl2796Dp59+Gi6nK+J7hmHgdDpRV1eHhx/+JbQ6bcrEc7oQTp/XixNNx2G322OSHgPCOC5rWJEwkXI0khHOsIfH5RSj3y8ec8DzPPQGAwoKCmEwGsAwE0vAPBEwDz300EPp3CDo+iSoW1AHiVQiGhvCO8txHMrLZ+AnP/1XbLh6A3Qh3Um8tvLMeaieOxeffroPHo83RpHM8zzKysrwg7t/gH+69RaUlJSI90ajunouZs+ejY//8XFEzkHyl2VZ1NbWIDcvFxzLJRXbyaLfv/8Afve7/xIGK0QAXC4Xfvh/foi6urq4vn/R7jI8z2N+3XyMDI+gsbExhhAoFAqcOHEC8+vmiamz4k0+uScvLw8rLl6B/HwzPvlkd8zCpGkaPp8PeXm5+MHd38edd96BqplVMVwlRVOoqqrC0mVLcfbsWfT09ES4bRHx0eFwYuWqlSnVdiHEcHh4GJs3b8aQZQhyuaAfHBkZwS233Iz6hfUR40aeRT7BYBBarRYejweNjY0Rc0i46d8/uxlXXbUaF198MVavXo38gvjjRuaxt6cHjzz8CAYHLULYHoT6P+vXr8eGDevHnUfy7NLSUpiMRnzyyScRnBeZx87OLmg0atTW1kb0ezwQN7Henu64rnM0TSPPbIZcLk+r3VSfDQAcy8IyZIHP641L7DhOMMSk6to3OjICexQTQxBuFIw33j6fLyVfX4/LjYH+PrhdLqjUanF8zjXS1vKSDrMsi4aGBmg0mgiiSIwot3/rdsyfP1/Ui8QbIJqmwbIsKiorcPXV60PiV6QIZLfbcee370RDw3IEg8G4DufhbdXW1uDOO+8IudqMbTapVIrh4WE0Hj8OAOD4xM7LZBONjo7ilb+8Ap/XC5lMJnJxc+fOxYUXLhGJ4njjRdq84847MG/ePLjd7pjFx7IsXtv2WtxsNdFjT+qtLF16ERYsqIPP5xPHjfyuVqvxve9/D5dffjmCbFA0YEWPWTAoGEN++tOfoLCwMEZ3TK45deqUMG4pOKJTFIW9e/ehva0darVa1L/qdDrMmTNHPBATvSdRP1y15ipkZWVFjAkhrPv37gNF0dDpdGBZVnxuOMgz/H4//vr6drR3dIjrVbDsmnHp5ZeCCRHA8YgRGdvLLr8MV65aBbfbHbFeiTi7Y8dOdHZ2idLJ1wFkD02WYBPaYTAYUF07D9U1tcLfqE/NvHmYUV4Bg8EAAGL5j2gwEgZSmQxDQ0M4fuxzDAwMTKp/qWJC5jGKosAwDIxGIxhJJEtPLGaLFi0Cy7IpDTZFUVi+fDkqK8vhDTvtyMb1er2iWJWM7ScL9Zsrv4nKyoqIDccwDFwulziwyQge2YS7d+9B04km0ShBuM1ly5ZCo9FEuEklA+mXVqfFuvXrwDBMxEbnOA5yuRyffXYYHe0dKbUnuD3RqKmtgS/MfYUQCrPZjJmzZgmcN6i4/p+AQKRYloXJZMKatVfFiGg0TcPj8eDUqTPjjhs5NHmex+lTpyP6xbIstFqtyKWlsgE1Go2o4iHPJUTXarOLY0ckgXj9oSgKfX39+Nvf/gaNRiPWr/F4PJg5swqzZ81KSx9JDp1rr78W2dnZMfOoUMjR3d2NpqamlN/zqwKFQjEl78OyLNQaDQwGA/QGA/R6fcTHYDDAbM5HeUUF5lTXYOEFi1BeWSnum3CEG4YDfj+aTzTBYrFMuo/jYVJ+Bck2EXHDGbcDISt4cUkxysvLIzYb+X1oaCjh5ggH4aJkMhkWLFgQwz0xDIPR4REAiGtUCb/O5XLhs0OHEAywURtDgdLSUrHfqYJcv2zZUsybVwuXK1JHRhbAx//4OK024zkrC9xUHgx6fUrjRojdihUr4hr7WJaNW0ExGoRQDQ0Nob2jPSLpLOE00hkznudRXFwUd7PGE6WjQcb844//AZfTFXEggwdycnOFgIo43GoiEMJdUlKCVatWwuFwRKxzlmWhVCqxf98+UeqZrCX6fGE8CWoqHfzDvWjIv6M/gEBH1BoNyspm4ILFi5GTmxs3DR7PC4lQKIrC6S+aY7xHphqTGompOH2I6EVRFDRaLQKBWFE13QljGAb5BQUxtVVoiobP74sgqNEgE9bfL0S3qNUqcWOxLAuj0QR9SHxIB+R+lUqFefPnQxJH+Q4AJ06eTLvteCBcaTr9MxqNcTlOn8+Hjo42AKkltOW4+Ik7UiHi0X0qLIpPONk4myce/H4/9n66D0qlUuRWOI6DSq1CaUhfni7Ieqivr49wmQLGxPXjx5vS3rwUhXFL6p4LkLnyhxz7o5kCQvyVKtWUZ2hK9onun1yuwJy51TDnF4CLo+ohB3cgEEDr2ZYp62c8TKsYMZ1OB5lMNumEDQBgMhpT3lzx0NXVhb7+/ohSqYFAADk5JhhNRgDpHxx0qG72/HnzoDcY4uoz29vb4fVMPhlrKvrXaFAUlbCuSzoVZOJxgsTq7PP5xP6lgkSGkqwsXUr3OxwOtLW1icRAPMCUSpjzzWJ/0wG5vqKyArNmzYqrXhoeHkZ/f39a7UokkvOWpCIeCAeY6DeFQvmlqB6ide5Vs2YlzF5Prh8ZHobbHVunfaowLQgnefnc3FyoVMopIZz6UIRS2sQttAEG+gfiilksy4JjJ9Y/snlnzpopGj3CQZ43MDi+HnY8kGildEBRlKi7ncwGYVk2gtsnOqjR0VH09vaKz0oF/f39CB8GciCkarXu6emJv55oCgyTur414tYwl7SSkuII4xyBRCJBT09PSu2P/Z7cr/FcgTzd5/UikEAaY1kWulB04JdF2MnYMAyD0rIyyEO+37EWd6GPQyFd57no77QgnATBYHDKXpKdRIU+nudhtdsS+kdOuHwfNZbJRSqTJnTRSmbxHw+ESA0NDWF4ZET8LlVM5tAiC1iv1yPHZIooBkbCU48ePQKv15sygWg92wqeH/P3ZFkWVZVVyDGlFj6byBo7WZBxysrWA4jvZ5iqv+OXjtAcuT3uWKJJkWzxKtGN68s0eBHPBq1WB71Bn4BDFjxs7HbHOevHtCKcUzkhE2lL1PX4/bAMWuI6AU9Fv3ieR0V5RUID1VQ8w+PximLx+QIhbAqFHIWFRRG6ZI4Tslbt3v0pOjs6kxJO8v1IiEMlbdA0jWAgiIsvXQE6RW76TEsCXRc/NZxIvjlPzFcQT+f2VQHLsnDYYpkFKvRbVlY2ZOcpu/p4IIeoVqeLu4coCgDPIxg4d/lDpxXhnE6I5/bAMAwcDgeckzzJKIqaEp+4ZJhIrs+pAFnElVUVyM7Ojqg6SPw5X375ZQQCAdH3Nnzh8zwvcqq73t2F4eFhUe3gcrkwe85srFy5MuJZyUDxscSMFPYaTME1bTwkcvMCUj+8yfM5jk2qt5u4qDM+An6/mFIunmHIYIg1HH7Z0Kg154z5GA8ZwhkGsmClUilyTKYYLkIqlWB4eAQ2m5BgYjITluheiqJCGSC/miC+dosXL8bsOXPg9XoiYonlcjk+/XQvnn32Wfh8PvE3obSroF6RyWTo7u7Be7veA8uykMlk8Hg8yMnJwd13/yCtsMPSsljLOU3T8Pp8GLRYBNXIFOjUo0GMiemAZTn4QmqM6LaE4I9zV/p2ZHQklmiHnqvTCWLxdAHpoUKpFMMs4yHV/Un05iRZTir3pZ0B/v8H0DQtxlITCBynBDbbCAbPkYMtz/OgaAq5ObkAvprO02M6KC023nQjWs6cgd/vF7kVwTqrwBvb34TdZsfq1atRXVMtioFejxeHPvsMW1/ZCovFArVaDYfDAZPJhId+8R+YO3duWsYruSw2BI+4WHWHMp6fi3EOBoPIyxOs9un0NxG36fV4EDhHoifHcejp6ozlNgGA52EwmqBQKCdtNCQQsqSNRRSmjVAfEvVE2Ed0yuGX4cEjEW0kedcM4YwCiSIx55kjxElgTOHf3t4mRhJNdDEluic3NxcqtWpS7/BlgxDJRYsX4aaNN+KlF7cAiFQfqFQqfPjh33Hs82MoKi6GTqcFKAo2qw2tra1wOByQyWSw2+2orq7Gj+/5EaqqqtIug1JUWBRX7SKTyWCzWuFwOqDVpJ6QYzyQg0Ov16OoaOryRJ4LAk/W7kB/H1yuyPBR0W1Lo0FxSTGAqU2eEQwGwWNiygfSbyGiML5qg6ZpaHXju6x5vV4MDgzA4bAjGAxCpVLBaDTBYDQmvS9DOBMgvyAfhjBfS8LKK5VKfH70GEZHR2EymdIW18n1Ho8HPMfHGElqE6RFS4TpypWS97rhhhtgzjPjd7/bDIdDCJMkdarUajXsDgeOHD6CQJDkeqSgVAoVAjQaDW677VasXbdWjDFP18VKm6WF2WzGcCgJLuF65XI52ts7cPqLU1h4wQVTpicjIvrMmTOnvVWdooTEIp0dHfGdyWkKxSUlkEpJnaGpffZk4fF6EhrlaJqGTpcd91lkf/X396Gvpwd55nyUlJQBITcmy+AA+vv7UVFZmZBrzeg4E8BkMqG8fAZ8/rEQUGHDydDc3Bxyk5noZuPR2dWJIDvmMkUIzcKFC9MyKjjsjimN5phKUJQQI3/Z5Zfht797GpdfcTny8/PFeHW/3w+/3w+FUgGj0YiCggLMmFGGurr5uOuub+MPLzyPmzbeJPiWchMT66RSKerq6mLCb6VSKfr7+3Ho0OEJ+fsSdHR2wmazRwRKeDxeLLrgArHo3XQ83MgB0tpyBp4oNyTCbeYXFCI/v0D8brrB6XDENabxPA+tVoes7KyYe8K57OGhIcyaMxd+vw9DQ4MYsgzC5/NiRkUlsrKy8EXzyYQBAZPiOKeThW2qQAiYyWjCrNmz0dh4HEqFUvydZQWuc/v2N7DwgoVpbWZimR8ZHobL6YqJcS4vL0d9ffycktHtUJSQzKOvv3/aWTujwbIsiouLcf/99+HTT/di06ZN8Pl80Gg0WLGiATk5OUJyB5MRs2bOFDPiEBDuJ10Qn9aGhgbs3LlT9EMkfdJoNNi7dy82bFgHc35+WvkzJRIJAoEABqKiywTHeAOWXHQhgKkt4jYVc0zaoCgK7e1tGBwcjDCwEI7ZaDKhMo36QvGQjNhORvVAOGXr6GjCNspmzEh4ryfkUVFEh0UzAAAT9ElEQVRRNRMqlQpdnZ3IycsDQzM4c+oU2CCLwqIiBAJ+dLS3obyiMkYKnBThnGq9y/DQEDweL3Q67aTCJScDYsGUSCRYsmQJPnj/A1HXSU5pmUyGw4cP4/Bnh7F4yeKU2yai5pEjRzE6MiqKchKJUIHy6quvhlSWnng3XblNAlEnyfN4729/w6tbt8HtckOtVuPef7kXDQ3LY+6JLrk70TVGFvuM8hkoLSuN8M0l89jW1oYdO97Gd757V8Q9yUDmsae7B62t7VAo5OJ3IyMjWLt2LYqLi9Immomey/M86JCBCJicUxJ5RldnBzra2mI4zYDfD73BiNlz5k56bSWqwy4QZz8CAT9k0vR8Q8n89PZ0w+lwgJFEEv1gMIj8ggJk62O9AMi9VusoVGo1VCoVgsEg5HI5qqpmgmEYSKUSDFkGYc7PR05OLrq6OkV6EI4JjQzp6KBlEAH/5GukkPbsDkfSBBzpYDJtkIw58+bVoqamJm7eRYZh8Oyzz6G3t0f8LhnIpPE8j3379sEWyrJN00LN6kWLFqFhRUNKbX2VwDAMGhsb8cADP8dTv3latGRrtVo0NCwHywq+iyRMM5xwEQI30fGgaRocz8NkMuIbV3wjbiYjrU6LN7a/gUOHDqWVWg4Ajh49io5QFijCyRQXF+Oaa69JKelzdHvhOWTDwfM8GIkE/b19QmagSaztYDCI06e+QFtrq/hsMr5BlkVOnhnVtbVTkhA4OtMZEOYPbbPB7XSJ36UKiqLQ39eH7s5O0GGSFkVRCAYCyNJloTxBKRvSF78vIFalJWqJ/r5eDPT3o6+3F/qQYUguV0ClUsHrccf0M23CSYwkHMfB5XIl9IELBALj+kWF+08BY0aDaJDFnmp7PM8LJSWo+CGT4QXdkk2aUqnE9TdcB4PREEPQGYZBW1sbnvn9c+Jv0b5g4e/HsWMZ5Q8cOAiVSimK20ajEbfedis0GvW4+rbwNpNx/OERO+nMQSJ3mPCqmOONGwDwEH5/8YUX8dB/PITdu/eISSwkEgksFgteenGLWDeJOLmTd4r+hIOsv1Q3HMMwWLduDRYurIfT6YwgnjzPgwePJ379JJpPNscdt+i5pGkag4OD+Ovrr4up8zhOqChw4003oKqqUvS6SDpGUf13u5xJ59PhdKC19eyE/U6Hh4bw+ZHD6O3uBoCIfQAApaWlmFtNXMMmZvQMhzdBdiiKohBkWfT29oDjYo07ydDb040zp09F7BOiXtBlZWF2dfW4EU4cz4EitCHUb4fDgZYzp2HKzR3T64bK2MQbibRFdaLwB4D+vv4Y5Sxhw8+cOTNuuVRyHzndLAODkEojHVoZhkFXVxeA8cXS8L6dOX0aUtlYbkmO46BQKtHc/AWOHDmCxYsXJ7XQkkQOCxYswNUbNgj1gkKEnWwilUqFPXv24Kc/+RnuuffHKC0tTUh4QAPNzc147rnn4PV6hZPM6wXP8/j2t+/EvHm1cUWCeG2Fcygd7R1CHSN+rBSHVCqFxTIIu9WGwlBNpGTtkb8cx2FwcDDG0i+VSjE0NITe3j4UFOQnbQ8Y0+udOHEC77zzLqxWu1g+hWxSmqaxdetWfP7556iuqYbJaESeOU/MDm42m8FxgjGOYRhIGAYyuTwmB+l44jAd4ij0BgNuvPFGPProYwgEApBKpYI6iCfvN4yHHvoF/uVf78XC+noxK3y88bJarfjNb55Cf19/qKRwAD6fD2vWrsH69etFrmo8iJw1x8HldqO/ry9pnldBPdCNkeFhFBUXw2A0RSRzIWsjPA0iGwxi1GpFX283nA6noDoJvRvZu2qVGpUzZ46lS+Tj1wFK5V1IuwP9fXE5TqF5QUc80N8PmqZRUloGmUwmuKsJjUUwIhzLwmG3o7OrEzarFQDEkFuynvLMZsyaMxeSJONOpBmFXA6/fyxLF80wKK8QEiUHQtU0eZ6H3++D1+NFbl5suZK0i7W5XC7YrDb09vZh8+bN6OrqiikuFQwGUV1dje9+77vQ67NhMBjingIcy8Jqs2F0ZBQHDhzAtm3b4PP5YxYPx3G45Z9uwZIlS2Aw6pGty4ZEGruwPR4PLIMWNJ1owosvvASn0xnRFsn8XV5Rjjvu+BaKi4qRrc8eNxKF53n85snf4O2334FSqQTN0GKGJKKo1uv1uPHGGzC/bj7MZrNoUfX5fBgaGsKRw0fw/PN/gNfrhUKhgMPhQFZWFm6//TZsuHoD+PBTMAl8Ph9GRkZgt9uxa9cuvL3jHShUipgCcC6XG6tXr8K69euh1+uhUimh0Whi2gsGAhi1WmG327Fn9x5s3fqq+F7RqKurw9p1a1FQUIDs7GzodNqEtWlomsYXX3yBf7v/AVHVEW+pkcQu0Vwx+X9+fr5QS12vR3FJEYxGA6qqZqGgIB+FoXraqfh2kj69+cZbeOaZZ0FRGCOeENYGifT55je+gVWrr0R+fj6ysoR4aDYYxMjoKFpbW/HiCy+hpaUFarUabrdQbfPKK1fhnnvvSdqHiP6wLGx2G3xeH6yjI2LV2FS4L0JQGIaBXC6HVqcDBUAilUEilcATGm+n0wGX0yWubTJXRCWiUqlhyslB2YwyMVPURBAMBuF0OOAPBOB02DE6MgxnVDG7hOMQInxanQ4qpSCF0QwjVpINBgKw2+2iVCcQVwpBNgie56BWa5BfWIji4vFzq5JxsNtt6O3pxaxZs8GDx949u7FoyUVg2SCOfHYIs+bMRU5ODgb7+2C12TBz1uwY+pAW4Xx166toOnEC3V3daG9vh0wmi5sxHAACwQAoUCibUYbioiI0rGjAJZdcInagq6sbO3bswNmWs2hra4PVaoNSmTg1v9PhhC5Lh7IZZaisqMAtt9wCU45J5NKOHDmCV1/dhr7ePrS3t0Oj0STk/gKBAHxeH0pKipFrzsOll1yC1VetjisWhnOsz/z+WezcuVNMSByuk+M4Dk6HE3qDHvPm1SK/IB/gAZvNjjNnTuPs2VaxPo7dbkd9fT1u/9ZtuCDkQ5hskZFNP9A/gC1//BNOn/oCfb198Hi8UKqUccdf2DhOqFQqVFZWQiaTYd26Nbj4kktEQuNyubHlpS04efIkent7MTw8DLVanbAffr8fPp8PhYWFKCoqwjdXfgMrV66My/WRd3r0kcfwwQcfxCT8jZ6TRN8TwspxnFhzSvCTrMLiJYtxzTXXwmzOS8moQ67ZsWMntmzZguGhYWRlZUXEy1OUUBFVIpGguroaxcVFQj16txdtbW1obj4JmUwOmUyGkZERlJaWYuPNG7FmzVVp9WF4aAhHPjsEJlTGeaKGGPHA4UPKER6iB4IQcEAD4MU6VTQlJAw3GE0oKCxMSxebCL093TjZ1AQq9B7kkw5PxvM8eI4TxWKeH3M/I+0R7pPlOWg1WphMOcgvLIJSmfo7kPFvaz0Ln8+P2XPm4GxLCwqLiqBQKNDV2QmlUgmlUoHW1laUV1RApRL2xISt6n/+819gs9mgVCpFi1Q8Yw55aZqm0dHegWOfH0NZWRmAMYvk8cZGvPH6dvAQdIkajVrUi8ZrT6sTuMLmk81oOdOClStXwpRjEk+sE8dP4L1d76G4uFjMVpNo4GiahkqtwvDICJqbv4BWq8OatWviispEZKBpGv/8w7tRO68WL//pZTQ3fyGkhwuJyTRNi2mu9u7dh0BA8NFkGCH0S61Ww+l0orikGDdtvAlr1lwFYyjZcqpO3QMDA/ifjz4Cy7JCm5oQMaIQoZIihFyrFSJiTp06BafTiZqa6gjC6XA48NFH/4PR0REoFAqRsMcDRVFQKARludVqxeDAAGpra8QxjXc9AHznu3ehp6cbx441QqfTxb02mf41XAwlRhiaptHb14/Xtr2OI4eP4t5770F1TfW4hIuMy/r161BRUYFXXvkLPvl4NxQKhSgR8Twv5iRtamrC0aNHwXE8aFp4vkKhFIvtXXvddVi3dg0qKitSJhLhKhGJVCq6MoXfn47OL5yTJP0nf1mWBc8FQIWiaPR6PXRZWdBqtFCEjCOpEPvxMDg4CGmomCFpM1wPm0r7NE0D0YdviJCyLCtY4OUKGPR6mHJykJ2VDVXokE/nHch+LiouQVvrWTQ1NkYcILm5uRgYHEBfXy+KS0qgVsdKaUCahLOwsFDMdp2Tk5MwnRbp4NDQEKxWKxQKRShsawwarRZanRYul1vkKgoKCuK2SVEUent74XYL1q2c3ByoNZGckUwug0wmQ0lJSQqnnaCH7enpgS4rC1WV8a1w4c8ni/vii1egunouDuw/gA8//BCNjcfFhRvwBwBKSFIRbpXkOA41NdW49LJLsaC+HgX5gp4w3fBBhmGgUCjgcrng9/vH3axCGRKh/xqNRgwjI2NL0zQUCgUYhgEbZBHgU09KoVAqxUJqyRatyWTCLx/+Jba+shXvvPNuzCZPRHTJJ5zjJ2BZFjKpFEqFAi0tLXjyySfx2GOPIS8FzpNwLjU11Xjg5w9g9eqj+OjvH2Hfvv1iVqZgIAhQgrGSuIwRQ15xcTEaGpZj2fJlmFFeLqZdS2ceWZaFz+sJidhhpx4luAMlsq6PB4qiQuUtKKhU6lD0lRYqtTpmTYZz2JMBcTlSqdWgo9sK6Vk9bnda3CcQ2kMaDRQyGVQaDbTaLCiVCsjkMkgl0km9A0UJ2cmqZs6CxWLByMgwBgcHhLXBslBptKiorIJKpUq4ntIS1T1uD/wBgcOUhESMZHpk4mYCIMSdjfkohlvlSceStRkICDoNwoWoouqf+Hw+eDwekSsZDzzPizqtcI5jvHvCRQifzwe73Y4jR46gp6c3JD57AEpILpFrzkNVZQXq6uqgUashCy1cQbRCyk7dZPIGBgawf99+5ObmQiZPrcQI4XAsgxbMnjMbFRUVomjtdrvx7rvvQqPRwGw2RyQeHg+9Pb2orqlGZWWsc3A4wsX4/fv246mnnobNZhN9Y6PHned5cd0Eg0HR6k7WTvQ7SyQSOBxOXHvtNfjnH96dUt+BSGIXDAbhdrvR1HQCLWfOYNBiwejIqCg15eTmoLSkBPUL62EwGERXluj3SwfJJKJ0iUw4wsXbRIYZYOoigaK5y3iYiBdA+OEZTw1ErpkKCOn8WLFNstaSreu0jUMZTE68mQrR6KuC8IPm5MmT+MPzL+DkyZMIBAKYMWMG6hfWo6K8HDRDh65j4PP50NPTA7vNjoGBfsFwZbNhYGAQUqkUCoUihugQ8XrLH1+KawBL1j9gYhtwPHew6YSvy5qbTu/xtUrycb4GdjLPmC4Tf65B5oKiKLy982289OJLGBkVoqWuvPJKfPuuO5GdnT1uOw6HA2dbzuLAwYPYs3sPenp6YgqaCZZSO06fPoP6+gUp93EyczHdI7bC8XVZc9PpPTIcZwZTDiK+Op1O/OH5F7Bz506RW7zhhuux8eaNAJBQPx5u4Ag31p1tOYuXX/4z9u3bF0O4OI7D93/wfWzYsH5acSYZfD3x1Tk2M/hKQHSdGhjAI488iu3bt4tO4ldccQU23rxRqBQa8q4Id18hH+LUTSzOxAWporICP/3ZT1BaUhITeMHzfNp1zDPIYKLIEM4Mpgxj4YgWbNr0OPZ+uhd6vR4ulwsVFeW48aYbYpyxxwO5ljirq1Qq3HDj9WKJjvDrqqqSe0dkkMFUIUM4M5gyEFef7du3Y/++/cjKyhId1ysqK5GTk4NgMDhh/SBxM6uuronNVkPRKC4WXN4yYnoG5xoZwpnBlIDoJQf7B/DB+x9Ap8sS3YoUCgXMeeYIV66JgBibDEaD6ONJYrLLK8phSrHWegYZTBYZwpnBlMLt8aCvrw9SKSMSSq/XK9ZHnwpbZGtrq+gORNM0fF4frrxy1bRP6JzB1wcZwpnBlIIQs3D6JZFI0N7ejoGBgRjdZDpgQ/ft/mQ3/P4AJBIJPB4P5lTPwdKly6ai+xlkkBIyhDODKYVCoUBOTq7oasRxHFQqFVpaWrDr3V2iuJ0O8SRx1wxNY8gyhE8+3g2KEoxREokEGzduhMGon1TtoAwySAcZwpnBlMJoMmL58qVwucZqKnEcB5lMhu3b38Cud3eBBy8akohrUnhqOfIhhiUSZmuzWvHYY/+J/oF+yGQyeDwe3LxxI1asaMj4bmZwXpEhnBlMCQgXKZPJcMmll4p1eKKNOJs2PY7fb34GPT09os8miauO/tA0LeYvONF0Ag8++BCOHj0KmUwGl8uF22+/DbfefmtEHzLI4HwgEzmUwZSBcIp+vx/PPPMs3npzB7TayBR/Qo0lB2bOrEJDw3LMnj0bRUWF0BsNkDASSCQSMfPTyMgITp8+gxNNTfjww7/D5XKJLkm33HILbrv9VnA8DwoZopnB+UWGcGYwpSDc5eioFY8+8ggOHDgYSrzBiwYjhmHg9Xrh9XphNBqRm5sDrVYHhhE40EAwCHA87A4Hurq64LA7oMvSweVyYeasmfjOXXdh8ZLFX6lEGxl8vZAhnBlMOcQSBTY7tmzZgrfffkfUU5KCbEQ8DwQCCAQCoSzsAEL6T7IsJRIJGAkDmVSGq1avxjXXXwuT0TjlqcUyyCAdZAhnBucE4caaAwcO4NWt29DS0gKPxyPm4ozQb4ICx48ZiyQSCdRqNTQaDS67/DJcccUVKAklw85wmhl82cgQzgzOGaIt3QcPHsSBAwfR0d4Bp9MJt9sdUVpZKpVCq9VCrVGjpLgYFyy6AIsXLQYjYRK2mUEGXwYyhDODc454xM5ut2N4eDiiEqlSoYQ53xxTMC5DLDOYbsgQzgzOG4i/5njZkYgVPp0sShlkcD6RIZwZfCkYr1BbBhlMZ2QIZwYZZJBBmvhfQuv6t+upYmEAAAAASUVORK5CYII=;" vertex="1" parent="1">
          <mxGeometry x="590" y="83.13" width="60.98" height="73.75" as="geometry" />
        </mxCell>
        <mxCell id="rXRJDe7qG6HzljNRHyR7-31" value="" style="shape=image;verticalLabelPosition=bottom;labelBackgroundColor=default;verticalAlign=top;aspect=fixed;imageAspect=0;image=data:image/png,iVBORw0KGgoAAAANSUhEUgAAAU4AAAGUCAYAAABa9ssgAAAABHNCSVQICAgIfAhkiAAAABl0RVh0U29mdHdhcmUAZ25vbWUtc2NyZWVuc2hvdO8Dvz4AAAAudEVYdENyZWF0aW9uIFRpbWUATW9uIDE2IE9jdCAyMDIzIDA1OjA5OjQyIFBNIEVFU1RlnKRRAAAgAElEQVR4nOy9eZwcZ33n/3mequp77hmdlmRdlizZsmyDjbHBDoaAHRaWbHhtsgRYAolDwiYk2ewvHMkrr91NSMhmyZKEK9iEIwQMNhh8YfB9ytZlXZasY3TOSBrNPX1XPc/vj+rq6enp6q6qrr6/b7/ao+mufuqZnqrPfL/P93iYlFKCIAiCcAxv9AQIgiBaDRJOgiAIl5BwEgRBuISEkyAIwiUknARBEC4h4SQIgnAJCSdBEIRLSDgJgiBcQsJJEAThEhJOoiokzMKzo5NHMJuZafBsCKI+kHASVWFV7F6Mj+DR4482eDYEUR9IOAlfMITAk2eeQkZkGz0Vgqg5JJxEVViu+njqEiZTk9g1usd8nnrHEG0MCSfhC5PpKWSMJH505CEAgIBo8IwIonaQcBLVIU2rcyI5DjCGIxMnsH/sIBSmwJBGo2dHEDWBhJPwjISEwhVMJycxlZpCVAthPD2Bnx59FIJcdaKNIeEkPCOE6Y4fnnwNFxMXofEAwmoAuy8cxPD0SShMyR9DEO0ECSfhCQkJzhgA4OCl/ZhOz0BhHF1aCCemzuKpk88CABhj+QASQbQLJJyEJ6QUYIxjeOo49lzYg4gagZACQgqE1RAePv4ETk+fNYWT3HaizSDhJDwgwcAhpcTjp36GS4lxqFwFIBFQOIKKhuGZc/jF8FM5y5QuM6K9oCuacI2ABGMML448j6fPPouYFl0QQTekge5AFD96/WGcn7sIKSW560RbQcJJuIaD49zsWfzboW+blmcuZ1MC4DnXnDOO88lJPHj0ETDGwMAaO2mC8BESTsIxltWY1BO459WvYSo5Bc6UvC3JAKjcvKSkFIioQTxw9GcYmT2/4P0E0eqQcBKOEBBgYDCkgW/s+zoOjB9GSA0CZcSQg2E8NYO7937THENSahLRHpBwEhURUoDngkHf3P91PHnmGUS1MISUYBL54kpZ8H+LAFfxzNlX8MLZHWZeJ4kn0QaQcBJlEVKAM465zCzu2fdVPHbqCUS1CAxZqhpdgjEgwDkkCiqL0nO477WfIJFNQEBQehLR8pBwErZYonl6+iT+4ZW/x2Mnf4GgEigrfAwsl/Ru2p6GlIgGInhuZA8ePPYzqEwl4SRaHhJOoiQSpmi+Nn4QX3jl/2Lv2AFE1Mii1CJR9NUSzMKRAIBzjntf+ynOzJwF55xcdqKlIeEkFiGlmeD+zOkn8YVX/gEXEmOIahHolcROmpF1hoXiKaRAVA3h5OwIvrL7X5HUk2CgUkyidSHhJPJYQsYYw49fvw9f2/d1zGbnoClaWQuR5fTPAKAwQFU4UOSOZ4WObi2KR089h1dGdlMpJtHSkHASAEzRZGAQUuD7h/8d3zr4XQAMKldLiqYXa1FIgZASwD/uugfnZkfAGSfxJFoSEk4iL5rJbALfPPANfP/wDxFRw2aTYlkkkV50LrfwKaWECo4zM+fx9zu+hJn0rPkyiSfRYpBwdjjmeiZDQo/ja69+Ffcd/QmiasSRRWkdIzDvrovcmPkoUYlhgqqG587uwj/v/Dp0oQOMxJNoLUg4OxizNRxDUk/gX/b+C5488yz6gt2Qha65XPDF/FpG4xhjCChmGaZddTqTDBE1hAeO/Rxf2nU3DGGQeBItBQlnhyJg9tNM6Ul8be/X8OSpZxDTohBCFqQWORcyy+rkQL7BsR0yF34PqUF888D9uHvPtwryP0k8ieaHhLMDkTBLKFNGEl/Z8xU8fvppxAIRSCFcC5dXobOsy+5AFN/Yfx/uP/KTBc8TRDNDwtlhyFwT4mQ2gS/v/jJ+cfppdGlRGMVBoIVvKvxS0V13PJdcMn1Q1fD5l76KHx3+CTij5Hii+SHh7CDygaBsHF/Z+xU8fvoZdAdiJXeknBdJd+66V4KKhs/v+Bp+fOSnBeJJ1ifRnJBwdghCCjAGJLIJfG3v1/D46Wdzojkvd2UtSVni25LH5tYqXWqeGVRSTfE8bIqn1SiEIJoNEs4OYH7fH4ZvH/wWHjv5FLq1qOP1RKfiZUXStQrBoZLvzXWN17iCv93xVdx/5CdUlkk0LSScHYC1lvjvh76Lh44/hu6gaWmWEk4v65f5Us0q5yly6VFBRcPfvvAVPHPqOXBwM9eTIJoIEs42R0gDnHHce/gH+LfXfoCIFs5XA7lex5QLNdWvINGCU+TEPKCq+KsX/hEvn3sFKlcXbAZHEI2GhLONMd1fBU+cegLfO/RDhNUwjGIrs4zwLRTJ8gppNZuTMHfBrAarpV08E8efP/157Di3k7rHE00FCWebYrm9u8/vwtf23m2ucZbQs1JWp50laR2zyOp0g5QOHuZxGlcR11P4y6c/j1fO7QJn3KwyIogGQ8LZhhg59/zApQP4pz1fRUbouSj1fG25U9ymwxf+m5USRRcISAS5hunMHP7PS/+M45PDULhCbjvRcEg42wwpJRSmYDI1iW/t/w4uJMagccVV0w7z395ROYfKWVV5nRa6NBBWQzg9dwF/+czncXr6DBRG4kk0FhLONsKqAc+KLL6y56t49dJruY3VfIzgFFURLf7Gf3RpIKwEcHjiBP72hS9iKjUFhTn7Y0AQtYCEs42wKoO+feA7ePrMC+gNxGCI0nbfgmcr6I8beao2MGSHIQW6tAheGn0Vf/fiF5HIxmtyHoJwAglnG8EZx8PHH8EDRx9BLBDL7xFUKGWsTHml+W9Z+oXC12tUu14JQwr0BKJ4+MSz+NLOeyhBnmgYJJxtgJX7eHj8EL598HvgnC/sqVmAsPm3X1bnfJlktenwpTGkQF8whu8dfgjf2PsdMDBa7yTqDglniyOlBGMME8kJfHH3VzCTmQUHq8oOW5B21IQGnZQSUSWIu/d9Hz898hAFi4i6Q8LZwkhICAhkjQy+uvdfcGzyJEJqcN59laWj5JXcdSfntXPXa2NnLkRAQuEcDAxf2vVNvDyyi8STqCsknC2MkAKcMTxw9Kd45uwOdAWcNe6otbsO1P7CMqSAxhVMZRP4/Av/iOHJkxRpJ+oGCWeLYuVr7r94AP/+2n0IKlqJGnR4tjorueuFVmfh+6U0rUGFu28tV2o+5R66FAgqGoZnR/GFHV9GMptsyqUFov0g4WxBJMx1zen0FP5x11eQ0NP5/pVOsU1O90F4vLjrpYTRCUII9KhRvDD6Kr748tfAPLS0Iwi3kHC2MP+866s4PTuCiBqEURRFl0VfnVLqeL+DRF5F0u6NujQQUYL40euP4bsHfggAVNNO1BQSzhZDQICB4aFjD+O5kZcR1kIwpFHeyrPxmUu565VY5M4XeeyySAn9Fkk7GGNQOcc9r34Pz555kWraiZpCwtlCCGnuTnls8ji+e/iHYFjY8cjtDpGi6Ov8QNXM0sMwntW1YAgpEeAaZtJxfHnnNzA6d4Fa0RE1g4SzRZBSQkqJeGYO/7rv2xhLTCCgqA6bd7g8V/5rUWCpWkG1i/L4hC4NdGkRHJ44iX946UvIGBnztLTlMOEzJJwtgMz9p3AFj5z4GV65sBdRLZy3pha6yjYiIeWiYwuPd2N12kbfC1+voUCWIyt19AW78Pipl/D9gz/K7bVEEP5CV1ULYG1kdmzyOL5/+MdQuebIilokZm7Omf9aOp2pmckKHREthK+/+u94eWSXuetmy8yeaAVIOJscCbPjUVJP4pv7v4PpzCwCXC25F3rlwUpbnd7mtfibaoTabxgY0noWf/fiP2MsMU4NQQhfIeFsARhjePj4z/DMuZcRUcOLUo+K8bqm51cYhTE0PJ9SQiKoaDg1M4p/2vFVpPU0DGGQeBK+QMLZxFg3+fDUSXz3tR8iFoguiBI70Uc/rMBKreYKEQA4Y2blUBOIVEgJ4Ocnn8cDrz8MlasUKCJ8gYSzyWFguHvfNzGXTUABs20UbBf0scMuoOSldr1U+WUzICGhMA7BgG/vvw/DU6fNDd8ov5OoEhLOJsVMamd48NjD2HXhADSulhRNt1anG2yj500oknYYUiCqhjA6N4a793wLyWwSHJwsT6IqSDibEKuBx4XERTxw7GHoQgd3UAHuSApcNP1wNFz+qywZJGoGskJHdzCKh44/jceOP25G2VmzzZJoJUg4mxABASEFfnzkJzg2dRoRNbRgw7Va7OvjtdVcqyAM0/L86u7v4NzMiGl1tssPR9QdEs4mQ0gBhSk4eOkQHj35JMJKEEaFeLcbd72aph8t466XSL4XkFCZgvHUDL7w0pchhGjun4Foakg4mwhrG4yUnsR9Rx7AWGoSmjIfCS4USCdBokpVROWO92J11jRIZFeu6aJCSUAirATwzJmd+PGRB8EY7VdEeIOEs4lgjIGB4ZXze/DMuZcxEOxB1sf2aH5YnQueq6dI+ojKOf5t//04NXUWnHFqBEK4hoSziZCQSOlJfPvA96BCge5RNN0GiQrxq9WcqzfXsaZdQCKoBHB69gK+s//7+YoiWu8k3EDC2USY6Uc/w7Gp06aLnnve7pZ2EiTy2mpu8UCuhrEfowGNPxZNQ0qE1QAeG34WTw4/a7afE2R1Es4h4WwCJMyWcRcTl/Cj1x+EyhT37rTLN/jW9MNuoCYRyVIISKhcQSKbwr8d+AEmkpNQuALhW9Ep0e6QcDYBVlDo3sP343xyHApfnKCdF64iAfIjSGRXdVRtq7lmRhcGugNR7Dx/CA++/qj5O5DNUSZKND8knA3Gahl3ZuYsXhrZBSlNl93bWA6Osfm3o/HzX0tH5a3vOWNQc7tcNvMFlhU6urQI7j30E5ydGWl4YxKidWjm67ojsETo3sM/wumZcwirwfl8SRsl9LVa0MbqrCZIxBgA5m23y3qjMgUXk1O4Z893Gj0VooUg4WwgQgpwxrF/7ACeO/cyAmqw7DpbI4JE7b7qZ0CYHZROPYfdI3upbyfhCBLOBpMVWTx+6hmMxMcQUgLm3kJVjNeMreaaH4asMPCtffciracpr5OoCAlng7DWNk9MDuNnw0+hL9hdci/watx1PxLdOwEOIMBV7Dy/Hz8//gQUpkAXeqOnRTQxJJwNgjEGQxh45MTPMZ2OL9oXx4mIOaioLHre3fisRHRdLjA0W6R2vQRSzj8MKcGZgrSh40dHHsGF+Bg4o9ZzhD0knA3AEpzTM2fx4Ikn0BOMQpSpEqrmBnZbRVStVFgpm80UGCoUSetRjBACMS2MvReO4BcnnqJSTKIsJJwNwEo3uvfw/dCFPt/Ew8F7qwkQuaUVW805EUn795pbMD92/Cmcn7toJsWTeBIlIOFsABISY4lxvDi6GwpXq4riunXXF85j4ddSlEpLKpXs3gh3vRqRLIUhTatz98XDeGL4GeqcRNhCwllnhBRgYPj31+7DdHoOnBf8Csrc+a3orvtFKYGs1fKjIQz0ajH866v3YnT2grnW2cwmNtEQSDjriFVaOZmawiuju808TmmfHlSuDHzhuOZXL/mclaxOgcpBogVjuXKNnT3qiVXHfjExiUeO/hyA90ouon0h4awj1gZsDx9/DOfmLiKkBhZbM21idZYaupGC6AZdGugJRPH9Qz/FeGKi0dMhmhASzjphBR6m09N44dwrSIusrSVT6yBRrVvNMbSOSNohIDGTSeC7+38AoLo/WkT7QcJZJ6y1zR0jO3Fo/BgiWsjRzVjrKiKn5yoXJFpYRST9N1cbAAeDwhgePf40xhLjAEBrnUQeEs46IGFWCSWzSTx3dgeSehoqFPsbsUbWjVt3vZMRkAhwDROpafz4NXN/IkpNIixIOOuAFRQ6PnUCL43sRncgCkMs3LtyUcCnzGsljyn4ptBdd1tFVClIVCwd1jD5tCTGmi4B3iuMmTXsz515GWOJcWoAQuQh4awDVhXK8yMvYzqbhMJ45bVI2xr1Oty4LhLy2xkrr/O18WE8evQX5u+RttggQMJZcywLZTw1gYeOPY6YFkLWSqyW1bdta0SQyMmcWa4hZ8vKjJx/ZIWOHWd3YSY9A4UrFCgiSDhrjRU53zW6B2OpSSjM/iMvdzs6irT7UEXk9Fylx5D5iDpXGHirdFSXJR45DCnQq0Xx4sireOHMy+bhJJwdDwlnHZBS4sHjjyHANYgSN51bq6zm+ZzmSZwf30o6UkYkbcntd//osScQz8TBOVUTdToknHVgePoUDowfM908FO3hXZz/bvPvUt+XfI9Lq9NtkKhkFdGCfzdAUEqJod3DA7owENPCeOXcfhyfGJ4/J9GxkHDWECt95YGjjwDSQ6S5kVVEbo+vl5D4JIauYUDKyOCRY4+bObmtsgxB1AQSzhph5W5mjAx2nt+LbK7csvD1gm/KjOOduraaqwWNEskSGEIgooXw4NEnMBYfJ1e9wyHhrBFCCkhIPH7yGYwlJqGxMgnvRVR7S/oVJLKjXBWRgAd33Ue3utZkjSweOPwQNf7ocEg4awgDw+4LezGVmYPK1bJaYF8P3kB33W3TD0eh/xKPFoIxhl8MP4tkNtnoqRANhISzBggIKEzByNwFvD45DJUrYCUEwk8LtBH5nMX/Lj04WlYkS8EZx4X4OJ49/SIkJJVhdigknDXAqi7ZMfIKDk+dQkQNwYAAZHntsC3BLGP51WIXTFn41ebcdu46lwXnbwOhLEbjKuLZFH527Im8u07rnZ0HCafPSJjt47JGFgfHDiNrGOBl1sPyN12Fe6+Zrc5OQkoJjSk4Mj6Mw2Ov026YHQoJp89IKcHAcGb2HF4dO4wuLQTDYQTd8Tmqea/DN8uir6WotB9ROyIgEVQDGJ27hKdOPQeAKok6ERLOGvH6xDEcnT4DTdFcrYM1e5CIyDVqhsT+C69hNj1L9esdCAmnz3DGkREZ7D6/DwGuOnpPq7vrnea261KgSwtj7/nXsHNkLwBQkKjDIOH0EUt4plOz2D12EGE1kA8UOSlntLBuwUXHuUwPKtZBSzw9dYa3qV0vdteFh/GbESZl2YfCOCbTc9g9sheGNGg3zA6DhNNPcjGg4amTODEzksvd9KJS1VHdGmh1VmerXVB2wlgJQwr0BWPYcXYPzs9eBGOM3PUOotWu86bGSk954dwr0PjiSiFZ8A+nt1i547xYnZWetxu/HSTBi0DaIaVEUNHw2vgwXhs7bI5P1UQdAwmnzyT1JJ4/txMB5i4oVEzLt5prMH6KpB1CmhH2507vQFZkqfFHB0HC6TPDU6cwGr8ExeVN5HfTj3q66xaNCo/UQyQtRMFDlxIhNYinT+3AdHIGACXDdwoknD5hic2OkV0o1Ezf3XVpMx7sBc/JRm6VqojK/bsWQlUpOOOnSAoXj4WYm/DNZpJ4/sxL5rzJXe8ISDh9ZsfoHuhCeLqB6tFqzilurM5qW801ymIsLYbukFJC4wp+euSxqudGtA4knD4gc5bHRHISo/Ex53vttGCQyA6nYtfKImkHYwynps7h3MwoAHLXOwESTh+wrLNXzu/BbDYBZuX05fPafV4zrLKKyC4Z3m0VUdnja+RWl8KZW107GGNIGGm8cPolSEhKS+oASDh9wIqev3rhIGYzCahldrKsRD1azdUC285ONThPowTSDgUcaT2LF87spDXODoGEs1qkWWaZFVkMT5+CntuPpjAIZH6xsdQquOtOWs0tmpLLIFHRdMo+X1hFVHx8NRalt+BMcyAZwBhwavosLsYvURVRB0DCWSUCApxxnJ45i/HUNIKKVvVNU4/adUfzqKKKyL5mvnUE0SlmMnwAFxOTeHL4GQCAIYwGz4qoJSScVWK56UfGj+FCYhxBrkK4Dbg0vMzS3TnKHV6qdr1dBLIcKlcwnZ7DoYtHAFBaUrtDwukTR6eGcSk1A5WrYMXS0uZBomKsi6qdhdKCSfMhhUSQazg5dQYjs+ehcIU6JrUxJJxVICGhchUpPYXTMyMIqAHfIqp27nrx6M3qrrcblkAWPywkJCJqCCcmz+LIpaMAqNVcO0PCWQWWqIzOXcTo3AUEXHZD8ruJRq3zOd2cizGGVi3dLieQdkgpwTnDRGoGxy6dAGAGDYn2hH6zVWAJ59nZERybOoOwElhgZZRax/Tkrsvy0fVqrE4n7rqt1WnT9MOQEgpnUBhrqt6cdlajW5G0Q0ogpAax78IhTKemwRknq7NNIeGsAqsbzrnZUcxkk+aN4nKMwrSlVrA6/baSa4WfgugUKSUiahCHxo/lq4iI9oSE0yMSMm9RnJ0bQZBrJS0zP6PnboNEdalgaXCrOb+txmow17wVnJ8bx7EJ012n6Hp7QsJZJdPpGQxPnfYlf7OYck0/vJypfkGi2qR/N4tAlkPCjK4fungEutCpR2ebQsLpkfz+QukZHJo4gbCiwcjtL0TuesFAHnWjFUSyFEJIhLQgXhl5FXOZOQB1svyJukLCWSUTyQmMJ2fAuWJ7TLG77i7y7szqtBvRz3zOSmMVz6f4aKfBmVYRyVJISGhcxYmCbknkrbcfJJwesVJNTkyfBuMFG3XlvniOpbag1Vn2INH6YugWCXMXzFfPHwBA65ztCAlnFQgpcHRiGApTKu5bvsh6a9Mqog7SR3skoDCO3aP7Gj0TokaQcFZBSk/h0KXXEeRqTRvylhNZt+lBJGy1R0JC4Qr2XziCtJ5u9HSIGkDCWRUM5xJjUBiHUWYtchElXl+8Dlof/HDXSYwXw8CQyKZwKLd1MLWZay9IOKvg3Nwo5jLJ0ov/lcQRHoNEcrG7Ph+Vtx9ROnCn/agiKjd+R2BFxRhgSIG9o+Y6J0XW2wsSzio4NnliQZ5esWyVDRA5sDqrpR63akdbnbLEI4ciGXRdx+4RWudsR0g4q+BCfMz1ezolSNR2lBFJWxhwfm4MGT1DXeHbDBLOKjg0ftTyyupCvTvD23vlbSwApQTS44/LGcdcOoHXxszmxm39uXUYJJxVcDExvug5P931Rudz1uJcTYVPAmk3tMoUJPQkTk6dzj3Xcp8QYQMJp0cyRgbnc6667e3g8D5p5lZzhaLqNkjUMOysxhqJpB2ccySyKZyYODk/L6ItIOF0iSVJFxOXICVKNnHwzer0KS2p1lan31ayqxM3QBCdwsGQNLIYT0wCMDf2I9oDEk6XWJbWqemzyBi6p3I6P+/tWrWaq1QJVZZaiFcTC6TF4t07zTZz48kpJLNJqFyldc42gYTTIxPJCWSlDo4K97DP90kjWs3VPUjU5CLpZotjhXHEswnMZuJUs95GkHC6xBKukbnzyArD9mYgd93FG1tMJJ0iAWhcxVRyBudnz+eea7IfkPAECadHLsbHYQjD8/v9yucEPPT/rEIhPb+zydcjgepE0g7OOOaySUylZsxzkKveFpBwusQSnZH4RaSFbraXq2QV5l60LZWseNJii86Zu75YnB2cymWw3K6UU+aEkUmfTOYqsHOt/RbJReeVEirnmErN4vzshdyzJJztAAmnC6x9hgCJlMhA8Xn7V9/duEZWETWAegmiG0yLM4Xp9CwActXbBRJON0jzRphJzyKtp8EZW3AjlHW/GxQkqiafc9FxTXTPN5tAlsKytjWu4lLcLJZQmUri2QaojZ5AKzKbjSNjZOGl2FJg4V8raY2S/0eJ13LfSObhjGayaa3fMv9eLJyjH3HkZhTFQsr1YpWQUMEQzySgiyxU7v+mfkT9IYvTBdYFf3Z2FHOZBNTc+mYtzuEWL+LSjO56s1uSTMpFj7JIQFVUjCcmMZ2azT9HtDZkcbrAEjWGnOnH2IK0IbDFFpeEnE9ZKmFVLnjagdVZ+PqCse3GhCmQVoWTzRQWz9uF1Vk4vjVW4b9bQSdq1cHfXBdnyIgsDMPIP0c5na0NWZwusCy0c7OjmMkk8oEi38/TJlanRGtYjLXe9kTlKi7MjmEiNVmz8xD1hYTTA4bIwpDC9sNrSJCossfoYCwHx9S7iqgK6imQZefBGFJGBhkj05DzE/5DwumBlJGBIQUY2EJX1OF92ZBWc3Xd2kLWPQDSLCK5CAmouSR4a+M2Cg61PiScLrAu+DMzI5hKx6FwpebnckutXONmyulsWpEsgbXj5cXEFKYoONQ2UHDIAxrXSraTA+AsSIQyaUmLvil6qkRaUn7sRcGj4oCPuyCRXYDI/nm56HNxugrczOLnB5xxaIrW6GkQPkHC6QKeqxSK6wkoTbyHTLEoV6KU4JUeV4L7EA1ud5EsRkqJAFdwZvosgPnriGhd6DfoEAkJhSnIGllMpeagcsW1y+U0kFMVZaqIPA5R+hgXQaJWcatrCWcc8UwCQOnm10RrQcLpEmmTmShtv7GnbNOPckEin/pmVCOQvp2gg6jlmjhRX0g4m5i2bzXXUTBk9WzTLu8Q7iDhdIrlZUsJQxoLnyz1nY1VWOyu173VnCwzZ9v32Bxjc8oO9cZtERDQOMf52QuUktQmkHA6xLrQLyUnMZmahsaUulz69bzBqqkiKoYxBsZY54qoLHgIs0w3qachZLPVUhFeIOF0ScbIIC2yjgu5y+pGraqISoztSxJ9qXOWWovNRek7IgYibR4loKBQ+0DC6RLGWNkGDV5EydZdr1BF5DlI5MEMdPKWtjcuHQok0f6QcLYArdL0o60gkSTKQMJZBU4FrfiounWGLzMPR6lIVc+mRSCRJFxCwlkDyrnaXsew3aKjgrtua3WWafphZ3UWPt1MteslsVt7JJEkfICE0wOF1S9O3daGWJ0VxvXL6mx45JzEkKgzJJw1wq3VWU2rOc9CUaNWczXVLRJJogkg4WwhOi5IRCJJNCkknF5xsN5X5i2572unBHbu+uI5OBnLwTFFB7lKWaS1R6LFIOF0CWfM/V5DHt31Su64myi5lyBRhcNz4y5+l5QA4xycMfObDgvOdMiP2dGQcDrEqvoYDPejP9yHrNDBpPtKEFur04c7y3aIClZnVWMXHmP9KB1SIEMC2bmQcLpEUzRoiurexa211enTHetHFN26qNpJRPwQSD+aQBPNAQmnS4QUDW3U0Cqt5lqZ2liRDFmh13Rdm6gfJJwuUZgCjc3vOGeynQEAACAASURBVMJy90E1EeZauet+N/1oiZxOl9TD1WZgEMJAX6gHGqd9h9oB2nPIIQwMutChchU9oR5khG6uezpIMi+3CVspym7kBlMQCxuN5F93OP7iScoFYfDCYez2Iyp8i197EflFXbXbwV8KxoCs0LG8eykCSsB8rok+L8I9ZHG6wLLgNK7CKHDX3VqdZY9qcqvT0fnrqFx1Dc5IufjhEAYG3dBrODminpBweiCkBBDgmuM1QF+DRJXe71U5HHaGL/OWmtMqImkH9eNsH0g4XWC5V8u7lqJLCxVsoVF/2r2KqG4iWUoga/AXwRAGhqKDAEBd4NsAEk4PaFwFZ7ykWDRL0w9bd73sce7GtT1GSnNt1OF4DRXJOsAYQ0YY6Al25abRYhE0YhEknC4wK4aApZEhxLQwhBCOF/n9uFWK3fVyrebK4aSKaPFLpV+r1GpOwF4cfZMPO6uxASJZDAODlBIhNQCFUyy2XSDh9EBXMIoA12AA+fAzqyAgpai11VlybAdZAJXHKo+1lud7E5AmEkTHMEAXOpaGe9Eb7jaforXOloeE0wWWdbksugxRLQzhco3TcYAnRzu1mnNNqwlkGSQAVVGhMKXRUyF8goTTDcy03HqCMYTVIPQmuJmbOUhkWlYOrKs2EsliGBiyho4l0T50h7obPR3CJ0g4XcDAYAgDQSWIqBrO5XLOC4Pv7nqV2I4tKx3nfuxFr0sJRWHgxbrZxiJphwGBqBZFRAs3eiqET5BwuiUnBIORPmhccb2OV627Xskd90WGqmw1t+CFDhPJYqzE94FIL7qCsfxzRGtDwukSnvvINvdvQIRri3LymAdtcGoZ2r/fWbpR8QuizHHVWJ0dsX2wQxhjMKRERIsgqAbhuSyWaCpIOD3SF+oF50p1Jl6trc6q5uaT1UkgK3QMRvsBmBF2sjhbHxJOl1ipJJsHNyCsBCAgPQVamgVqNVdbhBSIqEEMREzhJM1sD0g4XZIvu4wuBRiDKCEk7dBqzsvYRI5cdj+TDIZhoC/QhaHYYKNnRfgICadHIloYSyP91YtNM7vr5U+x+JhOVNFy5VDMtDi7ghEMhPvMpyj5vS0g4ayCa4auBGB+iMXCVu9Wc5XSmLxYnfbBcif5nC1MKTG0e5SBgSErDPSEurAktgTAfHCRaG3ot1gF63vXeH6v71an45O5oAVazVWNSzF0S1bo6An1YFnXEjMDgwzOtoCEswo29a+HIeeDQ422smpRRVSN1dl0GlpjkSyGMbPBR08uf9MQBkXU2wQSziq4vHcVYmqwomA1S9MPW3e9wjzcjNsUeHCra4EhDMQCYWwcWg+A1jfbCRLOKggoQVwzuBFZITztuePHvVwuCORlOWDxIO7faO5HxCAMWXvXvQkE0g4hBUJKEMu7lgGgiqF2goSzCgJcw5UDG5AVer5XZ6Hb24hWc27c9cKUp3Lrp07c9VLHmC97VDIfgjONxOxrIBEJhLCuz1wLt64RovWh36RHrN0frxzYiLShe170d5s2VGo9sp5Wp9MAkatE+RYSRMcwwJAGwloYa/tX2+4WSrQmJJwesay1NT2XoS8QgSHn3XUKEpUZpB1FshTStDDX962CqmiefydEc0LC6RFrvWoo3I+rBjYgZWRLWhSt2mqu6rGtPecL987oICQkFMawYXBdo6dC1AASTq/kmhp3h3qwdXADknra8+K/H+764sHKPuUeF+46YwXHd6h3KiGhcAWbBjcCoMBQu0HC6REGBiEEFMZxRd9aiKI1rJoFiRyqYLO1mus4JBDgAVyz4ioAlIrUbpBwVoF1M6zvW4sN3cuRMjJQqr1BPFqdlYJAbq3akjTLfkRNyIJezZJBlwKX9SxDD22X0ZaQcFaB5X6t7l6JDb1rcu5663+k1GquPBUb2zPAMASuXbGVgkJtSuvf5Q2EMQZdGIgFYljbuxJpYdi6ZF46wxdDrebqj5fdPxgYMiKL61Zup7XNNoWEs2rMO+maoa1YHulDRmSrryJqZne9/ClaFj+3bJdSIqQGsXloY/57or0g4awShZt7ZV+/7BpcFl2CpJ7JW52tms8J2M/dUT5nkwtFLfeQ44wjZWRw48qr0RWMmk+S0dl2kHBWiVlaJ9Ab6sEGq82czY1YqUdnscVY9n7Oj1VmjArv9+SuO2g116i0TTursZ4bbXLGkdTTuG7lNkQCUUhIctfbEBJOP8jldF6zZAtiagi6NPIvtbLVaT+mzfM5VapH6k2z7jxsft4Mm4c2ggGLdkEl2gMSTh/gjIGB4bY1N6Mv2AVd2ndLqrYzfN1azVUZJDIMASEEqvVTG2E1eoUzjpSewVVD67Cq7zIAlPjerpBw+gCD2bB2MNyHjX2Xg1VxZ3t5p627XqmKyOs0a6RcrSKQdnDGEc8mceXQRiyNDpGb3saQcPpF7v5459q3QjK2wKJstLPWjE0/Wl0kSyGlhMI4rlq2GQE1ACEEVQy1KSScPmFZFm++7I2IamFHYlUxSGSTtunEXfdqdTou1XRQRdSoAE0jsKLpa3tXYsvSTQCozLKdIeH0md5gD+64/Gak9SyUgsa1ZHW2N4wxJLMprO27DJuGNkJIsjbbGRJOH7HE6fY1b0FW6LbrW43oDO9pbBfjdp5ULkRIgZAaxFVLN0PlqimctL7ZtpBw+klOPa7oW4urB9cjLUr36HQxlOcqotKDlX3KPR1oWZaCgSFtZLEsNoDb1r8FAG2T0e7Qb9dPcvmcvaFe3Ln2NkxlElCZkn+5o9x1USmDv41ggBACS7uGsHFwnRlNJze9rSHh9BEGll/bum7p1VgS6oEh9JI5na7cdSdBIlRXu+7UXV80TKkgEWMQQpr77Cw+bWsjFz+kkAhwFbesfiMA6+duu5+cKICE02c445BSYmP/Orxl5bWYyCSg8OYJEnnF87xbWT9KiGQpdGlAUzS8/YpfAsDITe8A6DfsMwwMhjQQUkN404rrEFEDEFKU/KCbudVcuRfKncosOGxBHIpkMQwMEBI3XrYNq3pW1G5+RFNBwlkDLKvzlstuxFX96zCTTYJ5sEK8VPk0utVc01NKIKv52RmgS4F3XPFLfsyOaBFIOGsAZxyGNDAUGcCNK7ZD46rjtKNaU89Wcw3HT4G0O4WUGIz04eY1N+RO2bSfBuEjJJw1wurT+d4Nd2Ag2IO0UbrBsR+t5ord9WZoNSeFhKhVupKd1VhjkSxG4ypm0wm8e/PtCGkhANTUo1Mg4awRVuOPVd3LcdOKa8DlvDg2OkDk2Soq87ZFUXk/xKtBgugExhgMKRBWNdy67qZ80jvRGZBw1pJcXucHtrwPqqLa3vTVtppz/qIzbK1OF6dyPY0mFUg7OOOYScfxlrU3YsPgOgBUm95JkHDWEJb7b/PARty0fBsysnROZyW8aEhTt5prMZG0gzGGWy6/AdFAFIYwyE3vIEg468SHtv4nMzG6xfcjclVF1MSudjWoTMFcOoFtS6/Am9a8EWalEN1KnQT9tmuMJVBbBjfhxqVbkdAzUMp87M3Q9KN4CNfuOgOEIdGuS34it7byptXXYXnXUgghwMlN7yhIOGuMFSQKqSH82uZfQUpkwXOVRG50xY98y+IxCgXRsbsuy8xbyvmWcrLSQK0JYwypbBqXdS/FuzbdDqpL70xIOOvIjcuvxW3Lt2MqM7eg+QfQfK3mFp+r/UTQE7nsiO3Lt2D9wFpIIanEsgOh33gdYIxBFzq6g914z4Z3QGMqJKTrD9+t1VlVqznSyZIY0kCXFsGvXvUrACiS3qmQcNYJhSmQUuItq27EG5deiZlMApwprRkkKueuw3xNivZUXiEErlt5Fa697BoAJJydCglnnWDMbDnXFezC+zf9CmKBMLIii8L7znd3vUqcjr3oWUOYa53tpCky18BFCHzsjR+gpYsOh4SzjihcgZAC71h7G25cdhUywoBndfHorldyx92UZ1ZOTWoR5XRQvskYQ9rI4PoVW3Hl0k2Us9nhkHDWGcYYJID/cuV/RFDRIMRC+fHSas7WMvQ5LcmP4xpKFXmlDBxpXccH3/B+83dI24Z0NCScdca0VCRuXHE9bl99A1IiCzeWmZcATr1bzUkhIY0GC4tHgSz1Ns44ZjJx3Lb2jbh2xTayNgkSzkbyO9d8EFElCNng+7Caph+L3PVGBEt8FMlizMbUAl2BKH5j+/sQC8Zo61+ChLMRWEnxq7svw4e3vBeT6ThUrs6/nruDq+nhWSt33WvTD9+ooUiWQs0183jb+jfhDauuo21/CQAknA1DQoIzhvdc8S5s7lmJuJ52nEjtu7uOxYJYzl0vl2jPAEgpIYV0bnw6CM6UUjuPb3MMYwxpkcVQtBd3bn47Aoq2oN8A0bmQcDYIzjgMIbA8uhQfvuo/ISt0APONcJu51Vyl46SAfRPjOluMVSGBlJHFLZe/ETesug66MPINqonOhoSzgXDOwBjDHetvx1tWbsd0Nt4Yq7PS+72qVCuJZBHWpnuD4R585PrfgMIVauRB5CHhbCBmQrWBsBrGh7e+H0OhXqRFtmFraG6CRIXHlszndFgS1QwiaUdSz+DOTbdh/eBaSEk16cQ8dCU0GIUrMKSBG1dch19efTOyhr5IwJql6YeTISQDhMCikks/1x7rgYDA2t4VuOumjwCg0kpiISScTYC1nfBvXfMbWN+7ArrDRpZ+CE+xu+6m1Vxh5L7UMoBkzS+QpdC4gplUHHfd+CHEAlFKdicWQcLZBDCYa51Lo0P47W2/gaSeMZ8ruF+bxeqsBGtFpSxA4Qpm0gncuvaNuHX9TebnR8YmUQQJZxMhpMQ7Lr8N/3H9rZjVU1BY5Qiu4wCPdQ5Hg9k85eAcDAATuUNbTECt9n+xQAS/feNvIpqzNilvkyiGhLPJULiC37vuI1gdHULKyEBpQEDCU5CohLveanDGEc+k8L6tv4zrVl5DFUKELSScTQTPtZ5bEVuG37v2N821Tr/d9SqpOJIEeItZmoD52ScySVy1ZD0+cN3785YmWZtEKUg4mwwrf/D2y9+K96x7K2ayiUXbbBRTrbteOQjkAgkwg7XOuqCUYFJCN3RoXMFvXvd+LOtaQhVCRFlIOJsM62YNqSH8zvYPYnVsCeaySdcuu63Vma9IqvR+e7m0e2V+n7YmMDmldPYAADBkhY47Nt2KO698B4QU+Q31CKIUdHU0IQozGx5f1rUCn7juwwgqGgyne+161CzHVmeZ8SUkFHDEZAAG6hhUsRVEZ+hCx4quJfj4mz8KBlCiO1ERukKaFM44hBS4Y93teM+625DQ0w0JFDmh0MJUJEMQCmoSUi9rNXqDMw5dGvjkW+7C0thQc1jLRNPTnHciAWDe8vmTGz6OrX1rkdDTVbW7dOuulx+rNAw+LW/6LJCl0LiK6fQcfm3LO/FL699Mie6EY0g4mxwJiZAawqfe9Pvo0iLQbfIKvTT9qDSGm1ZzAADGoEiOoKG5a85cB5EsRmUKZjMJbOhfhQ/f8AEo3NyymaLohBNIOJscBjNFaduSrfjE9g8grqccR3vLyo/PVqfM/WdW2ufSqFwFaOoHY2YwKKKF8Ae3/DZW9iw3A0JNuhRCNB90pbQA1tbCv7rp3fjV9W/DRGauZFWR71YnykTISzzNJLBcRtHDQzCkaNqLi4EhrpuJ7reuvzm3TTNZmoRzmvXaJgqwErFVruIPrv8Yrh/ahNls0pGFVE97TgIIgCMA3rQhFsYYEtkUblx5NT5x88egMA6Vq+SiE64g4WwRGLMa6/bjD6//CAZCXfmu8W6odau5EFyub9YZQxhYGu3Hn73tkwhpYapFJzxBwtlCWPmdb1h2Lf7g+g+b21MU3fONajUnYU6lByF08RCMJrQ5OePQhYE/eutd2DC41gwGkYtOeICEs8Wwene+d8Md+K9b34u5bOVN3iq1mvOjOYclP1EWgJabYzNZchpXMZmawa9vezfeueltEE4LCgiiBCScLYgVLPrtaz6Id66+EdOZ+IJgkdva9VK4tTolzIspIjVwpiDElKZJJte4ivHkNN6+/s34b7f8Tr4OvZmEnWgtSDhbmIASwB++4bexbWADkhUqi+ohYRwMIRlAgKmIcC1XdtlYOOOYyyZw9dIN+NPbPoGQFqJ8TaJqSDhbFM44DGngsq4V+LM3/T6Gwr3ICB3c4a908b5G3pGw1jgZIlARYBxhqA23OBVw6EJHTyCGP37rx7GqdyUMYVC+JlE1dAW1MAozN3q7euhK/OkNdwEADGmAgfniruep5K7niCEAASDINYR4ILe3ep0tOzn/kFIio2fxB7d8FDesvh5CCtoXnfAFEs4WR2EKBATetuYW/NF1/xVZYdhaetW2mqtEWKqAlNCYijBTYED6c4FJF48cCuNI6Cl87I2/jvdd/W7a3pfwFbqS2gAOs5PSr295Hz5y1a9iKpsAL0yzqUOrOQMSvTIIyRjCioaYEvSWklRGDJ2iMI7J1CzedcWt+PjNv2Va4ZR2RPgICWebwBmHhMTvbv8QPrT5VzCVSYA72OzNT8IwA0JhpiHqxFX3QSSLUbmCydQc7rjirfj02z8JzjhZmoTv0BXVTkhzs7dPXPdbuHPNmzGVjTvI8azeXbekMSaDYLmhepUIwlyFyDf8KPHwGZUrSOsZbFu2Eb9/y0fRFewyN1yjCDrhMyScbYRZlikQC8TwRzf8Lm5Ztg1pkTXFsw6t5qIIQmEMgklEeRAhKDDq1P2Ic454NoVlXYP4n+/6M6ztX0MRdKJm0FXVZii5zvHLo0vwFzf/MdZ2r0Aim8rvoVMrGdMh0C2DYOAQUqJXiSDGg5BSgNfQ4jONV4aMnkV3KIrP3P5JbBxcB0MYFEEnagYJZxtibbuxPLYU//Pm/44VsSGk9Exll9XGXa/Uak5Aok8GoTEVjAEGBHrVcD4J3gtOg+gMDIbQEQ2E8Td3fAo3rnkDhJQkmkRNIeFsUyzx3DSwAX9322exLDKAjKHngkj+IgGEoOYsSwYBIKqEEFVCjs7ldfmTMw5DGIgGIvjcHZ/Cm9bckHPPaU2TqC0knG2MJSybBzbg87d+GsuiA0gZmUVNkEu1mnMaJGJgMAD0IwwVSr5LkoTECq0bQaZCFCXO+xEjUnN/GADgL9/xx7jp8hvIPSfqBglnm6NwsxXdlYNX4HNv/f+wMjKElJGB6jJVqXzTD4kINCiMgTEzSKVLgRXBPgSZmttOw7/1VbPcVCIrdPzpbb+L2zbcQnuhE3WFrrQOwHLbtw5uxl+99X9gWXQACSPjS8SZAdAh0S8jUKFAAFDAYEBgeaAPUSWYSwnyBwYGXehI6Cl86tbfw/uveW++hR2lHRH1goSzQygUz8/f+mksjfQjbWTzYuOkM7yd1alDIMaCUBkHGCAZh2RAmGtYqXWDMeaLtWkGggxEtBD+z52fxa9tf68pyoxRZRBRV0g4OwhLPDf3b8Tf3fpZLIn0Iy2yUDxeBgzMjKgjaG6ZYcW5meVOC2yILIXiwx5EZvd2HZFACJ+741N4x6bbYEjK0yQaA111HYbVjs4KGK2IDCJhpPMlm3kcdoY3INElAwhCNWWTmZF1Lhkkk9gQXooo11DNCqfKOFJ6GtFAGH/9rj/DTZffAF3oJXf6JIh6QMLZgVh7F105cAU+f+tnsbV/nRkwchORzumgDokuZjYvtjZpYwyQHAAYglzDtV1rkJWGpxVIjXEkjQyWxwbxv3/5T/HmtTdCSAGVqx5GIwh/IOHsUCy3/YqB9fib2/4cb1iyBdPpeNku8sWYgSEDgzKKKAIwIKFg3uIUADhXsC22CioUuOrNKQGNKZhIzmFD/2r8w3v/N25Z/2YqoySaAroCOxjLbV8WHcKf3/wneMeamzCZmVsgnmWriKT5fZRpCDAFkgEyF6hhjEFhgIRAnxbDNV0rkZAFkfwKJUEKYxhPzuCdV9yMz935GWwcWgdDUp4m0RyQcHY4ltu+PLoEf/HmP8Z/2XQnptJzAEPZ9B4ryT0MFWEE8+WPjJl7DzHGIBmHIYGoGsT1PesQhmZGwcssd7LcYzaTxPuvvgP/645PYd3A5Wb3dlrTJJoEEk4i77bHAjH8yY2/j7uu+c/I6jqEEGbTkJLvYshCog8h9CIMAwJmRhDLWZ7mxcU4Q1bouCK6Em/qXYe4noZikzqkMAZdGjCkwO+96Tfx57/8J4gGomZyO7nnRBNBK+wEgJx4QkJlCj5+7UfQH+zFP+39NjKGjqCiQUgjf6xVVqlDoFcG0ccj0FlBKhIYOBgkY1DBIHJm5FsGt+BEYgzn0pMIcW1ByzmVc8ymE1jWNYD/dstH8e4t7zTPRVteEE0IXZFEHqv9m5AC/3nL+/DXb/kfWBrpx1w2uWht0bIZuxFEFAFIyFxzDVMwJSsQT8aREQaWhwfwnhVvRJQHkRF63vJUOcdEchbXr9yKz7/7L/DuLe/M16FTYjvRjDAp69RplmgpLPf49Ylj+Ied/4LnR19FfzCWFzSzCybH29habOerkGI6VK6AMQ6FcXBuPhhXwbkCRVUAxhALRPHq9DB+eOZ5jGfmEOAaEpkkfm3bHfjELR9Df6SPXHOi6SHhJGwxpAGFKRhPTeH/vfIVPDj8NLq1CICcm44A7mRbsIx1w+CAwk3RZIpiiibjUBTFFM7cV8Y4YsEITicv4f7Tz+Pk7AX84S2/hV/d/l4oXMmfkyCaGRJOoiyW9ZcxMvjea/fjnv0/QFYaEIxhDbrwG/w6pLkBhXFT8DgD50rO4lSg8ALhVBQoXAVXFES0EOIyg6GV67Fp1dW5SiWyNInWgK5SoiyccUgpEVAC+NBVv46/vPmPsTw8ACENrGa9Vl4SrGi6FRgyHzDLiHLRdgYGMAbOOZJGGquWrMWmVVdDSpFbI6XLkWgNKKpOVMQK0Egpcdvqm7EqtAR//9QXsMEYgJ6zEllBMKjwwa3ORdwUTWusSKQby1dtgoTM17cTRKtAf+IJx5jt4STWL9mIDyz/ZfQhbNan5/M3TfFUmJmTqTCWsz1NAeU5a1NKiZUrNyGghXJJ9iSaRGtBwkm4goFBSoF1G7cjm9vBkjEOxmTesjT7cZpfGQcYzznv3Gwv1x3rw+DAikb/KAThGRJOwjWMcQz0L0dXrDfffZ3nu3rOb5+R/48xMM7MNUxhYNmKDWC0zQXRwtDVS3giEAhi1epN0IUBzs3em5IV1KrnAkFg8+IJxhAIhhHr6suNQgkdRGtCwkl4ZsmS1WBS5iLoCwNEKNi4zXxwCCHQ07MEmhbKjUBrm0RrQsJJuMZK/e3uHkAk2gNDCjNqjty6Zj4had7SVDiHFAZ6ugehKJTgTrQ2JJyEa6yUomAwjP6B5ZCGAc75/PbAHPmgEM+VX0owqGoAoUgMwLz4EkQrQsJJeERC04Lo7umHIQ2wXCR9QVAol7tpJrZLBINhKIrW6IkTRNWQcBKesCzGnp7BvAXKgXxQiDEGJue7wZvCGUJACwAAqOkR0cqQcBJVEYn0IBrtMcsmWUF1UEFKEpi53qlpQXCFitWI1oeEk/CIaTJGI12IxfrNbvFcmXfVC0TUjLZLqFoQat5VJ5OTaF1IOAlP5ANEoQjCoTCEELCS38EZFFj9ODk4ZxCMQVODACgwRLQ+JJyEZ2QuKBQMxQAIMG7WEHHGIPl8OpKVmqRqgdziJgkn0dqQcBKekTLnrsd6EFCDgEROPFlB4ru1VTBdakT7QCv1hGesyHg41AU1EASsFnGsxBqnpkHTgg2dL0H4BZkBRBWYyhkKR6BpQUiJRZYmy1manKtQ1cCC9xFEq0LCSXjGsjiDwQg0NQBrAzfFql7PdUTifF5ACaIdoKuZqIKcxRkMQ9UCuXJLBsmZWXKZ6wzP8uLZ4OkShE+QcBJVIYQA5wo0VQMTBWKZb3Cc+8o5lQsRbQMJJ1E9jEFRtVxnpMUR9XwFEUG0CSScRFVYRmRXVx8UTcuXWiKfx5mzOnPfE0Q7QMJJ+ILEfOd3a3O2wsi61SmJINoBEk6iSqztfnugKKq5t1C+1NJ6mNF1kk2iXSDhJHxBVbV5d5zx3FYa8246CSfRTpBwEv5QMvm94MHN+nWCaAfoSiZ8IRyOQFVUIB8QMt31/PYZ4HSxEW0DXctEVVjxHlUNgjNlPhiUszIZnxdRgmgXqMkH4RPSrBYCM4NBnJuFl2w+WERRdaJdIDOAqBKW/7LA2rRKLXPfK8zs01nwDoJoWUg4CV9QFA0s76rPB4Tybjrn1L6YaBtIOAkfkAgEwuCKYjb6YKZQ8lziO7cszwLrlCBaGRJOwjfy22QUVQ1xroAxCSlFo6dIEL5Awkn4hlUpZKYgsfnqIcW8zKxN2mivNqLVoag64RvWuqZiBYO4knfTra2DAfLUidaHLE7CVxhYLvXIWuPMPZT5qDopJ9HqkHASvqFpAUgA0jByuZwMCjfXPDlTSDCJtoFcdcIHTEVctXorZqbHkM0kYRhZCCEgpTRddkUpWNskBSVaGyYlLdUT/iIhkUrMIJNJQjcykEKHyhnCkX4Ewz2Nnh5BVA0JJ+EfUkIC+SAQAAhpQOhZGCIDhatQtUjj5kcQPkHCSdQE67JiVJ9OtCG0xknUBBJMop2hqDpBEIRLSDgJgiBcQsJJEAThEhJOgugApJRo5Thws82fouoE0QCkEOZe9B63FLGEpFwIzm67klpkPEgpzHaCdaAZMjYoqk4Q9URKpNNpHD9+DAxAIBhEIBhyPUYqlYKezZQVj2isC2AMwUAAoVAIWkBDIBCEoigFQ8mqBSiTyeD4saMIBoMIBIP+dr+SEoqiIBQKmZ9VIIBAIJB7SeZ2Y6m/gJJwEkQ9YQynTp3C+dFRcM49u6BWv9NCiseRcgQAIISAqqoIRyKIxWLo6upCV1c3evv68mNUI6CjoyM4Pzpacg6+ICWElAiFw4jFoujr60dPbx96e3v9P5dDyFUniDoyOzuL3TtfzgkV9+SqL7pl3vqV5gAAIABJREFUpQRKCOk8DICEECL/CIVC6OntRV9fH1ZctsqzzWYIgZd3vIRkPA5FUUoKeiWcuN6MsfzcDV1HOBLBwOAg1ly+FqGQS4vdB0g4CaKOxONxTE5OID47i0w2i5mpKWR1fX7LkTJY1mlXV9fCF3KiEp+bW/Sewm78xWPpug5VUdDd04PLVq3C4NAS1z+PYRi4cOE8EvE40uk05mZnkU6nIYWouCV04c9jCIFEPG47/8LvAdOKNgwD0WgUmzZfid6+PtdzrwYSToJoAJZoCCEwOzOLs2dPY2J8vKTVxRiDYRjo6+vDpiu3QNO0kmMKIZDNZjEzPYV4PI7pqSkkk0lks1kAgKIoC6xVxpg5B8OAoqpYsmwZ1q/fAFVVPbnu1li6YeDUyWGMjozYjsEYw+YtW9Hb25sXR6ubVjKZxPTUJC5duoREPA5d10ta5owx6LqOYDCILVuvQm9fny9rtk4g4SSIJuHggX0Yuzi2SCQY40inU9h+3XUYHBxyNebc3BxGz53D5NQk4nNzeXe61G1vinM/Nl95JULhcFU/CwDs2vkK5mZnF1mMup7F0NASbL16W0WRm5ubxckTwxgfvwTO2OKdUhmDns2it68f12zfviDwVUsoj5MgGowlYitWXAbDMBaJSb5xfkEgxymxWAwbN23CNddei8tWrQKAkucAAFVVMTExjgP79yOZTHj5URbQ09tbcq5SAmDOtouOxbpw1bZtuHztOhilAmlSQlVVzMxMY3TkXO6p2tuCJJwE0SQoWm2SXKSUCAaC2HjFJmy96mpEolHoul5y3VPTNMzOzuDggQPQdb2q8/rpMK+5/HIsX768pCgyxiB0AxPjEzAM3dai9hMSToJoFmp0rxdaqgODg7h62zb09w8gm82WFE9VVTEzPY3XD79Wmwl5QEqJ9es3IBgMlki7klBUBYlEHIlE9ZayE0g4CaJDsCyxcDiCK7duxcDAQFnL8+LFizh16mT+uUbCGIOqaegfGLC1OnVdh64bdZkPCSdBNBG2mZg+RYot8QwEAth4xSbEYl0QRmmxYYzh/MgIEom4ef4miCMPDAyWjJxzzpFKJpFOpeoyDxJOgmgSVEXJlSwudkUDgQBUtXQaklss8YxEo9iwcSOUXPpR8Tk554jH4xg5d85Mn/Ll7NURiURKCrg1X6+1/24h4SSIBmNZT4xzKJpWWsQUxVdRsM7Z19+PJUuX2kS/zTrxsYsXEZ+bq0vQpRKMl47GCyEQCAah5erYa43vwumk9tY6pvA4rzW7duPU+xdsd956z8fN5+/lvX7TDJ+Z3bntrquazqsBn//la9chGAiU/Lk450gkEhgfHwfQ+C1RhBCLljPm127DCOfyT2s9z6qF06p+EEIAKN18oPjYUmVg1vdOb3y78xWOXeuLvNQ8FufgLXzeqo7wcw7WPKy1H6effzH1+twqXS+lPjPr+HJjeqXU51fuuspX3FRxzmaBMYZAIIDBJUtsf+eKomBi/BIymUydZ7eYZCIxn9hagBACPb29CIVCdfmD6zpxrPgvr6qqCy6wyckpDA8PY/v2a/KuhXWRWVULyWQSc7OzOHv2HCYmJxAOh7F61Wp0dXehp8fcd1sIUdI1MQwjPw4ATE1NYXJiEmfOnEFW19Hf34fly5cjFoshFosteI9fFP88AJCIx5FIJpFKpXD06FGzTE43sGTJEvQPDCASjaC7qys/D8MwwDn3VNZW+ChurJBIJDA6MgrDMLDxio0AAAYGQ8x/bul0GhMTEzg5fBLJVBKccxi6gXXr12FwcDBfC233O/CKJTTWmLquY3Z2FslkCqdOnUQingBXOIaGlmBgoB/hiPmZWcdbAlr481o3iVVO6PbzLL6eUqkU4vE40ukMzo+OYnpmGsIQ6O7pxvLlyxEOhRGJRhAOh/Nlgl4aWzQbK1asxLmzZxe549ba4czMDDLpNAI5y7RRP+/Y2NiiOQohEIlEsHTZsrrNw7FwWjdq8c2uZ7MYPX8e586N4PUjR/Dkk0/h3Llz+Oa3/hXLly/PX5iKouDChQs4sP8Annn6aby6bz8mJ6fAOcuPu2HDBrzrjnfh7bffju6e7gW/ICklDMOAqqoQUuLQwYN48cUXseOll3HixImcCc8gpEA4HMaWLVfirbfeitvf9jZ0dXf59su2xERRFCQSCRw9ehSHDr6GV1/di+PHTyz4xRbW327YuAFXX70N119/Ha7cvBlDS4YWjOeE4pvc4tL4OMYuXsTw8WE8/8LzeP75F7Bp0yb81ef+CgP9/dCFDlVRMTMzg32v7sPjjz+OF198CclkMtdYQubrobdvvwZ33HkHbr31VkQiEd/Es/CP1+joeRw6eAh79u7B4dcO49SpUzBykV3r9xwMBrF+w3pctXUrrr32WqzfsB7Lli2zncuZM2fw5JNP4kMf+pCj+Zh//GR+TocPH8HRo69j967dOHbsGEZyf3zMPztmiqWuZ7Fy5UpcccUVuOmmN2HzlZuxbt06AP7/kak3oVAIfX19mJycLFHyaab6zMzMINbVVXfRtO6lZCKOS7n7qxAhBFatXo2uru66ibrrWvXp6WmMjI7iwvnzOHd2BKdPncLrR1/HsWPH8+sM0WgYn/ubv8GmTZvMNZJ4HI8++hge+/lj2PfqPoRCIQSDwUW/oGw2i2QyiTe/+Sbc9bt3Yd26dQsEGwAOHDiAhx56GE8/9TRmZmYRiUSglai4SKfTyGQyuOmmm3DXXb+DdevXVfExmVg3fyKZwM9/9nPs3LkTO3a8jGQymV9bMYUNUFVtgVuu6zpSuVSJrVu34r3vfQ/e/o63u7aUdF3H6Ogozp+/gPOjoxg+eRInTpzAiWMnMD4xjkgkAiklNm7ciM989tO47LLLAADPPvccHvjRj7Fz5y4AQDQaXTQ2YwypVAqZTAa33/42fPKTn0RPb09VF6OUEpAA4wzDwyfxxBNPYMeOHTh08FD+Z7eioVoggEAuOGI1rEin0hBS4Oqrr8L27ddi7drLMbRkCXp6uqHrOsbHJ3Dm9Gk8+NMHkUgm8cP7flBxvoUi99RTT2PXzp147tnncXHsIsLhcH4+jDFoBfOxBMS6TletWoU777wD/+E9/wH9/f1V37TJZBJ79+xGJp1eNI6iqth2zXZ0dflnBCxASpw4cRwnh4fzP7OF9XOvXrMG6zdsdDzk8WNHceb06QX3OWMM2WwWy5Ytx+atWytWF1nXh67rOHTwACYnJoqaggisXnM51q5bX1dBr2hxWr+kqckp3HvvD7Bv/z5MTU5hfHwcU5NT0AIagsFg3sXOZrOQkuWtg5dfehnf+/73sXv3HigKx8DAQP4HLl4jUlUVPT09ePHFlzAXj+Mzn/kMli83x4nPxfGDH/wADz/8CEZGRtDT04Pe3p4F7lvhLzsYDCIcDmPHjh0YGTmHL3zhCxgcGvT8QVlu8a6du/Dtb38H+/btg2EYiMViMAwDUkoMDQ1B0zSkUimcPXsWwWAQmqblLe6u3F/rw4cP49jRY9i9ezc++rGPYsmSJbYWi/X5p9Mp3H/f/di5cxdmZ+dw6dIlTIxPIKtnEQwGEQwG0d/fD8YYZmZm0NPbgxUrVmByYhJ3330Pnnr6KczOzKK7u3vB+lzx303rc3vyyaeQTKbw6U9/yrPFnn8PA+6991785IGf4syZM9A0DeFwGN3d3dh29dXoH+jH7Nwcjh87huHhk+CcIxAIQNPMa4sxhqNHj2HPnr2IxWLo6+9DNBKFIQxMT81gctK8mdasWeNoXpxznDt7Dl+/+2689OJLmJudQ6wrhmg0imxWR39/P0KhEIQQOHXqFBjjCIXMzumcc4RCIUSjUUxNTeHur9+D3bv24K6P/w62bNni6vNpFqzfU6y7u+S9ZL0+Nzvri2Vt9QPlDq4n63o+OXwCE+Pj5rlzQq5pGtat34QVK1dWNR8vOHbVxy6N4aGHHsLY2BgCgQDC4TCGlgzlrapCV0tVVQS0AL5xzzdw3w/vw8zsrPlBcZ5fYLZuXs55vo2VNU5PTw8O7DuAe+6+G5/988/i4IGD+OIXv4jjx09ASolYLIZMZn7bgML1VqurtiWosVgMZ86cxd///f/FX//1X4Fxb3+VGGO47777cc/d9yCRSOTnoKoqPvihD+K2W29FOBLJ/SU0cOHCBbz4wkt44okncGlsDMHcjWhZ5VJKPPLIo/9/e18eH1V57/0958y+JbMkmewhC1sSCEFAgeDagsjmxx29arV28/Zt9d62eu312lr1YrX6tpeq16q0tiJWVFCxr1pvFWQVkBCIQMi+T5bZ93PO/ePMczJ7ZpKA0Xe+n898AjPnPOc5z/J7fvsPFosF991/X1LiCQDDwyN46aU/wuGwQ6lQQa6QQ6sb00XyvJBfkWEYBAIBZGdn43hjI5555jk0NzdDoVBAoVTA4/FEtCuRSMAwNDiOF9si47Zv/35s3rwZ991/34ROc4qi4PP6sGnT49izZw9YloVOp4PP58OqVStx3XXXw5RjhFwuh98fgMvlRGdHF/74pz/i6JGjUKvV4roiBJ1lWditdtisNrH/er0ebrcbVVXJuSFCAA4ePIinn/q/6O7uFjKi67QIBoO47PLLsH79euj12aF5oOByOXHyRDO2v/EG2lvbIFfIAQgMAsMw0GXp0Hi8Eb/8xcN44Of/htra2rQPmXC1TjBOGOT5glwmgzSBdZ1wipM1vJB9Ojo6gu6uLjBMYiLscrrgcjnhcrng9/vD9gaPvLw8zCivgDIkYQkVNM7fuKUsqnMch+7ubrz5xps4dOgzWCwWcBwXw9YDwiBnZ2ejr68PHMchLy8PZWVlWHLhEpQUF0OpUqKvtw+ffroXjY2NsNltUMgVMRwoz/OYPXs2LBYLurq6IJFIoNVqYTKZMGPGDFRUVoBhaHR2dOLEiZPi8yRRDr1Ef3fPvT/GqlWr0jo1CVF+4okn8f7/e1/khrxeL8pmlOG++3+GyorKhPcPDlrw/H//Nz75ZHeEEUH4Nw2nw4H6C+rx4IP/Dn2SfIKBQAA73tqJ999/H0NDQ7DZbGAYJuZdSZ/JIeIMJbdVq9VQKpXIzs5GYWEhBgYGYLVaYbPZ4PF44lojyWbZtOkxLKivF79LBSQDz68ffwK7dr0HlUoJhmHg8Xiwdu0a/OjHP0rYltVqxeObHseBAwdFzi+8T4CQEJimBbUIx3LIytbhkUcfQU1NTdwxJGqWgwcP4rFH/xNWqxUajQaBQABKpRL33HsPGhqWJ+yT3+/Htle3Ydu2vyIQ8EesH6Lvzs3LxYMP/jvmzp2b9hojnNWhA/tFA0w4zqWoTtpzOBw43ngMwVD+zuhrZDIZFi25EBJJavxWPFE9+pnR3G30NcI4UqDpsVyiCrkcOXlmmPPzIZPJRD31+TRaTSgfp8fjxl9fex3v7XoPo1Zr3M76fD7o9XosX74c111/rahri0bT8SY89dTT6OjogFwuEzkfApZlxbYWLlyIyy67FMuWL4tph+M4vPnmW3ht22uw2WwxriRutxsLFizAE0/8GqCopCddeJs0TeMvf3kFL77wIqRSKWiaBsdxMBqN+PUTj6OgoABA/Fje8D78+eU/409/ehkSqQR82DsyDAObzYaNN2/EXXfdFVokyft2/Phx7HhrJ44dOwa73Z4wyavX64VGo0FdXR0uvHAJli5bGlGnJeAP4O8f/R1vvfkWzp5tjXMICoTzoouW4OFfPZzywiTjtmPHTmz+r82iiBsMBpGfX4Df/vZp6LLGxMLwzUN0WhaLBfff929obW2NIOrk99raGnh9Pvh9PhgMBlxzzTWoX1iftD+HDx/Grx7+FRwOJxQKhejZ8POfP4CLll4kth9vLAl2796Dp59+Gi6nK+J7hmHgdDpRV1eHhx/+JbQ6bcrEc7oQTp/XixNNx2G322OSHgPCOC5rWJEwkXI0khHOsIfH5RSj3y8ec8DzPPQGAwoKCmEwGsAwE0vAPBEwDz300EPp3CDo+iSoW1AHiVQiGhvCO8txHMrLZ+AnP/1XbLh6A3Qh3Um8tvLMeaieOxeffroPHo83RpHM8zzKysrwg7t/gH+69RaUlJSI90ajunouZs+ejY//8XFEzkHyl2VZ1NbWIDcvFxzLJRXbyaLfv/8Afve7/xIGK0QAXC4Xfvh/foi6urq4vn/R7jI8z2N+3XyMDI+gsbExhhAoFAqcOHEC8+vmiamz4k0+uScvLw8rLl6B/HwzPvlkd8zCpGkaPp8PeXm5+MHd38edd96BqplVMVwlRVOoqqrC0mVLcfbsWfT09ES4bRHx0eFwYuWqlSnVdiHEcHh4GJs3b8aQZQhyuaAfHBkZwS233Iz6hfUR40aeRT7BYBBarRYejweNjY0Rc0i46d8/uxlXXbUaF198MVavXo38gvjjRuaxt6cHjzz8CAYHLULYHoT6P+vXr8eGDevHnUfy7NLSUpiMRnzyyScRnBeZx87OLmg0atTW1kb0ezwQN7Henu64rnM0TSPPbIZcLk+r3VSfDQAcy8IyZIHP641L7DhOMMSk6to3OjICexQTQxBuFIw33j6fLyVfX4/LjYH+PrhdLqjUanF8zjXS1vKSDrMsi4aGBmg0mgiiSIwot3/rdsyfP1/Ui8QbIJqmwbIsKiorcPXV60PiV6QIZLfbcee370RDw3IEg8G4DufhbdXW1uDOO+8IudqMbTapVIrh4WE0Hj8OAOD4xM7LZBONjo7ilb+8Ap/XC5lMJnJxc+fOxYUXLhGJ4njjRdq84847MG/ePLjd7pjFx7IsXtv2WtxsNdFjT+qtLF16ERYsqIPP5xPHjfyuVqvxve9/D5dffjmCbFA0YEWPWTAoGEN++tOfoLCwMEZ3TK45deqUMG4pOKJTFIW9e/ehva0darVa1L/qdDrMmTNHPBATvSdRP1y15ipkZWVFjAkhrPv37gNF0dDpdGBZVnxuOMgz/H4//vr6drR3dIjrVbDsmnHp5ZeCCRHA8YgRGdvLLr8MV65aBbfbHbFeiTi7Y8dOdHZ2idLJ1wFkD02WYBPaYTAYUF07D9U1tcLfqE/NvHmYUV4Bg8EAAGL5j2gwEgZSmQxDQ0M4fuxzDAwMTKp/qWJC5jGKosAwDIxGIxhJJEtPLGaLFi0Cy7IpDTZFUVi+fDkqK8vhDTvtyMb1er2iWJWM7ScL9Zsrv4nKyoqIDccwDFwulziwyQge2YS7d+9B04km0ShBuM1ly5ZCo9FEuEklA+mXVqfFuvXrwDBMxEbnOA5yuRyffXYYHe0dKbUnuD3RqKmtgS/MfYUQCrPZjJmzZgmcN6i4/p+AQKRYloXJZMKatVfFiGg0TcPj8eDUqTPjjhs5NHmex+lTpyP6xbIstFqtyKWlsgE1Go2o4iHPJUTXarOLY0ckgXj9oSgKfX39+Nvf/gaNRiPWr/F4PJg5swqzZ81KSx9JDp1rr78W2dnZMfOoUMjR3d2NpqamlN/zqwKFQjEl78OyLNQaDQwGA/QGA/R6fcTHYDDAbM5HeUUF5lTXYOEFi1BeWSnum3CEG4YDfj+aTzTBYrFMuo/jYVJ+Bck2EXHDGbcDISt4cUkxysvLIzYb+X1oaCjh5ggH4aJkMhkWLFgQwz0xDIPR4REAiGtUCb/O5XLhs0OHEAywURtDgdLSUrHfqYJcv2zZUsybVwuXK1JHRhbAx//4OK024zkrC9xUHgx6fUrjRojdihUr4hr7WJaNW0ExGoRQDQ0Nob2jPSLpLOE00hkznudRXFwUd7PGE6WjQcb844//AZfTFXEggwdycnOFgIo43GoiEMJdUlKCVatWwuFwRKxzlmWhVCqxf98+UeqZrCX6fGE8CWoqHfzDvWjIv6M/gEBH1BoNyspm4ILFi5GTmxs3DR7PC4lQKIrC6S+aY7xHphqTGompOH2I6EVRFDRaLQKBWFE13QljGAb5BQUxtVVoiobP74sgqNEgE9bfL0S3qNUqcWOxLAuj0QR9SHxIB+R+lUqFefPnQxJH+Q4AJ06eTLvteCBcaTr9MxqNcTlOn8+Hjo42AKkltOW4+Ik7UiHi0X0qLIpPONk4myce/H4/9n66D0qlUuRWOI6DSq1CaUhfni7Ieqivr49wmQLGxPXjx5vS3rwUhXFL6p4LkLnyhxz7o5kCQvyVKtWUZ2hK9onun1yuwJy51TDnF4CLo+ohB3cgEEDr2ZYp62c8TKsYMZ1OB5lMNumEDQBgMhpT3lzx0NXVhb7+/ohSqYFAADk5JhhNRgDpHxx0qG72/HnzoDcY4uoz29vb4fVMPhlrKvrXaFAUlbCuSzoVZOJxgsTq7PP5xP6lgkSGkqwsXUr3OxwOtLW1icRAPMCUSpjzzWJ/0wG5vqKyArNmzYqrXhoeHkZ/f39a7UokkvOWpCIeCAeY6DeFQvmlqB6ide5Vs2YlzF5Prh8ZHobbHVunfaowLQgnefnc3FyoVMopIZz6UIRS2sQttAEG+gfiilksy4JjJ9Y/snlnzpopGj3CQZ43MDi+HnY8kGildEBRlKi7ncwGYVk2gtsnOqjR0VH09vaKz0oF/f39CB8GciCkarXu6emJv55oCgyTur414tYwl7SSkuII4xyBRCJBT09PSu2P/Z7cr/FcgTzd5/UikEAaY1kWulB04JdF2MnYMAyD0rIyyEO+37EWd6GPQyFd57no77QgnATBYHDKXpKdRIU+nudhtdsS+kdOuHwfNZbJRSqTJnTRSmbxHw+ESA0NDWF4ZET8LlVM5tAiC1iv1yPHZIooBkbCU48ePQKv15sygWg92wqeH/P3ZFkWVZVVyDGlFj6byBo7WZBxysrWA4jvZ5iqv+OXjtAcuT3uWKJJkWzxKtGN68s0eBHPBq1WB71Bn4BDFjxs7HbHOevHtCKcUzkhE2lL1PX4/bAMWuI6AU9Fv3ieR0V5RUID1VQ8w+PximLx+QIhbAqFHIWFRRG6ZI4Tslbt3v0pOjs6kxJO8v1IiEMlbdA0jWAgiIsvXQE6RW76TEsCXRc/NZxIvjlPzFcQT+f2VQHLsnDYYpkFKvRbVlY2ZOcpu/p4IIeoVqeLu4coCgDPIxg4d/lDpxXhnE6I5/bAMAwcDgeckzzJKIqaEp+4ZJhIrs+pAFnElVUVyM7Ojqg6SPw5X375ZQQCAdH3Nnzh8zwvcqq73t2F4eFhUe3gcrkwe85srFy5MuJZyUDxscSMFPYaTME1bTwkcvMCUj+8yfM5jk2qt5u4qDM+An6/mFIunmHIYIg1HH7Z0Kg154z5GA8ZwhkGsmClUilyTKYYLkIqlWB4eAQ2m5BgYjITluheiqJCGSC/miC+dosXL8bsOXPg9XoiYonlcjk+/XQvnn32Wfh8PvE3obSroF6RyWTo7u7Be7veA8uykMlk8Hg8yMnJwd13/yCtsMPSsljLOU3T8Pp8GLRYBNXIFOjUo0GMiemAZTn4QmqM6LaE4I9zV/p2ZHQklmiHnqvTCWLxdAHpoUKpFMMs4yHV/Un05iRZTir3pZ0B/v8H0DQtxlITCBynBDbbCAbPkYMtz/OgaAq5ObkAvprO02M6KC023nQjWs6cgd/vF7kVwTqrwBvb34TdZsfq1atRXVMtioFejxeHPvsMW1/ZCovFArVaDYfDAZPJhId+8R+YO3duWsYruSw2BI+4WHWHMp6fi3EOBoPIyxOs9un0NxG36fV4EDhHoifHcejp6ozlNgGA52EwmqBQKCdtNCQQsqSNRRSmjVAfEvVE2Ed0yuGX4cEjEW0kedcM4YwCiSIx55kjxElgTOHf3t4mRhJNdDEluic3NxcqtWpS7/BlgxDJRYsX4aaNN+KlF7cAiFQfqFQqfPjh33Hs82MoKi6GTqcFKAo2qw2tra1wOByQyWSw2+2orq7Gj+/5EaqqqtIug1JUWBRX7SKTyWCzWuFwOqDVpJ6QYzyQg0Ov16OoaOryRJ4LAk/W7kB/H1yuyPBR0W1Lo0FxSTGAqU2eEQwGwWNiygfSbyGiML5qg6ZpaHXju6x5vV4MDgzA4bAjGAxCpVLBaDTBYDQmvS9DOBMgvyAfhjBfS8LKK5VKfH70GEZHR2EymdIW18n1Ho8HPMfHGElqE6RFS4TpypWS97rhhhtgzjPjd7/bDIdDCJMkdarUajXsDgeOHD6CQJDkeqSgVAoVAjQaDW677VasXbdWjDFP18VKm6WF2WzGcCgJLuF65XI52ts7cPqLU1h4wQVTpicjIvrMmTOnvVWdooTEIp0dHfGdyWkKxSUlkEpJnaGpffZk4fF6EhrlaJqGTpcd91lkf/X396Gvpwd55nyUlJQBITcmy+AA+vv7UVFZmZBrzeg4E8BkMqG8fAZ8/rEQUGHDydDc3Bxyk5noZuPR2dWJIDvmMkUIzcKFC9MyKjjsjimN5phKUJQQI3/Z5Zfht797GpdfcTny8/PFeHW/3w+/3w+FUgGj0YiCggLMmFGGurr5uOuub+MPLzyPmzbeJPiWchMT66RSKerq6mLCb6VSKfr7+3Ho0OEJ+fsSdHR2wmazRwRKeDxeLLrgArHo3XQ83MgB0tpyBp4oNyTCbeYXFCI/v0D8brrB6XDENabxPA+tVoes7KyYe8K57OGhIcyaMxd+vw9DQ4MYsgzC5/NiRkUlsrKy8EXzyYQBAZPiOKeThW2qQAiYyWjCrNmz0dh4HEqFUvydZQWuc/v2N7DwgoVpbWZimR8ZHobL6YqJcS4vL0d9ffycktHtUJSQzKOvv3/aWTujwbIsiouLcf/99+HTT/di06ZN8Pl80Gg0WLGiATk5OUJyB5MRs2bOFDPiEBDuJ10Qn9aGhgbs3LlT9EMkfdJoNNi7dy82bFgHc35+WvkzJRIJAoEABqKiywTHeAOWXHQhgKkt4jYVc0zaoCgK7e1tGBwcjDCwEI7ZaDKhMo36QvGQjNhORvVAOGXr6GjCNspmzEh4ryfkUVFEh0UzAAAT9ElEQVRRNRMqlQpdnZ3IycsDQzM4c+oU2CCLwqIiBAJ+dLS3obyiMkYKnBThnGq9y/DQEDweL3Q67aTCJScDYsGUSCRYsmQJPnj/A1HXSU5pmUyGw4cP4/Bnh7F4yeKU2yai5pEjRzE6MiqKchKJUIHy6quvhlSWnng3XblNAlEnyfN4729/w6tbt8HtckOtVuPef7kXDQ3LY+6JLrk70TVGFvuM8hkoLSuN8M0l89jW1oYdO97Gd757V8Q9yUDmsae7B62t7VAo5OJ3IyMjWLt2LYqLi9Immomey/M86JCBCJicUxJ5RldnBzra2mI4zYDfD73BiNlz5k56bSWqwy4QZz8CAT9k0vR8Q8n89PZ0w+lwgJFEEv1gMIj8ggJk62O9AMi9VusoVGo1VCoVgsEg5HI5qqpmgmEYSKUSDFkGYc7PR05OLrq6OkV6EI4JjQzp6KBlEAH/5GukkPbsDkfSBBzpYDJtkIw58+bVoqamJm7eRYZh8Oyzz6G3t0f8LhnIpPE8j3379sEWyrJN00LN6kWLFqFhRUNKbX2VwDAMGhsb8cADP8dTv3latGRrtVo0NCwHywq+iyRMM5xwEQI30fGgaRocz8NkMuIbV3wjbiYjrU6LN7a/gUOHDqWVWg4Ajh49io5QFijCyRQXF+Oaa69JKelzdHvhOWTDwfM8GIkE/b19QmagSaztYDCI06e+QFtrq/hsMr5BlkVOnhnVtbVTkhA4OtMZEOYPbbPB7XSJ36UKiqLQ39eH7s5O0GGSFkVRCAYCyNJloTxBKRvSF78vIFalJWqJ/r5eDPT3o6+3F/qQYUguV0ClUsHrccf0M23CSYwkHMfB5XIl9IELBALj+kWF+08BY0aDaJDFnmp7PM8LJSWo+CGT4QXdkk2aUqnE9TdcB4PREEPQGYZBW1sbnvn9c+Jv0b5g4e/HsWMZ5Q8cOAiVSimK20ajEbfedis0GvW4+rbwNpNx/OERO+nMQSJ3mPCqmOONGwDwEH5/8YUX8dB/PITdu/eISSwkEgksFgteenGLWDeJOLmTd4r+hIOsv1Q3HMMwWLduDRYurIfT6YwgnjzPgwePJ379JJpPNscdt+i5pGkag4OD+Ovrr4up8zhOqChw4003oKqqUvS6SDpGUf13u5xJ59PhdKC19eyE/U6Hh4bw+ZHD6O3uBoCIfQAApaWlmFtNXMMmZvQMhzdBdiiKohBkWfT29oDjYo07ydDb040zp09F7BOiXtBlZWF2dfW4EU4cz4EitCHUb4fDgZYzp2HKzR3T64bK2MQbibRFdaLwB4D+vv4Y5Sxhw8+cOTNuuVRyHzndLAODkEojHVoZhkFXVxeA8cXS8L6dOX0aUtlYbkmO46BQKtHc/AWOHDmCxYsXJ7XQkkQOCxYswNUbNgj1gkKEnWwilUqFPXv24Kc/+RnuuffHKC0tTUh4QAPNzc147rnn4PV6hZPM6wXP8/j2t+/EvHm1cUWCeG2Fcygd7R1CHSN+rBSHVCqFxTIIu9WGwlBNpGTtkb8cx2FwcDDG0i+VSjE0NITe3j4UFOQnbQ8Y0+udOHEC77zzLqxWu1g+hWxSmqaxdetWfP7556iuqYbJaESeOU/MDm42m8FxgjGOYRhIGAYyuTwmB+l44jAd4ij0BgNuvPFGPProYwgEApBKpYI6iCfvN4yHHvoF/uVf78XC+noxK3y88bJarfjNb55Cf19/qKRwAD6fD2vWrsH69etFrmo8iJw1x8HldqO/ry9pnldBPdCNkeFhFBUXw2A0RSRzIWsjPA0iGwxi1GpFX283nA6noDoJvRvZu2qVGpUzZ46lS+Tj1wFK5V1IuwP9fXE5TqF5QUc80N8PmqZRUloGmUwmuKsJjUUwIhzLwmG3o7OrEzarFQDEkFuynvLMZsyaMxeSJONOpBmFXA6/fyxLF80wKK8QEiUHQtU0eZ6H3++D1+NFbl5suZK0i7W5XC7YrDb09vZh8+bN6OrqiikuFQwGUV1dje9+77vQ67NhMBjingIcy8Jqs2F0ZBQHDhzAtm3b4PP5YxYPx3G45Z9uwZIlS2Aw6pGty4ZEGruwPR4PLIMWNJ1owosvvASn0xnRFsn8XV5Rjjvu+BaKi4qRrc8eNxKF53n85snf4O2334FSqQTN0GKGJKKo1uv1uPHGGzC/bj7MZrNoUfX5fBgaGsKRw0fw/PN/gNfrhUKhgMPhQFZWFm6//TZsuHoD+PBTMAl8Ph9GRkZgt9uxa9cuvL3jHShUipgCcC6XG6tXr8K69euh1+uhUimh0Whi2gsGAhi1WmG327Fn9x5s3fqq+F7RqKurw9p1a1FQUIDs7GzodNqEtWlomsYXX3yBf7v/AVHVEW+pkcQu0Vwx+X9+fr5QS12vR3FJEYxGA6qqZqGgIB+FoXraqfh2kj69+cZbeOaZZ0FRGCOeENYGifT55je+gVWrr0R+fj6ysoR4aDYYxMjoKFpbW/HiCy+hpaUFarUabrdQbfPKK1fhnnvvSdqHiP6wLGx2G3xeH6yjI2LV2FS4L0JQGIaBXC6HVqcDBUAilUEilcATGm+n0wGX0yWubTJXRCWiUqlhyslB2YwyMVPURBAMBuF0OOAPBOB02DE6MgxnVDG7hOMQInxanQ4qpSCF0QwjVpINBgKw2+2iVCcQVwpBNgie56BWa5BfWIji4vFzq5JxsNtt6O3pxaxZs8GDx949u7FoyUVg2SCOfHYIs+bMRU5ODgb7+2C12TBz1uwY+pAW4Xx166toOnEC3V3daG9vh0wmi5sxHAACwQAoUCibUYbioiI0rGjAJZdcInagq6sbO3bswNmWs2hra4PVaoNSmTg1v9PhhC5Lh7IZZaisqMAtt9wCU45J5NKOHDmCV1/dhr7ePrS3t0Oj0STk/gKBAHxeH0pKipFrzsOll1yC1VetjisWhnOsz/z+WezcuVNMSByuk+M4Dk6HE3qDHvPm1SK/IB/gAZvNjjNnTuPs2VaxPo7dbkd9fT1u/9ZtuCDkQ5hskZFNP9A/gC1//BNOn/oCfb198Hi8UKqUccdf2DhOqFQqVFZWQiaTYd26Nbj4kktEQuNyubHlpS04efIkent7MTw8DLVanbAffr8fPp8PhYWFKCoqwjdXfgMrV66My/WRd3r0kcfwwQcfxCT8jZ6TRN8TwspxnFhzSvCTrMLiJYtxzTXXwmzOS8moQ67ZsWMntmzZguGhYWRlZUXEy1OUUBFVIpGguroaxcVFQj16txdtbW1obj4JmUwOmUyGkZERlJaWYuPNG7FmzVVp9WF4aAhHPjsEJlTGeaKGGPHA4UPKER6iB4IQcEAD4MU6VTQlJAw3GE0oKCxMSxebCL093TjZ1AQq9B7kkw5PxvM8eI4TxWKeH3M/I+0R7pPlOWg1WphMOcgvLIJSmfo7kPFvaz0Ln8+P2XPm4GxLCwqLiqBQKNDV2QmlUgmlUoHW1laUV1RApRL2xISt6n/+819gs9mgVCpFi1Q8Yw55aZqm0dHegWOfH0NZWRmAMYvk8cZGvPH6dvAQdIkajVrUi8ZrT6sTuMLmk81oOdOClStXwpRjEk+sE8dP4L1d76G4uFjMVpNo4GiahkqtwvDICJqbv4BWq8OatWviispEZKBpGv/8w7tRO68WL//pZTQ3fyGkhwuJyTRNi2mu9u7dh0BA8NFkGCH0S61Ww+l0orikGDdtvAlr1lwFYyjZcqpO3QMDA/ifjz4Cy7JCm5oQMaIQoZIihFyrFSJiTp06BafTiZqa6gjC6XA48NFH/4PR0REoFAqRsMcDRVFQKARludVqxeDAAGpra8QxjXc9AHznu3ehp6cbx441QqfTxb02mf41XAwlRhiaptHb14/Xtr2OI4eP4t5770F1TfW4hIuMy/r161BRUYFXXvkLPvl4NxQKhSgR8Twv5iRtamrC0aNHwXE8aFp4vkKhFIvtXXvddVi3dg0qKitSJhLhKhGJVCq6MoXfn47OL5yTJP0nf1mWBc8FQIWiaPR6PXRZWdBqtFCEjCOpEPvxMDg4CGmomCFpM1wPm0r7NE0D0YdviJCyLCtY4OUKGPR6mHJykJ2VDVXokE/nHch+LiouQVvrWTQ1NkYcILm5uRgYHEBfXy+KS0qgVsdKaUCahLOwsFDMdp2Tk5MwnRbp4NDQEKxWKxQKRShsawwarRZanRYul1vkKgoKCuK2SVEUent74XYL1q2c3ByoNZGckUwug0wmQ0lJSQqnnaCH7enpgS4rC1WV8a1w4c8ni/vii1egunouDuw/gA8//BCNjcfFhRvwBwBKSFIRbpXkOA41NdW49LJLsaC+HgX5gp4w3fBBhmGgUCjgcrng9/vH3axCGRKh/xqNRgwjI2NL0zQUCgUYhgEbZBHgU09KoVAqxUJqyRatyWTCLx/+Jba+shXvvPNuzCZPRHTJJ5zjJ2BZFjKpFEqFAi0tLXjyySfx2GOPIS8FzpNwLjU11Xjg5w9g9eqj+OjvH2Hfvv1iVqZgIAhQgrGSuIwRQ15xcTEaGpZj2fJlmFFeLqZdS2ceWZaFz+sJidhhpx4luAMlsq6PB4qiQuUtKKhU6lD0lRYqtTpmTYZz2JMBcTlSqdWgo9sK6Vk9bnda3CcQ2kMaDRQyGVQaDbTaLCiVCsjkMkgl0km9A0UJ2cmqZs6CxWLByMgwBgcHhLXBslBptKiorIJKpUq4ntIS1T1uD/wBgcOUhESMZHpk4mYCIMSdjfkohlvlSceStRkICDoNwoWoouqf+Hw+eDwekSsZDzzPizqtcI5jvHvCRQifzwe73Y4jR46gp6c3JD57AEpILpFrzkNVZQXq6uqgUashCy1cQbRCyk7dZPIGBgawf99+5ObmQiZPrcQI4XAsgxbMnjMbFRUVomjtdrvx7rvvQqPRwGw2RyQeHg+9Pb2orqlGZWWsc3A4wsX4/fv246mnnobNZhN9Y6PHned5cd0Eg0HR6k7WTvQ7SyQSOBxOXHvtNfjnH96dUt+BSGIXDAbhdrvR1HQCLWfOYNBiwejIqCg15eTmoLSkBPUL62EwGERXluj3SwfJJKJ0iUw4wsXbRIYZYOoigaK5y3iYiBdA+OEZTw1ErpkKCOn8WLFNstaSreu0jUMZTE68mQrR6KuC8IPm5MmT+MPzL+DkyZMIBAKYMWMG6hfWo6K8HDRDh65j4PP50NPTA7vNjoGBfsFwZbNhYGAQUqkUCoUihugQ8XrLH1+KawBL1j9gYhtwPHew6YSvy5qbTu/xtUrycb4GdjLPmC4Tf65B5oKiKLy982289OJLGBkVoqWuvPJKfPuuO5GdnT1uOw6HA2dbzuLAwYPYs3sPenp6YgqaCZZSO06fPoP6+gUp93EyczHdI7bC8XVZc9PpPTIcZwZTDiK+Op1O/OH5F7Bz506RW7zhhuux8eaNAJBQPx5u4Ag31p1tOYuXX/4z9u3bF0O4OI7D93/wfWzYsH5acSYZfD3x1Tk2M/hKQHSdGhjAI488iu3bt4tO4ldccQU23rxRqBQa8q4Id18hH+LUTSzOxAWporICP/3ZT1BaUhITeMHzfNp1zDPIYKLIEM4Mpgxj4YgWbNr0OPZ+uhd6vR4ulwsVFeW48aYbYpyxxwO5ljirq1Qq3HDj9WKJjvDrqqqSe0dkkMFUIUM4M5gyEFef7du3Y/++/cjKyhId1ysqK5GTk4NgMDhh/SBxM6uuronNVkPRKC4WXN4yYnoG5xoZwpnBlIDoJQf7B/DB+x9Ap8sS3YoUCgXMeeYIV66JgBibDEaD6ONJYrLLK8phSrHWegYZTBYZwpnBlMLt8aCvrw9SKSMSSq/XK9ZHnwpbZGtrq+gORNM0fF4frrxy1bRP6JzB1wcZwpnBlIIQs3D6JZFI0N7ejoGBgRjdZDpgQ/ft/mQ3/P4AJBIJPB4P5lTPwdKly6ai+xlkkBIyhDODKYVCoUBOTq7oasRxHFQqFVpaWrDr3V2iuJ0O8SRx1wxNY8gyhE8+3g2KEoxREokEGzduhMGon1TtoAwySAcZwpnBlMJoMmL58qVwucZqKnEcB5lMhu3b38Cud3eBBy8akohrUnhqOfIhhiUSZmuzWvHYY/+J/oF+yGQyeDwe3LxxI1asaMj4bmZwXpEhnBlMCQgXKZPJcMmll4p1eKKNOJs2PY7fb34GPT09os8miauO/tA0LeYvONF0Ag8++BCOHj0KmUwGl8uF22+/DbfefmtEHzLI4HwgEzmUwZSBcIp+vx/PPPMs3npzB7TayBR/Qo0lB2bOrEJDw3LMnj0bRUWF0BsNkDASSCQSMfPTyMgITp8+gxNNTfjww7/D5XKJLkm33HILbrv9VnA8DwoZopnB+UWGcGYwpSDc5eioFY8+8ggOHDgYSrzBiwYjhmHg9Xrh9XphNBqRm5sDrVYHhhE40EAwCHA87A4Hurq64LA7oMvSweVyYeasmfjOXXdh8ZLFX6lEGxl8vZAhnBlMOcQSBTY7tmzZgrfffkfUU5KCbEQ8DwQCCAQCoSzsAEL6T7IsJRIJGAkDmVSGq1avxjXXXwuT0TjlqcUyyCAdZAhnBucE4caaAwcO4NWt29DS0gKPxyPm4ozQb4ICx48ZiyQSCdRqNTQaDS67/DJcccUVKAklw85wmhl82cgQzgzOGaIt3QcPHsSBAwfR0d4Bp9MJt9sdUVpZKpVCq9VCrVGjpLgYFyy6AIsXLQYjYRK2mUEGXwYyhDODc454xM5ut2N4eDiiEqlSoYQ53xxTMC5DLDOYbsgQzgzOG4i/5njZkYgVPp0sShlkcD6RIZwZfCkYr1BbBhlMZ2QIZwYZZJBBmvhfQuv6t+upYmEAAAAASUVORK5CYII=;" vertex="1" parent="1">
          <mxGeometry x="585" y="426.25" width="60.98" height="73.75" as="geometry" />
        </mxCell>
        <mxCell id="rXRJDe7qG6HzljNRHyR7-32" value="" style="shape=image;verticalLabelPosition=bottom;labelBackgroundColor=default;verticalAlign=top;aspect=fixed;imageAspect=0;image=data:image/png,iVBORw0KGgoAAAANSUhEUgAAAIcAAAB8CAYAAABDsqPQAAAABHNCSVQICAgIfAhkiAAAABl0RVh0U29mdHdhcmUAZ25vbWUtc2NyZWVuc2hvdO8Dvz4AAAAudEVYdENyZWF0aW9uIFRpbWUATW9uIDE2IE9jdCAyMDIzIDA1OjEzOjAyIFBNIEVFU1Rb1jXPAAAgAElEQVR4nOy9+Xddx5Xv99lVde4AEAPBeR5FUqImyrIty2m333vO65fkJWtlrfxBnT8oa+WXdF53Xj+3bVmyNVDiPBMkQBIkSBAz7r3nnKqdH6rOuReSKAEUIbfTKS+IMAmcW6dq1x6++7t3iaoqP8JQoAQEEAKGgFB9tIAawIDGb8sfY1I/4rB4TP1W/SVXFEFAqzUQMOZbniDp68cb8mMJB0AgpFdUUIVAXAivIBYEQlAwYExciLKMIuWc5Uec6g8aIt++idUrKyF9eSDQEBt/oPCAQY0gNv5d0IARS18wfjwB+VGFIy6NxD+CpAOkYARMoJSAopSsUYY1vPfpR5QQAjYt2L/28W3CETQjqANRlFDvccs1aZBhMDhcXBcJqGhan3ic4jN/XO3hfrRPgqg2lf4XkHuP1xxsoKDHcrnIYneGueVHLC4uUhRF/NUkIH8N49uEQ9QiWFQEMQYRh+A4cuA424d3MNoYp0kbYxwZgkUgPecvpS9/VM2hqohGjaGAB0rbo8MiM8v3mZy9wc2pqzyYn6RnOv1J/rimdkuG0QKjRdSSYgGH0QYUjtHGBKcOvcGRvcfZv/sQ++1hMlr0d8YgGESST/IjjR9ROBRPAdhke5UgnrnuDDcefsX5239kZu0ehe0QrOCJTpn3HpGoVv9afI5vG0YEI0IQrS2qqIECGtrAlRlDps3pY6f46Y5/z9E9r9FutkkeGhoEYwZ9j60fr0A4KhsRUFLEkf5GKNJ3UfIJOWoyenhyOjzo3uF3X/zfTM/dZimfR1oBlRyPwWvfYxfkx3bUt2BUGjO6oiqAghOLUcGEGKI5DHsaR3jv5Ad8cOZXtBmjQVa/vlcQsUhadvm2wOZVzfjVCIcHPEpUl6oxMhM66d8zTHCgnlKUFbPC5cdf8tGN/8KDxduUNicQsMFgCCiC//+CLXnJ4b0yYfdw7uCH/PqN/4GJxnZsiL5KUINIhgQQBbOFPvorkLtBL7ovZ6IgRKdL1KEIpRpKkzP55Arnr/wLM88mCeKjxlEXp6M/fjz/r20YEdbyRS7c+JjPrv4zy+Uc3pT44DGiGDwVNLKl8/ihD4jazVRQDpIeajR56CFDNNrNwsGzcoaPL/4j955dJrhODNkw0f6qpKf82x6tZhNcQS+b54u7/42vJj+hwzLWCBaNAKLov37hiGPwtA+EmxXipxAMzOlTPrr0zzxYuoO2unhTJttb/W7EC/963c5XM0JRIDaQuzUWZY7PbnzE5OwtPCWq8fhp8vO2crwS4dB1jwp8fdIq4Olxf+kaX9z+mDWzTOkCQQTVyoHVPvjzb3yURUHpC2gIvazH47WHXLl/gVVWCVgUS/ARa93K8UrMShz9018F6AqUGsjpsMYcX03+nlWzQJl5CgXIUJVaMIKEQXzs3+ywLuZX8qAUVihaJXdnb3Fl6hJroUgRiwH9V645+u5o5W3EPwpfEgx0WaMwK1yd/pzJ2WsEV4IYfBBEDEJANCBJ2+iP4Gj9VQwVUIeqpTSBJ2tPuHDvC56XsxRSoBLQLUaMX3GUHH2MEHwUEDzB5jzrPeCzq39gtVgFayh8hEgFj4gHiTmX6Gr9/5ojvr9ENBlDEKVsFNybv83Vh5/RYZ5AQeYaWzqPVyAcA1uZwlAxBrGGQDQpN6Yu8XhxmtJHoMw6R5Y5kBIoU5bWApbwbxjfqIYO6GGjEEQonWfBz3Hx/ifMrt2Lh2qLVewrMCtfjy+igJR4cnLuP53kxv0rFKaLSAPEoSqUvsBrF5GK45Cwji194Rc9+18XthL9rgQSpKX14qHlebx6n4s3/sRqsbDlZuWHZ2VVUCkBRaWBYAiUWEpKXeDmw8+5vzrJguniJKuTbiIOUZNES4gaJMbxWzIqMhEexKe/NEiwEdpHo/+DpxRLEIOo1vwTiaA3Kpq0W3SOzFbMVyBgEn4UzW/LKsbn+NJz9cFljh47w8nxjOFyO1YEJ7bG0j0x8x/f0GPxxK3enC54NQip9sPYKqz1FEzNXuP2g2vk5Nhmxtfz9RV4Fh+jyffYIuFIPIqYFB7IbsogXiAJqY3vwkBYHakVfddbB1LqWzeiHyYKwQd8CJShZKm3xBfXP2OVBdSVWNtn0X0T+qiQ682v6w8XDgGI2UKhlzItyvP8OZfufcbs0hO8esxf3JdQ1PhaOLRKEEqJmgKkTEtok5Xx9ZdKQKXScPEwxMTX1ghy31RXzze1r4Yz5Jpze/omk7M36ekyuRaEKsUlIFLPNFEkXm7tXwnOESdhEUqCFqzqKjdnrnHj8SVCI0YuW5g83Ng8ReMmr/u7AKZETY6aPAoCAFVoHZJgVB6ApORi5TBujXBoHbP1NWw0eEIwgnee3HT4/MonLHZn8VL2iXWAocTgMTqY1Ni8gLya3IoAalA1BOkytzbNxXufs+CXCI0AVtHgv+9RWz7ieQrJtwgYDdiguCDYIFhVLB4bwKokZzAB1ZJ+X2OIaVTYWjA3nX5Npz8Y8tzHeWSB0Ch48Pwe16YvUtBBTYguh4b0jj5qoGqDXmKuP9gh9SFgjUn23NHlGTdnzjOzNElpDZgyohdKYkD9hYYKYiRZcdBcadhW5FBIRrPRwoij0+kRJMeT421AjUecIWjUJQYSRqNfy0O/wlGDzYpUxCAxiNgEEiqlFhgrXLl/kSP7z3Bk2xDGtLFB60fogC55Gc3xg4XDGCEve2TOUqDMrN7j8uSnrMkSahzWKhryFzKyf7wRw0JD1BKZtGn6bZw8dJbD+08wMjSGsZaVlUWmZm5w79EtlooFCskpSo/auMC1GaUSkFefKNR1f6bPUDDGRC5tYvGXpuDR8gO+uPEJ4+cmGJedWNNKZBqpnXDRlzMQP1g41HusE3J6zJdLfHzp9zxeeUDueli7DZEIfG3ZKdvgMCKoeqxabOEYsRN8+M5vOLnvHNtb+7BEtNGP5pzc/TrXt3/Bny//gdnuQ0wrMtF8rTuq/FElKq94qOnTWrTvXNb0MYnmMRilYztcnT7PsX2HeXf/z1EyRLM4vxQBVuu/2fGDhcOKUBDwFNybv8rV6cvkWYGKIlqiZYjmxPEXrVTSoBgRpLS0GeOdk7/gnWO/YIw9iG+S1XveZMgdZuj4EKura3x2Z4UVXaJT9FBn60C2ck+3ZK4DSUxJ5RwyUKYQZTKm7YvMs7D6jKv3PufIzsM0sm1YWsn5LvtPewmm5StASIXSlyyzyJe3PqZne3iJsiraS3CB4S9dVSASTQqFZdfoAY7ve50RxnFqaIuSBcgINMTjygZD7OD1Y2+xe3wPFkPm7EB4ubW54xr/Ueg70BFKNyoYNZFziuBdgJZnZu4ed6eu4dWn6fWpEC870xcLR5qYMpBGjzRoIpIRCEBplNx2uXTncx7N30FNiVeNqsxoEnaDLzchHdrHEipvXSpsgZBUZUgwQ6g4ifS5cwP0gXpp4t9bsewe38fe8QNYMjIBfA6hF7/KnIaxZDTYu+0QE6O7sMZhMTgFo2Hd80yQASaLIWBjRJEYwHHekjZVaji8QltjmByjCqOCDaaPT/Cid6mGgWDw4nnWnePawys8XntAaQoQjyCYH6Dfvt2sKBAC2KKGcUXBBlDNEasELF4adMmZ7kxy4e5H9PLnGBcwGDyCVwHjEVWsODbOXIq0QUnZ2opRZqygxsfTgUnJOh+dNZshOIKPEqUas73VIgeEINB0gZHmEMNmmDZNhAJcVsceYgQk0MBQMEqrOYoPBkTIgkElUIghiGBCiMRfp3QVvGSIZPiwQmYULZSMBuBxIvjSxylLQI3iE1hlVBBvcMFggkWlJEhfqGu4QL4mICq43IELFEPK9cWb7H78Me0Tw0zILpw20TJgXEkFVP5w4SCAScRfXH2CAcQYkIBB8EDOKtcnLzO39IxCPGJt8jMSJoAiA+SfjQyTUvkRNxGC0ZjBDTlNzXB+CO062tkoPd8hSIFaj5ciTtQkn60uzha2ApRQUcosBy0xwdAOFskNrdY2UE9e5mCVYHNKUWg6ylIxWKyChKgFJT2rSFjFRmcqooh4gkaqQ8+XXL17gaPbTzK6YxxLG9Rg6rTEqxAOqUDwrIZe43998tIFJeDpcn/hJrceXKFHFzKhCAGxllCThePENhOtqEQNExKXQSUKi8Ph8mF2tQ9waN8xdo3spjAwO/+Q6dlbLBWzeJtTaoS7AzZ6/v0nb2pxvneeCKU4WjTIvGW728Wp42+ya8dOPIGnS8+4/egWc2vT+CxHG5qUp4BXMusIoUjJvD6Cazc8TQXJCd4ixmIcPF56wJV759kzeoQddhtOLRJ0vYXa4HiB5hgETwaeK0SmsCpeCtbKeS7e/jPPVh/jM486oSw84iL9T+pwb3MOnCL1YhGtONYbhhjl6M6zvH/qlxzddZwh2yRXx0oxz9TsNb689QfuPb2OtCTSEBOqGeVbN7s2GxgC2kKKjOM7XuPnJ3/Jqd1nadgWefB06HF8322+vPl7rs9eZiUsR//FCF6VmBCp3NzK//Co2g3ONYBGkxEAMvCac/3BJV47eI6xPftoOFstxKsSjgpHlISlRPVHsGCiTSzpcuPBeW48vMgqy6iWUUKdJXwrpr/x2XkxBAkYCpwGGt7RLId599iHfHDm79jR2sewtBEKhmgx0hhh+8FRssyy+Olz5otZjPN4CXUaW18ilPu+IWogb7Bz+Ai/fPt/4szYWdrlEOSGtoWWUYZ2TbBneC/jd3byxdSf6OQrmIyoHkx07bSuoA8DSbeNzdaIwTlDEQK9UGCdZ6Vc4c9X/8iB7SewZi9NFXiJDgXfGq0oNpoUFChBCsBDiEhdjme2N8OV6c9Z0wU0K8GloEsVNEQuRBVtxJXc8KTK4BFnyaylFTLGwwS/Ov3f8+/e+M8cah+jrUMQLIY2tvA0fIM2ExzafpbXj/+ETFpUbmhMVabIQVLNqjEJ2XzRnCStg8a2DwLef9OZFpQRK5w9dpp9YwfIaMXfTdSJDGGINoeHjvObt/4zvzr9G7azA8kVY6CnOT1RgjjAYrzgfNi4EKugQdBQxASiBDxCl5LJ2Vtcmf6c3C1R4l+qzvg7QtnKS4gNRioUpVDPKstce3CJ289uUNoiwbQxT9mHlfsh5man5Ywlw2J6lp3ZAT449R/48PR/ZHdjPw0sTTFYMRSlICZW7hsaDDd2sn/PUaxtApXChq3CJQSlaZWj+w/Tph0jI+vTRsVoyapgfZNx3c3Pjv6Kvzn779nZ3I0pHQ3XxBgbC8VVaNqMprhNnCMhRiGK0YBRBQzBQtHocOHuJzxauUtwgTCw06paf33X+B4QrIJuo9cfJIAreLI8xYXJ86zYDt5UCF4KP1WpicOEdduz0eGCIKvKsB/nnaMf8rMzv2HM7sOFFhTxBIuAc9QRWtDowDaa7YQexpn3hXVrQCvrDK1mG7Cxf4iWNQaUoCtQIQtD7HT7ee/Eh5w78QuGwzhZ0cQFITMGI0oIig8b947iEbTVp6RMcdwnn/V4uDTJ5fvnWWIRz/qseBSO737+i4UjOXHx5TJQB1ZZ4zmXJz/lweJ9elksTBI1mOAwFYAjAaFkfbnBxjen6R3jYYSfvvbf8ZPTv2bI7MRoMykwCwq+LOKGa2R3FcETKJlffkYRioQw2sQzoQ6nX+VQIPcls0/nEEzUmyEAjpj8F8pq5xRcr8GE3ccHZ/4Dvzz7GxrdIUxXkbLA4AnqCdZt3DmSvpdigmCDxWikQuZ0KbOcq9OXuL84SUm+TluISN1a60XjBcKRfA00CkXqyFNqwdTsTW4/uIJ3BYWtALL+VwRFq/C1f2I3szVtaXPu2Pv85NQHjMh2DDY6bwltRQ3WCIY1go+nVK0y33nKzbtXYqcgqIXD6NZU4CrQ0YIrN6+w1HmOMSWYsg7bo8fj8aYLpgRjkLLFNnbz7rEPePPQW2xvDEPRA/GUJpDXYPkGh4SIJ6lNsHo6nFYpJGe+85zz1z5jpViObbQGhOP7xneYldQMQQKqJdic+d4D/nj9d8z0nlBaT6OMkwFFTYGaMtLp1CWnltrpExUiFS/B2Ko0QomUSQU7gyq0iyFO7XydD0//moONEwwzjEMoKegaKGwMmkQseEeZteiYLss84vLUvzD55AaFlgQxSWNF+18RX/yAD1ShMCFFMqJJy6UQ3KA1Olv7LWr63wO5z7kze4nzU7/nucxSGKFQD0HJVCPkTiuuiQF1OZkG9rg9/M/v/W+cGnsbWw4TtEHhJTITNywZ6fBJRH9DigAkGCwZYiw92+HW/JfcePIVpetQhE7UokWJlgVKiackVOmIAb/7OxzSuFKqCrakZIU7s5eZXrxH2Szw+HgYVBKVzsevelmrtHN/K6SO5eOLGQUrBjGCDwEJhjEzwXsnf8Ge4cO4soVRh1FQPJiYZ/T11iprrPGwe4/fXfwHLtz+I7ms4k2odZbWG9kH4nRQGOgLC9W/a3+O9VbJoEhRfy/GUmYd/nT9t/z28j/woDtNKT2QAidgB/pmRjZZiRVw2mTC7eP9k79m1/ARKBs0XZNMDN9M8H2X3u0z1WpsKIAEixFHKSVLfo6rD84zszqNOI176zW1kQoDq7N+vNisaMASPT6P8qz3lIt3v2Q1X8JIH8fYMNSLICGGxyqeIIKngbgMSSdsWIb42Vu/5Oie01jaqIkRjxHBAQ0K8J4QoBRPYTs8Wr7GH7/8v7h060+slYtIFsDU+oo6B/OShJfvGzHNE+j4BT65+P/w3z77P3iwfIueFJQV6catIaaHEQUytC4TcBzafYafv/krtplhyk43OfLfXL1NDaFuk2WswXvPnYc3uDb1FV16qLXgLBBSUtClHBQxTZHGt66YEBle4uPLrdHh87ufM7U8hbc5wecRPdtMLkcl1YhENrcXoZQsdtcLIGvKyd1n+OnxD2kyQSgbiFGCejQoFsFpj6ZVMAU5Xe4s3uBfvvo/uf7wU1b1KT1Zo6BAjSbaZCUU9kWv+oOHGEUclC6nbK9x7fHn/OHSPzC1cJOu9PBSIuQgXYQcSVXyKtFhHpYJ3jz0U87sP0ubDKlS7t8AETc+jDEEDbGHqTFkWUZuVrnx6CLTi1Pk+BggpESO0UqLKiHVIMF3IKTxxCk5Xabm73B+8nOWdIlgQ9wsI5QS2Aw9v3ILYwhmUDEYLXHBMmxHee/YhwwxToNWpMTV/G6TKPYe6FFIj+nle/z2q3/kzrNraKOg1IJgAlhHCFWIUJmPrWp0ooiUUUNYwAo9ybn2+BJeLeENz+HxY7TE0CCqcKMGL9G0W4mZ7lEmeOvgOZ48vcvjtftI5vrL+hIJQ1Ul+ICI1H/mtseDpftcf3iRncP7GZcxmtqgEoGYJ13Pzv/246SxiEZtyVp4ztWp88yVs3RMjzIoQgwnQ6r23vCka3NkUGy0kSHQ8E3ePHyOI9tfJ/NNxFdTtLEyzlQnv4GIj47x5X/i5rPr9GxOR3NoWIKxsXo/za+2119Pdb/SEcBAidJVpWeUbqLufX7jt8z3nhBwlMEOAIt9BNYYyHzG0R2neOPQOZraRkKfECwD/9vo0JBCVgEfPKUvKU1Jx6xyeeoLpuZvRvDSCH1meirFGBCJbwhH5YypQGHWuPP4MtcffkXXrhCsgo1+SPy5vgr63iEKJiD0sQcVj3rY0d7DB6//mnG7h4Y0MSap68SICgpBlYBhWZf48tYfuf3kAr1GB29BraPwJnYIVpe638QXjs5yeKkTuKGhBh9CdAiNIdiMwgSKrMOV+19w/uYnLLGGNxmIQ1LkBNVJzXFqGHe7ObXvHXYPH8CoRcQk7VEJyrcJxwveScDYpDmrNp0iBOd5ujbNpXt/ZtHPUVT+jfExkgyeMCCY36o5ggS8KXjSmearyT/zrDNDoKgZWTESSVyNja5hem5EU0mcqZKsdJw+8CZ7hg7TphEXRQqgrEowUJTSeFZY4dL0V3w5+RnLukBpytjppgLpNCOxaWJIV7PGXp4q991DahyorwtAjYHMkNuci/fOc/nB56ywRCkx6qqCfK8elQJrDFYz9o0d49S+t2nYdvQFkoDUJmagPdamNaFGP6c0HW49vsD1R1/RYZWiPjixfMTQT9C9IPHm6bDEnblb3H56m8IUWIEsRLUYJBBEU/vIjau7kHIIVgNWC6wq21u7Ob73DYZkNJkqjSyyACH4qjyVkh4PV+7y+0v/lYWwQGEH7WOFpfSLoQU/IBibEePNjj6OYxK5SUOsddFMWSqf86frv+VJd4oePVSjn2aUdBAaYOKBGbZDHN11mlbWxodImBIqM/HDZunEEQrFNg3LfoHPrn/Ec/+IwnaTSDuszXADqOkLhKPkyfIDLtz5kiW/DJmABxci+qkSSfoS3IZDxCibJn2ox1JiVTm67xR7x49gQ6SnR3aoRRNN0AgESlbCMlemPmN6eZKezcE5nI3UQ6m/fFLbnqqcMSb+qgr7Vz00IqIKJkHXVhVnoQw5tm3pmi4zK5N8eftPrOlKBO9C1ZjFkquj1Ag2ZhgOThxn3+59OJecUpENoZnfN6xaGiYjoHiXM7M0xeW7X9AJywSJYXU0kQOh7HqBjM5bR5e5PXOFW49uUpgSr4GGzfrQeMq2Rt9hYxMfdKo00dacdxzZc5LtjZ0RkLGBUmPHPGssNklxHnos9ma5OPkZoR1hZmMtofARKk5MsZjTCQOCkSDPr2sOfbFS3tQ2iIIUCX2N/M/oJXnEKt2yS2kLemaNydkbPFqYirUvPs5LSP4A6SAAY62dHN13kpHmCJIcy9hIX/of+RKzVe9j9kcsaoUy6/H5tU94svSQgkozyQClEEwBFFpBhQU5q0yuXufPz35P3l7BNQ3WOgoNFEajr5FY1CFVoG9kGFVavqCnBT1jUR3m0NAJToycoKUOLbqolDTIsJojkgOOXGHVPOdPN/6RxbBAoB39Ct/DhphDiazv6ssScBFo0ipjGc1NkJpjE38vRaCmEpYKOd3wiguqjchzFR+/MJTB4n0qxxAQY3m0+oCP7v0TKywT75gRTKwxx0p0vmNz6xZnhj5kd7mXlgaw8TB4PAbFqUTtTZX13diw0kNCl7LI6GqLVRd4Zmc5/+gPLPOU3PhUB5Ua0UUKQBHVR4gO40qY58ubnzO3NIe4aPeDD3XL6nUn7iUiAGMtxmQUvcDuiX2MtscQTDwdxNDKGYcPnqBQUrKwMsvt+zcoKeo2FCg4u1E2bv+Hvm05B928zXuuA/D6d6yH14K5pSfMLDyI9jn1Wqkc2VosFXaN7WH39j1xT0KIgGTlC3z3x7xwaPrFqvZFgMLnTD66xe2Zq+SsRfAwUPuRJksdbBTo0OXmk2vcnblJr9dLJYRxJuEHtjWMOYvogRs1NEyTneO7GW4Mk44X/bDNEDRSnEvWuDN9g26xQtCCqsGLakq+bZmj+YqHKEsr80zN3KGgE7O0tReWRtqUBhl7d+4lM02ssS8m5mzi1YNEgyuEFBBEmGN+ZY7Lk1+ykM9S0IuRVjJh8TYxVdQqT9Ye8+mtj5kvn2NtvPpCiLS6VxELRrUl4IXx4QnGh3diK4a72GR7BQ1gjENNoBOWeDB7l2DyiJNUsbmYzaW2/8JDRMnLDg+f3WOx9wyVAtWULa4X19RmbffEXmzICGWIfsc6g5fs3yY2xYuhNALio3CkbHphcu48vsr1B1+Rs4qaKu0nGLwiRumxwvUHF5hevk/ZiB5rdIbk1R1OMYQQEC+MtyfYNbqPMigVmTlWw6TOYCFGKU8Xp3i2PIO3JcaBqk+xh6H04a9GcYTg8aHL7OI0s8uPIvlGQs3Qr8JtUXBYdo7uJqON+qrW9WsvusnD2u/0GjWHUUCU0uSsmQWu3j/Po+UpSopUsQcmqFCanIcrd7n26CtW/BIlZbJRpAStvpoWCiaWK9hg2NYcZWxoAmeyhJYCNewdfRPFM/30LqvlIrnGzr1VqBF9oL+ePukigFGWigVml5/Qo0dIzXmrIukqonIY2nYbY8M7yWyjz/lEvtnTbINDRdDEcRkkM2CV0vSYnL3F1akLdFhB8QQCBmdYYZmL9z9jZnkqEnYGuvBohS/+UNlIzqxRaIhjOBumKcOYxPtYt8mqqAZ6dFlYe0qPLl50ABaPau+vRWtAhLEx0GGN52tzdEMXa/qHIW58eqEQ+R47xvaSWUeNvA6alfRbGx7aP0iVZoDYfMdLic8Kbj++ztTKXXI6BDzGU3Bv7i6Xpi+w7BdRLfpXWb7ioQREoGEzxtpjNGhTtXnsC4imn/R0yw6La89ilGINiqsjmlqt/bWMtDm55MytzrHSW6U+MQy8SUT+cTTZu+MATuw6i/JyEVWVnY6/WibKZUBjawpj8FLwYPE+X07+mdXeMkqJWWaBO7O3mO3N4Z1ig9LYgiMZk3nRsmbGsq01gsMN2Nz0xqnKzQj0yjU65RreRNSUUOVOqkKlv3Bfh02MqsAtWM9Sd4VO3osFb9/QBoBYLA3Gtu2M0Z1ILSBaAZBsTnHGfJZEklX6ik6nQ4IhGKVnu9yYuczc4pMoHM9XnzD9fIquFKgIDQQptrK5W2R2NbNmjcqtTyTFlzfA6uoy3aIbSwcltr9el8vZ0lT8Kx5pM7wo3aJLGXyEBwamX38bAhZLuzGEExf5GVrVBkE/9b/xdzdogiwqvikQESYkmMifcZ7nnac8nJkm9znmyeITZhdmQAqaEpNBfkvWu9IOBiHDmSaiNsHIlZMUJ4wIJbDWWyP3eVwY7WufemF0c46ZhoAPET+JVTVpkasOzJiUHIyM9ZC6HWsoQCSVaVLncfp82O8fIrGUtCTQKzqEUMSUgbF1hruPeRQogcw1ycRhQpUrqnyTzW/QwOrWfUISII+Kqcp28ZoztXyXrq7i5tcW6JSrWOnhfCBIRrFlCcy4oSIZ1jYxuNqIVr3DQjphJVBKGWt1JYFwEohNSVLqP9gNx/tGKmQw1pX2i46U2Fo7tco0VTuD7/AAACAASURBVMLJxLCOLkiJsYYyGKrrPyrW94aFc0Bz9PJVgu/FJTGRZlM1+lYRcDFatJLh1OKIGdqQBLjul7qJjHglUBEh7a9ZVfQfJQOcMcyU03R0DdPtrRG0JOJc8YWN3ZqLqsUIQQOqge+8hkpj2yiDwVdqrL4rU/vaYzNmpQrJjUE1FkBVwhoX2WOkwLISWe4hblCnl2NMFqmHNR+1MnEbz/SqKj5FgT7E+pEX1xRVlwxLQoGTOd0k8PWyIy969Ioepig6qMa71oJq7KuxBZeVCrGXlQAhlPhQRPLP1yj/VdtoQclshk3AWAWTiX699fMm5iBC8CXLK/OsdhYpQwGaQWhCcMnd8QTpUdicgpzV7lq8H6bCFlJLKtV+i+yNvX/ASOxyZLBYMes4XpWKjyOVn6Z3jFotRTY/gp9VliW+LDCa+ntpUmlewYet+vBYghe0pPC9VGysfbVGsr0pqmllbVqNoZgFNtJX5/X0Nj5PJTphOQWP5qZ5MHcXb3uUklS1pmopteTSJWeFe3N3eLrwlKCKc67+/M2WZcQRYvZVYag5hDNZPbOvt1yIl4MqedGjKMuvgV6a1mkrYR5NzHUZ+FCJLRT8FrX+U9UoHHgK36Pq+gPrt1mS+mxmQzRcG1GDTe2mvv4SG/5sic3tQgbzvWdcuPspD1bv0JUuPasUFkpr8OIopMucf8BnV/7I08UnqAmUPieSiVLiDzblGAqKMyBqaDWGsKbBi7CaRDCg8L1o3jShp1UTuvTErRKPGD4bXDNr1vYdDcnnsLHh2isesdAmkJc9llcXCJSoVKWT619UMAw1R2ll27A4ekUvGpday9BHdTYwVCFYS64e0+xy8+kF5JLyzrEP2TN2hJHmGEYhL7o8WrzBV3f+xP25G0i7quTziAk1hzY9lY1ukBFBvYdgGB2eYLg1Ujvjde9ZJd7sgBAomZt/TBkKjLOoL2LiWkJ0xF8yahkcQqQChIp4guK9x5HRdC3ccHOUlhui1JWozq2hKMtXf0e6VoRZjw8lq51levRo0PyavY1okRVL0w0x3BzDmQZkSrcsaxXc79O58REXw+BtCabgysNPmZ2f4cCuo4xvG4egrC6vMT17m/nuU4qswJtA6UuMre4uqMLJqD9koxGDKkYNmTbZPrKbdnM0Fu7aAR1QO5yBkh7PF56A8bFm2QxiG+k3ah/k5Yeq1tVxAI2sQTsbomnbuLGhCYabI6zlcxBiJepW9SmPN1PHl+90Vyl8jtr+ZtefqlFzNMwQYyM7cKZBXsYC4PgiMXe7ObUuSOljg3mnBFMgLZjtPGBu6gnqA1bAaANswGc5IfOUgFiDNUBIXYIq6uFmanZCfCdnWoyP7KJph2JVuPoBDyJufixszpmde0hedglZ9AlF+sIhKXr5Ybx6JYRY3VgJSVl4du3ZRdsNYXZP7GNidCd4wUpVQb4VPocQqo7+RlnrrrC2tvKCuCNGBQbHzok9DLW2UeRlfbCqZjKbsbkWJQsBUwQo4yd6CUhL0JaHYY8Ml+SNLoXLyU1BT/MIihlXC2QMfe06GH9jby8QDNuGxhgb2YmhUf/L+qFRbxQrLK3MUYZev5Zo3WrJxrXWC4ZWtzIotUKwxnBwzyHadhgz1pzg0P4jNGwjqXOJzt8WjKAhTUZZXl1mfnG+jpTWj4jvCrBrx17Gx7YPhNfrg7+Nf3jAhYJMBectlA5CRgiWooS8DPRUKYLGFklOwBowBlWblEYSjKredRPFwlUov2N8F+OjOzBk9b+sf0YE2eYXnlKGHtbFLgRSZc4GSNOvYkjK21gbOxPt3LGDvTv3kZFhWjrC2YlzHHDHCHmLjicyhgAJDhNiBbZQIpJai1Sx/ma9dfF4gV5WMh9mebh0PTp6gKhHtQO4yE+zSquAA7KX46MnaOoQmAZBLc4YTAgYn2349KgYvG3gHam4SABL0DI6eSY2XzMu4j0aBBMc1ismlLFyMLWuRkoMBVZjiYZqBqGBCQZLSSjXcCZETRwcohlBMsS0eW30BPvtBJn3id0cw3lF8SLkNOhheLj8EJ910OCxmmHUoWoio8t6vCkIZuNBQ2rYGaECVYwKiMETMFlkmg/1hnl37wecGHoLSxPToMWebQd59+Qv2NbYgaiLhTd1iFm50mEgsh+MuTcmILHDZrq/3kJPO8x3ZlnTlfpRFk29F5UQShBwvsmJPWcYdROE3KPqE3pJ7Ka8wRHZibG/aexjMRDxSD+c1hqBlVThV91cMOCISr/zMN/4r5BlGVolK4gssLJQhrNxju04xjDtSNOrfAiN0YIqFCHQocv0s2l62kGspHvrK2ylut59s2BYZZiqd42mWYxQFjnGC8f3vMbZA+/RYBuCjRzSBm1OH32bAzuO4gqD1bgA8cK8gUvzkp2tpmQ2UYalAmVKlFRp+tnFJzxffR5bIXqiqq1hQ0ktHjIObD/B6QNvMERG5qJwlRJQE7aoen7jI25ZzPkgGhvMShNwCGBMwDqlZRoc232CQzuO4MiQyHkE6PszyawvlM95PPcodigiXqhTCULsnFhhhxt/eUHT7d8pM4sQVGJKwStDpsVrB86wt32kfm7sGVZaJtxe3jv5c3ZkE7iy6tYzeAFerIzXlAndrOVXBO+i96M+4DLD05WnzCw9xFNgxYLPICWZMJZCuxjToskYP3ntA/a0dyA+RIBIAqVsopB7i0ZUMj5VAWqsqC9TGk1LnFNC6ZloTXDu6E8YYQzxsS4hFoen/IkPyfTC1OM7rIXVWIQmVaZM66SZUR24g26D8yQgqYIg1tlE5pkVSyNkHNtzgtcPvk2T0TpnZNDYK9PR4Nju1ziz/yxNH1HJCNCkhmysvxlxs+BxRChjlsSKofQFK+UKNx9eZ6lYQFKuT7WM/IUgCdqO1WSHR4/xxv53kW4WtYzjG/0kfuwRT68OWKaUeK96x/sSUwqNMMTJPW9wfOdpHO0E06e4MFmHoAFjA6u9BSYf3WDVL8d0j5XEug/9A1lblU1qDgA1iSboAY8UhlGzmzcO/ZQ9rYPYgZ5kBlUyZ7AIY2acd47/NLYBCBnVHSdGYr5lsD/gy8TXIVHljAg+eLwpmXxymyfLDynJQTRlbVM0Lw6lxAk0afHGgZ+xf9sJXNnEpuYyIgPq9S8gKaZW733kNNb4BpwINs/YO3yUN4+8zzBjmDKDVD0fga04dxVPSZeZhfs8nLtLLyTerFCblSgYUu/CpiyqhsQoi+3HwSMh0DbbeG3ve7y27xwZQzjRAeEAwGMJNGhxeMcpXj98jjYjNLSBrS6TETvgkPWduI1PLuYVNASCKsY61MJC5ym3Hl1mlQW85PFOFQ0xikx9BA0eqw32jZ7il2/9R3a19tEMDUzVGjAJiLUWswUZ5e98KUgnuHKWYoPJUJQ0pcH25m4+PPsbjkycwYZmCoVJULjE+RoQF1hjiTuzV5jvPEVtSEnQ5EamksMqOtt8blZQr1TtIqwoWRB2D+/lvVO/ZsweJNMWsZ15/I0UDEWPWTC0GOWNo+9zcPsJTM/Fm4O80sr6WcR+wmwzak1iZ+L6KanfZrPg9uMrzPlHFKZH7HZT2TyhLopGaMkIZ/b/hHcOv89wOYIpHFZie2gfQr8q7EfVIF87wakVVkOamE6T1w+c480DP2GIsUhuWv/D0YTGRpo8XJrk2uMLlK5HSOSnfkZ2UMvoOgb5RoaRdP1p6q/WUMewDPP6wbc5vv00Wc1rKfq/E1IrACRd+RSE8fZuXj/8HlnZwhSCU2LPicHq9QEYeSNDiP09hH4oaVVQyXmyMsWnNz9iQZ9ThLLypbHqsViqjsDWwgijvH/iQ17b/SaNso0vYo8yNCaNfmjZ5qaHVO0zU8SC4nuGrBzl9IGf8v7pv2GMbVgkYSTpyyQPRQxeS1ZZ4s6Ta9xfuYM3eVpWw+C1n1X5ggoDPNANThOLNTE8FQ8mz9g9fIAzB8/G+FOrUD6rf8cY60BSExYFZzLabOP4vjOcOvo6TdOIoFxIXIbEDtdNSq5orB8GrW93liAoJYXpcOH259x/eg9nXMQQpEy9NjKgGQtyFJraZHfrID878zcc3XeSzGWEELDWxhsO4FWBhxt4qfg+mhx3TcIx3Bjl0O7X+eW5/8TOVmzmbwmR3FS3CklhbIi+wNTje1yavEje6hJM6pFRtcgcOIRV5dpm+Kv9yQoiisWwLRvnnVM/Y8/wPhoQWy8YCFJRCdI0Q+wPHcsLVbFYdmW7eevEe7TttjrvMugIvQwfK3Ik+2ATEaQjULLUXeTavYussoinSE9OZZlUDmp0jpva5sT21/n1e3/HoR2HadKEQgdYZGlt69kOAkjf78rF6LF/Yd83Xaz1Fa5SBfpBaPiMA9uP8+v3/0f2DB2jLSPgU6chKh5sX7t5UzJfzHHp7gWm56YILrHMtf9Z35R26a9h+v8yQNTuR1B9zZOHMqYEgqfhM/YOH+Tdwz+jSdUHpEgJv37Nkv3f//7v/z7i9gZrXGwIq4Y2Gc3mGAu958wuPaUXInSeCbEJPk085cYzuAI+9joChGAiiGWkgZSOhmmy3JknjHbYM3KAdpiglB491giECCF7Sc6nkkmTHY1DTOzYRm9llc7yChDvHCkJBDGIydK2VTiNqZ3qdTFh1RY67Uim0T+y1Y+k+Ys1NVtOqwjFC5kIthBGZYw397/Pv3vzf+Ho8Ou0wzBZ0KjHg8YQ3IbkZxgKCaywxJePPuKzyT/Qc6sgBhm4YCABKbXUxqlXNcWkeltb/7xUzWRwSIo4MZ4yUzyerGs46A7yn975Xzm47RRNhiIgl5KuUdCjQL3gdkgFMQy7YV4/do77T+/QXV4mOI9IM7Up8jgbK+I3qj2SFqZP0lG8L7HGISgr3RXOX/yCQ61TjGzfHXMBZYuGbcZcQCK7VE5xg8DpoTeY+OkOzt/8lD9d/yOd3iwyZMAFAj1ELVZtUo9F//2ozl8VBiemqgpeAt5GTnh9LQaSNhcyC2UoccbQzBqENaWt23j32M94/7Vfsr99hGbNEhdE2iAeKwG8AWvJtYeny9T8df781R/oFB1Mw2GqOuWNrumAhom0h9RWHCU2ptd065VgvMOFjJNHXufgvsO4mv0/sD8D41uFQyUypTPrODh+jLeOvcfilUcshx4qDrEh9sKqX+P7tUd1AtdpS2LewRpLXuZY53i29IzPrv+ZkXd2sWfoME3TTtdEAKktNlQgvifzI+yz2/j5yVGGWjv44s7HPFi+S0GHUgqQdO2ERr7GelGuHKe0+Qn99VJ1PqzmXp1YRX3sHepU8d0Ca7exb3Qfbx55j3eP/5wdZicuOEQDxgTUODypB7oGMJauV0pb8Fwf8um13/J0ZQZtR0CvLHzd7up717TaL5IPV3d6TDhU3So7YIMj8xkHJ45z5ti7tBiOa59KX6U+BP3x4jveVHFkjDLBG4fe5vb0efKVLnkArCGox4QAAzbq+4ZR6sr4uikMChKwDUsoPWTCtYeXGBnezi/fGGKPO4CWqUufpT4dqQUNQhMpYbs7wIfHdnBg50GuTH/K1QdfMrP8CNOyeCMEZwg+kXVqzSV1VIBWTUukBp8GAu5aaZlg4i2mXti1bQ9vHfwFbx4/x5GhE9jQpOXbybn3YIRISbCxskBjPU5hC5Z5zu/O/xM3Zy5iRpRO2SMEcGJZz9v47iED38Ww16Y1jasb/TzF5LDNjPLmsZ9wYOwkQgMjQqwDGgyX+5/7gqtDBWtjlNKQJjtbe3n35AfMX17kaW8h9gJTn0LRDUpGeg1J5qQ2owkBLFURZwhBKaTDZzc+otVo8eGpv2XM7STTZqpES1IuMcTNiaRlhyHzQ7w2fJZ9r+3k1O5TXJz6gltP7zCXL9DRnGAqaFu/+WeVGU0W3QapOxM6DVg1mNLRpMVoew8H9x3n9WPvcqD9BqPZOE0yrE9iFIi0A1XQSLkMCsbGWwzWmOPTa7/j4uQXdFyHQEAdGLGxVif4zUWCJEspJomVr81vlaBr0eLw9mOcOvAWDcZi8k+r8DsJhg488IXCUf1MACueYTPM+4d/zZ2HUyw8+DReh21dDV1vGnPqy0YEZ6pwMCXdnC0ozBJ/vPJfcA3PB8d/zZDsoBm21YVAqoY82NgjNrmHVsBqxli2l1M7Rjm48xTPyidcvXeZa9NXebg4Q6fbQazinKAUSNWby0TmfQieJg7xkYuRmQzxgikdu0cP8sbx9zl+8G22Dx+kzQjDmsUABPogqYNQlhhJXI4QlUkhJT3muXD3d1y4+wm561LaSCOoeBZB451tm1vO/lUlMZEXCVuhKLDicKbBkI7w9rFz7Gruo0ELzUN0nlLppQxiE98pHIOhmyg2GZh3T3zIo7k7zBWPKYlkFd0wUKqRcjfgBPZ9lv4zVJTC57SajuXeMz6+/s+owPvH/pYdNsNobBMVAFxGVTypBIJJnrZaMh1lG8O03Bg7ju3lncM/ZbY3y+yzWZ7Pz7K0/JyVziKl71GGAl/GdLaxhixkNBot2s0W49vG2bfrADtH9zE+tJvR1i7aZjuiDUwAQ7o6PZmoGKIHNIsdAJXYQiEHlpnn/K1/5otbv2Ou+5jC+RrzgYqFvskm/snBH+zSrMFjkhmz3kLXcfrImxzeeYJW4pJIpdnqBjhfby31AuEQBn8mhkWOjGO7TnPmwFm+vLfEqnZiT80N8k1VBtquaxVJVq0FdL2QWej6HtJSnvVm+d1X/5W8E/jgtV+xO9uNSIbQQIOQ1c5bIFJzY99wI5YsGDKf0ZYRtjf2sLNxiDMjJXLM48nJtcPq2hK5z2P1mwHnHJkZYrg1Rps2scFURoMWgo1GJ4WaxgDaixMmo1/xGsg1R8QQxGJoMu+f8vnd3/HZ5f/GKs/QZpkcxz5k+nJNcio/IUZX0dVQnI01yaZssH3oAGeP/oQdrb1pM5JQBFBj68/9ur/+3UWxJp4KVYsBtskI505+wMzTKe6vTFKkMsqNjiD9OvsqgVSluk00KjG6UMU1IiPNNRyd3gp/vvYv5MUqPz39IXtah2gyQiYNbIhIWr/+pVqqQGzKCniQwrHNjKTgJEY6Hs+O4VigHNIV54KgwRK9mOiKSIjgm031xGJKqO6MqnAI9SkcTiGlCIGCnBWeLs9yfvJTvrj3CR1dQF1BoUW8CDhAv9RS2bAihr5TTUibG+2Xs/F6NVMKTYY4fehtDu86RYPhWCFkStCMeFWujWalAs++T3P0R7rPXgSjSgPL/pGjnD15jtkrj1ilu+5h3/ceVfFOFXqt+8eBuExtRCRMmWFxiARKt8b5yU9YXVvl56f+lpM7zpAlHmS86C9LDUrSsyTiHEFAMls7ZrGcMv6gi6lRDP3qfogaQYgXAYmAuOo3Q+pdLojEazKCyTAErEQyjQSLFYc3ni7LTD6/yPnrH3Ht8XVWXY5tODwm9j0n9XYPJm2SouI3fJd9vNCnyrH0qYSRUKXYkHFg12HeOP4Ow4xjcBjiBdIaEquevrJQWV+H84JopdoxSx+Jg2jRt3H8wDvcenSTlZkv0VaglNSvHGK3v9QMVdQSxNR3j5l1akZrzKL6tOqj48SjnvPBY2wgl4CGHlceXeT5yjxvHH2Lc6+dY6ceJpOh2lRpSIGMSAzV8MTbUCQWS4vUmjhC8rWHGz9fpG5RYNJCkwJSSffVeh8JyWIsdf1utTfEixDn88dcmPqM8/c+4vHaND2Xg7UUIadyoY1aqitNJV2BuhkmRCzKBgkxSonXegTUGYo1xZUt3jj8HkeHT9CgGX/AxB5jYgxWqmlX3ob0D+kLhaO2YbZ2eKLzaFGajDf3c/bI+zyfe8BsPoNmIbK7iYkdqYWjqvGMTx2ktdVAzbe+tICndjKj0AkmM/T8KpNLt3h84xH3O3f51b6/4+iuE2TSwtIEY6MvE4g+QtWeWaJ9Xf9BUt9GEGUmCoIi9f8qLoVIxWJTjEs1OOrJUkZWUwvqrqxw/9kdvrz7GZemv2JJFvCNMgp76LfGjOarAp8q+H5zI0Y4AeoW2wGVkiJARouDe05xdNfrjDBOsudQlZRWe5KeNDCxenw7QsrAz0klKPEkOYQmTU4eOs2DmVM8n17AS4FYQ9AihpoqAwscJfyHE4HTxknAOke31+H6nasszDzltYOnOHv0bQ4MH6Mt42TaRjRdGhQsXrL4HtKPj1RjGyQj9hubEmSgBq3OZwTQyFmtugBjYrhWSs4SCzxee8ile19x69F1nq8+o7A9nBhs6cBBQckrHRUdkZirqTITTg0jdoxfvPM3TGzblczX5psAfofPMegFh/pvLIZShVHZzhuH3uPe8wc87j5CbZmSSuDTHWtx0dPv1n2sXmZoHe0ABClRI3j1PAnTzN59wKV7X/Dusfd5++j77Bw6QENHcLQQyQjxl7Gm2ujkxGrMvn4jSEiOZ22LqfCD6Bf4QGzXhGdVnvFk5RFXpy9wefoCs70n5KYHWSDeLWtxmsXGLVtBUpNo8ipU16jQKBqc2n+G49tP02aEoKmGZpO66cXwefKCq9ul4zwUgtK0LTxwYu9ZXpu7x/ydJVZ6c4SWR8SB2FjGsK5lwEu898D30Q2IV2mgATERUeyFAlWl9PN8fOsjrt6/yvF9pzg4cYy92w8z2tpB2w3TNK1o9pIDarCRU1l5/INy69MaGNJNCPFi3oKcnB659FhZW2Zu6SnXZy5wb+YOHb9Mh2VyOoiJoJQYoSwrf+UHq84XjmhOIojlQoO9Q/t57+TPGGI0IqGy3uff6PjOaKWiFA8YLJxEiNuaFk52cvboe0w+vkN3cYkQisiWTlK6Li2nbNi0fF3HVC8mJvkAITqEmMia93i8KHmW87D3gJk7M9hrH7OjvZvXj7zJ8QMnGWtNMNIYjziGbeAkdg2KfT6re2Oi8IQg6TR6SnrkdOiwyvPuM579v+2d21Mc1xHGf33OXJZdEEhCCAkJEEjoioQsm5LjJJW8pPI35z1VqTzErorjWKrYcuwkSLKRrDu7O+d0HvrM7GKhMiDWDrG7akBi2WV3puec7q+//vr5A/799b+499Vn3H/8gGrMOvCRPk4iJY5Y9cELQSPqnPXlRJOtPkgz3Q5v7HTAxZyyanN98T3mjy6Tx8KUDUjXco/e8UbneP11pLm6DoEoOArOjC9xY+ldNj/aoOr3CKmTvoZ0BwniXmD211cbBZOcRGvqAVUM+JDhyFAX6IYumkekjIQy8LD3FY8/f8BHX/6Jjj/C9NhJpiaPMjE+wVjZppUVFFmLzGfGQIsQKgss+7HHVvWKF1vPePTyGx692uTxy2942v2WLe0SXCAcUbZE8aoGgQWb55JplvTHoO8w5Na5g+9PFyGSI74iC+Arz8LRi1yYXWNCpshTNhSpM7e92S6U4Sx+GEwYHoSrotCmw5Wz17nz+cd0n7yi5/sEMYnGQRIte1/TtrmSvP5IWo4q32+CXh/FPlLQppjVl5c81xf4/ib3t/4Djy3+yXxGkZe0ipLMGVFZFTQolW7RC136VZ9KbfRmIDTMe+fT5hSVwpnIvMMeq9DUV2srURYFF+sC5X5jrjeZkY+0UrJKmHKTrC68w6kji5a5qYKPuLi/FeuN8PkgGKsdo37QGmxqZT0fPdP5DOuXf8nmXzb5pr+BKwMRQwxroGZvNgzNyHe+b38Ul6ZWJv1QaWhearexGO81ZspWZdojToSuwvP4DF4aydfGhhiuYUitYS2qsVkBnZO0uVqm4yFN7bafGSPc/nYtw+3UGXEbI1YfpBmyC4Vm5L2chdlFLs5dpkUn6XckaqL6fYnxfO+20izwCYmTlD5ZSdjjoqcMY1ydu8mdjbts3nuIhoj4kNDLBDy91V0zcJDvvkqdbkeVhpfqJBWVYkQ0mPCKQMzShXOg0VYXnzmoyb8k3ENdgz/EWAe/qQ6UKrcipmVBYGiCg6RCmlmtdrKPuvWuTJNDuirjWGuaqwurzJQzFlCnCQlRa/7qgaayMAyObLtb6/RUAkSPl5ICZfXCTT7d+JCnvCIMn5A9h8p2x2+PYHcmBvvorY3ImYpScBGXJhHlEYroySpz8q6jESzJUgzgaoeQOmgTnFYNG0uGx48q4AYUgyiSbpb03lIDWJ38ROKgz5W9oZ+DTz04f689XaDSgIstzi9c5uL8VcvEvDWgVUFMrqLhbOxt+fie3x4QWZ0kvgQeRwuXqpTB9yELtMg5317ig5XfUPQm0aqNUlL1rb3YZXvxjlokZTg3H+aODw6j6ZOcQSkrKILNiFeEvhNeeWHLJnaizu7uoIp4aViC9W5kgJLQj9BXiOLQNEVKSUP9jA5kVU2puwBJW26wDr00XNir1rvbrq1u5POq5FHJI2g/kvmE2YjDOyHTSCcKJ/IZbsy/z5ScIYtt0tqOeGer957lGpqrsHuT5mvTfGE5vQYIQieb4vLZVeanl3B9T+aEvPAWqB2IfKW+dgwvLvU7GwKDm+afukNs2zH0Stv+yg6Pv+n0Dn6+02+//XZSM+eyzCeGmHlajJHYj0xkE1y/cJPTxxcsCI2D6diDs7I/jOWtMTurVCo4h5OS2fY8a0s3OVpMosHK4mRJeP1n25VJoz9W96cALq1p3mIh5xylG+Ps0WVWL9yiRRutlFr9eXtXUb007s3eHtBNeuK9aHNJc9pcPHmFCzPL0FdLatyee8J/0rYtzkjpc6WG0iqRzHvoK3koub6wzjF/Cq/FUP1k2EFgr9Mlantr53AURHVG3gbKUDCdz3Dz3DrT46fw5FQhjET09v/VmkYq6gxIU1ekgkaoBB9zlk+tsDy9SkGHTAvzpFQS2N7b9yM5h6TpAdYTYsBXGTucP3mNldlVXLfAR2cDgn+23dkAPdgW+xRZbhB8V5jwU6xf+SXHi1lKHcNm16TnNlVl3W8sChxQndCKStb8DEDMaXOMy3O3ODVxhizkaPUDd78fatOhf9n9751HA/iQM6YdVhdvuPc2vgAABV1JREFUsjh5npa28TWW1CwQw5Mm9h/sHUBAambOXvd2gg8lS8cvcX3+HcaZIB9q7f/Zvs+2I8SKEYNiT/G9jJPt09xYfI8Ox1JPduo/qYlRgODeatWAg3COhO44nBFsaiKnQFvHWZ2/wdzkPFks2W9K9VOzWu6yJjxYHcdRSElL2qyee4e5iWVaOmFPkIBKZfSCBiwb4EP7zaoPYFsxWSbRRM93rnnVIubMtGa5tnSDMT++L4Twp2nDzmFfolFhmT+5wIWzl2kziVQeWzUqrIc+NgDawPa/nR9AQLrdFAOcQhJp9bHkyumbnJu6CJKn+8C4jwMFvrptodaV2AmxesPB4ThqcYPtSeZ3IbQkgJBgeBVppjj64JiQI9w6v85MZw6vxdAFMFByQBQeujrbYpG92VsPc5P6JWTwTSA1PSt57DCtY3xw7vd8dvcLnj75Cu+sWhg0I/qM4EjsdLUOLfaAi+jBIJGjNhVHxBnEXjPWm/etjeMYm8tqIyFz9KloBaGtbS7OXGV58jotnbSLnoNd+XIIsx6yGvfY524+mkl/0MzwcM7K4Utzy1x7vMafN74m6/SofA/U6lIS7C4RUYILKZDa5aJ2SPYqp2leS+3MDXE7wRP18i9CwNkEbrEm7lxbTE/McuPSOpOtaWtpaJxrdBDBSJyjofIn9lGMkVxybs29y/17d3nQ+wLNIurUCN0IqCe61HeR7qNd/rVRfIQDN1dvmen/qfUbqFtBB4TmyoG4SAx9CjKKqsXK6WssT1/BxcLIwjVsMELnGNkrq2pzOOfIyFiYXOTWyjptxtE+bB+oY/ttbN7SmwpZh/MQogXuDRvfKs+qOTahMkc0s0YwQDVS+owy5pw5Ms+luTXGmCLXpJlea42M0EbmHCEY6yrGaBKQUWm5Nmsrt1g5cxXXLZBgzcPBRSpnkfYgyPzxL+iBHik9tQqxbR2RjEhOJEcxB0FzawRXIet7jmXHubl0mzNTy2TkRuwKfSvFj3DVgBFtKyJCltlL1/KPitLTQEuO84vV3/Fiq8vnj+9Quaf0XN+U7oJSiIdo8+4FSXPcY2K873AyDgl0opqmFIgYESrFHCKg0caK+swYbHkwGYhx7fDe5V+ztvQ+bY4Y689HGomm6EfqH6KN7O9oTYEulqx1ecHDl//kj5/8gb9ufMhTfWItlaGilHQio01kdt6h0QRofbYT1e1wxBz1+E+FpgGpSXJDRKJSeFMzcL0Ox1szrF+6zdribabcHJm2jFRWT4rQDJCROsfIspWdzBZCR0snmGuf57drnqIsubvxd75+9oAoWxS5EgQq52zEdxXNSZwxrw63CYMhPkmvq4r46MjV4/qOdtHi9NQF1q/8iiuzqxQ6jg+mPGyEJUet/jXq++IHWzmMK90DbYGa6kDFc57pJvcefManX37Cvfuf8qz3kJfyykavDL9R3nQuDsfKIUhToIyJsCEqSHAUoaDjJjjemeb8wgrX529zYmyOQsfIQ25pLZGQsBIHeA22Dsno7u8f0Dkq4Fugg4Yclcx+phG88Kj3iDsPP+be47/x5dN/sPnqIc9fvGhOah3g7vAJOAwO4jQpcIgm2QOPixknjpziROcMc1PLLM1eYmbyNFMyRaGF7SAxgK8IHoIU1qAEZPRxRKAc2XuWSm04F4mLo64muA4kFk2nApPEq/UtGtvthYlAL+2VSaWt0T+AIIE+XbZ4zmZvg82XD3jy5AndbrfBTOKOPNT/fccA04uts3YRT+YLvCuYnT5Dp5yiXU7SlglMYsr6XZpJPVJrzTs0jcRwtVz2blsOUhYYnJGx69MWEkkLhUqUPko7NcH/F38dL1zF13rzAAAAAElFTkSuQmCC;" vertex="1" parent="1">
          <mxGeometry x="321.62" y="103.13" width="36.75" height="33.75" as="geometry" />
        </mxCell>
        <mxCell id="rXRJDe7qG6HzljNRHyR7-34" value="" style="shape=image;verticalLabelPosition=bottom;labelBackgroundColor=default;verticalAlign=top;aspect=fixed;imageAspect=0;image=data:image/png,iVBORw0KGgoAAAANSUhEUgAAAIcAAAB8CAYAAABDsqPQAAAABHNCSVQICAgIfAhkiAAAABl0RVh0U29mdHdhcmUAZ25vbWUtc2NyZWVuc2hvdO8Dvz4AAAAudEVYdENyZWF0aW9uIFRpbWUATW9uIDE2IE9jdCAyMDIzIDA1OjEzOjAyIFBNIEVFU1Rb1jXPAAAgAElEQVR4nOy9+Xddx5Xv99lVde4AEAPBeR5FUqImyrIty2m333vO65fkJWtlrfxBnT8oa+WXdF53Xj+3bVmyNVDiPBMkQBIkSBAz7r3nnKqdH6rOuReSKAEUIbfTKS+IMAmcW6dq1x6++7t3iaoqP8JQoAQEEAKGgFB9tIAawIDGb8sfY1I/4rB4TP1W/SVXFEFAqzUQMOZbniDp68cb8mMJB0AgpFdUUIVAXAivIBYEQlAwYExciLKMIuWc5Uec6g8aIt++idUrKyF9eSDQEBt/oPCAQY0gNv5d0IARS18wfjwB+VGFIy6NxD+CpAOkYARMoJSAopSsUYY1vPfpR5QQAjYt2L/28W3CETQjqANRlFDvccs1aZBhMDhcXBcJqGhan3ic4jN/XO3hfrRPgqg2lf4XkHuP1xxsoKDHcrnIYneGueVHLC4uUhRF/NUkIH8N49uEQ9QiWFQEMQYRh+A4cuA424d3MNoYp0kbYxwZgkUgPecvpS9/VM2hqohGjaGAB0rbo8MiM8v3mZy9wc2pqzyYn6RnOv1J/rimdkuG0QKjRdSSYgGH0QYUjtHGBKcOvcGRvcfZv/sQ++1hMlr0d8YgGESST/IjjR9ROBRPAdhke5UgnrnuDDcefsX5239kZu0ehe0QrOCJTpn3HpGoVv9afI5vG0YEI0IQrS2qqIECGtrAlRlDps3pY6f46Y5/z9E9r9FutkkeGhoEYwZ9j60fr0A4KhsRUFLEkf5GKNJ3UfIJOWoyenhyOjzo3uF3X/zfTM/dZimfR1oBlRyPwWvfYxfkx3bUt2BUGjO6oiqAghOLUcGEGKI5DHsaR3jv5Ad8cOZXtBmjQVa/vlcQsUhadvm2wOZVzfjVCIcHPEpUl6oxMhM66d8zTHCgnlKUFbPC5cdf8tGN/8KDxduUNicQsMFgCCiC//+CLXnJ4b0yYfdw7uCH/PqN/4GJxnZsiL5KUINIhgQQBbOFPvorkLtBL7ovZ6IgRKdL1KEIpRpKkzP55Arnr/wLM88mCeKjxlEXp6M/fjz/r20YEdbyRS7c+JjPrv4zy+Uc3pT44DGiGDwVNLKl8/ihD4jazVRQDpIeajR56CFDNNrNwsGzcoaPL/4j955dJrhODNkw0f6qpKf82x6tZhNcQS+b54u7/42vJj+hwzLWCBaNAKLov37hiGPwtA+EmxXipxAMzOlTPrr0zzxYuoO2unhTJttb/W7EC/963c5XM0JRIDaQuzUWZY7PbnzE5OwtPCWq8fhp8vO2crwS4dB1jwp8fdIq4Olxf+kaX9z+mDWzTOkCQQTVyoHVPvjzb3yURUHpC2gIvazH47WHXLl/gVVWCVgUS/ARa93K8UrMShz9018F6AqUGsjpsMYcX03+nlWzQJl5CgXIUJVaMIKEQXzs3+ywLuZX8qAUVihaJXdnb3Fl6hJroUgRiwH9V645+u5o5W3EPwpfEgx0WaMwK1yd/pzJ2WsEV4IYfBBEDEJANCBJ2+iP4Gj9VQwVUIeqpTSBJ2tPuHDvC56XsxRSoBLQLUaMX3GUHH2MEHwUEDzB5jzrPeCzq39gtVgFayh8hEgFj4gHiTmX6Gr9/5ojvr9ENBlDEKVsFNybv83Vh5/RYZ5AQeYaWzqPVyAcA1uZwlAxBrGGQDQpN6Yu8XhxmtJHoMw6R5Y5kBIoU5bWApbwbxjfqIYO6GGjEEQonWfBz3Hx/ifMrt2Lh2qLVewrMCtfjy+igJR4cnLuP53kxv0rFKaLSAPEoSqUvsBrF5GK45Cwji194Rc9+18XthL9rgQSpKX14qHlebx6n4s3/sRqsbDlZuWHZ2VVUCkBRaWBYAiUWEpKXeDmw8+5vzrJguniJKuTbiIOUZNES4gaJMbxWzIqMhEexKe/NEiwEdpHo/+DpxRLEIOo1vwTiaA3Kpq0W3SOzFbMVyBgEn4UzW/LKsbn+NJz9cFljh47w8nxjOFyO1YEJ7bG0j0x8x/f0GPxxK3enC54NQip9sPYKqz1FEzNXuP2g2vk5Nhmxtfz9RV4Fh+jyffYIuFIPIqYFB7IbsogXiAJqY3vwkBYHakVfddbB1LqWzeiHyYKwQd8CJShZKm3xBfXP2OVBdSVWNtn0X0T+qiQ682v6w8XDgGI2UKhlzItyvP8OZfufcbs0hO8esxf3JdQ1PhaOLRKEEqJmgKkTEtok5Xx9ZdKQKXScPEwxMTX1ghy31RXzze1r4Yz5Jpze/omk7M36ekyuRaEKsUlIFLPNFEkXm7tXwnOESdhEUqCFqzqKjdnrnHj8SVCI0YuW5g83Ng8ReMmr/u7AKZETY6aPAoCAFVoHZJgVB6ApORi5TBujXBoHbP1NWw0eEIwgnee3HT4/MonLHZn8VL2iXWAocTgMTqY1Ni8gLya3IoAalA1BOkytzbNxXufs+CXCI0AVtHgv+9RWz7ieQrJtwgYDdiguCDYIFhVLB4bwKokZzAB1ZJ+X2OIaVTYWjA3nX5Npz8Y8tzHeWSB0Ch48Pwe16YvUtBBTYguh4b0jj5qoGqDXmKuP9gh9SFgjUn23NHlGTdnzjOzNElpDZgyohdKYkD9hYYKYiRZcdBcadhW5FBIRrPRwoij0+kRJMeT421AjUecIWjUJQYSRqNfy0O/wlGDzYpUxCAxiNgEEiqlFhgrXLl/kSP7z3Bk2xDGtLFB60fogC55Gc3xg4XDGCEve2TOUqDMrN7j8uSnrMkSahzWKhryFzKyf7wRw0JD1BKZtGn6bZw8dJbD+08wMjSGsZaVlUWmZm5w79EtlooFCskpSo/auMC1GaUSkFefKNR1f6bPUDDGRC5tYvGXpuDR8gO+uPEJ4+cmGJedWNNKZBqpnXDRlzMQP1g41HusE3J6zJdLfHzp9zxeeUDueli7DZEIfG3ZKdvgMCKoeqxabOEYsRN8+M5vOLnvHNtb+7BEtNGP5pzc/TrXt3/Bny//gdnuQ0wrMtF8rTuq/FElKq94qOnTWrTvXNb0MYnmMRilYztcnT7PsX2HeXf/z1EyRLM4vxQBVuu/2fGDhcOKUBDwFNybv8rV6cvkWYGKIlqiZYjmxPEXrVTSoBgRpLS0GeOdk7/gnWO/YIw9iG+S1XveZMgdZuj4EKura3x2Z4UVXaJT9FBn60C2ck+3ZK4DSUxJ5RwyUKYQZTKm7YvMs7D6jKv3PufIzsM0sm1YWsn5LvtPewmm5StASIXSlyyzyJe3PqZne3iJsiraS3CB4S9dVSASTQqFZdfoAY7ve50RxnFqaIuSBcgINMTjygZD7OD1Y2+xe3wPFkPm7EB4ubW54xr/Ueg70BFKNyoYNZFziuBdgJZnZu4ed6eu4dWn6fWpEC870xcLR5qYMpBGjzRoIpIRCEBplNx2uXTncx7N30FNiVeNqsxoEnaDLzchHdrHEipvXSpsgZBUZUgwQ6g4ifS5cwP0gXpp4t9bsewe38fe8QNYMjIBfA6hF7/KnIaxZDTYu+0QE6O7sMZhMTgFo2Hd80yQASaLIWBjRJEYwHHekjZVaji8QltjmByjCqOCDaaPT/Cid6mGgWDw4nnWnePawys8XntAaQoQjyCYH6Dfvt2sKBAC2KKGcUXBBlDNEasELF4adMmZ7kxy4e5H9PLnGBcwGDyCVwHjEVWsODbOXIq0QUnZ2opRZqygxsfTgUnJOh+dNZshOIKPEqUas73VIgeEINB0gZHmEMNmmDZNhAJcVsceYgQk0MBQMEqrOYoPBkTIgkElUIghiGBCiMRfp3QVvGSIZPiwQmYULZSMBuBxIvjSxylLQI3iE1hlVBBvcMFggkWlJEhfqGu4QL4mICq43IELFEPK9cWb7H78Me0Tw0zILpw20TJgXEkFVP5w4SCAScRfXH2CAcQYkIBB8EDOKtcnLzO39IxCPGJt8jMSJoAiA+SfjQyTUvkRNxGC0ZjBDTlNzXB+CO062tkoPd8hSIFaj5ciTtQkn60uzha2ApRQUcosBy0xwdAOFskNrdY2UE9e5mCVYHNKUWg6ylIxWKyChKgFJT2rSFjFRmcqooh4gkaqQ8+XXL17gaPbTzK6YxxLG9Rg6rTEqxAOqUDwrIZe43998tIFJeDpcn/hJrceXKFHFzKhCAGxllCThePENhOtqEQNExKXQSUKi8Ph8mF2tQ9waN8xdo3spjAwO/+Q6dlbLBWzeJtTaoS7AzZ6/v0nb2pxvneeCKU4WjTIvGW728Wp42+ya8dOPIGnS8+4/egWc2vT+CxHG5qUp4BXMusIoUjJvD6Cazc8TQXJCd4ixmIcPF56wJV759kzeoQddhtOLRJ0vYXa4HiB5hgETwaeK0SmsCpeCtbKeS7e/jPPVh/jM486oSw84iL9T+pwb3MOnCL1YhGtONYbhhjl6M6zvH/qlxzddZwh2yRXx0oxz9TsNb689QfuPb2OtCTSEBOqGeVbN7s2GxgC2kKKjOM7XuPnJ3/Jqd1nadgWefB06HF8322+vPl7rs9eZiUsR//FCF6VmBCp3NzK//Co2g3ONYBGkxEAMvCac/3BJV47eI6xPftoOFstxKsSjgpHlISlRPVHsGCiTSzpcuPBeW48vMgqy6iWUUKdJXwrpr/x2XkxBAkYCpwGGt7RLId599iHfHDm79jR2sewtBEKhmgx0hhh+8FRssyy+Olz5otZjPN4CXUaW18ilPu+IWogb7Bz+Ai/fPt/4szYWdrlEOSGtoWWUYZ2TbBneC/jd3byxdSf6OQrmIyoHkx07bSuoA8DSbeNzdaIwTlDEQK9UGCdZ6Vc4c9X/8iB7SewZi9NFXiJDgXfGq0oNpoUFChBCsBDiEhdjme2N8OV6c9Z0wU0K8GloEsVNEQuRBVtxJXc8KTK4BFnyaylFTLGwwS/Ov3f8+/e+M8cah+jrUMQLIY2tvA0fIM2ExzafpbXj/+ETFpUbmhMVabIQVLNqjEJ2XzRnCStg8a2DwLef9OZFpQRK5w9dpp9YwfIaMXfTdSJDGGINoeHjvObt/4zvzr9G7azA8kVY6CnOT1RgjjAYrzgfNi4EKugQdBQxASiBDxCl5LJ2Vtcmf6c3C1R4l+qzvg7QtnKS4gNRioUpVDPKstce3CJ289uUNoiwbQxT9mHlfsh5man5Ywlw2J6lp3ZAT449R/48PR/ZHdjPw0sTTFYMRSlICZW7hsaDDd2sn/PUaxtApXChq3CJQSlaZWj+w/Tph0jI+vTRsVoyapgfZNx3c3Pjv6Kvzn779nZ3I0pHQ3XxBgbC8VVaNqMprhNnCMhRiGK0YBRBQzBQtHocOHuJzxauUtwgTCw06paf33X+B4QrIJuo9cfJIAreLI8xYXJ86zYDt5UCF4KP1WpicOEdduz0eGCIKvKsB/nnaMf8rMzv2HM7sOFFhTxBIuAc9QRWtDowDaa7YQexpn3hXVrQCvrDK1mG7Cxf4iWNQaUoCtQIQtD7HT7ee/Eh5w78QuGwzhZ0cQFITMGI0oIig8b947iEbTVp6RMcdwnn/V4uDTJ5fvnWWIRz/qseBSO737+i4UjOXHx5TJQB1ZZ4zmXJz/lweJ9elksTBI1mOAwFYAjAaFkfbnBxjen6R3jYYSfvvbf8ZPTv2bI7MRoMykwCwq+LOKGa2R3FcETKJlffkYRioQw2sQzoQ6nX+VQIPcls0/nEEzUmyEAjpj8F8pq5xRcr8GE3ccHZ/4Dvzz7GxrdIUxXkbLA4AnqCdZt3DmSvpdigmCDxWikQuZ0KbOcq9OXuL84SUm+TluISN1a60XjBcKRfA00CkXqyFNqwdTsTW4/uIJ3BYWtALL+VwRFq/C1f2I3szVtaXPu2Pv85NQHjMh2DDY6bwltRQ3WCIY1go+nVK0y33nKzbtXYqcgqIXD6NZU4CrQ0YIrN6+w1HmOMSWYsg7bo8fj8aYLpgRjkLLFNnbz7rEPePPQW2xvDEPRA/GUJpDXYPkGh4SIJ6lNsHo6nFYpJGe+85zz1z5jpViObbQGhOP7xneYldQMQQKqJdic+d4D/nj9d8z0nlBaT6OMkwFFTYGaMtLp1CWnltrpExUiFS/B2Ko0QomUSQU7gyq0iyFO7XydD0//moONEwwzjEMoKegaKGwMmkQseEeZteiYLss84vLUvzD55AaFlgQxSWNF+18RX/yAD1ShMCFFMqJJy6UQ3KA1Olv7LWr63wO5z7kze4nzU7/nucxSGKFQD0HJVCPkTiuuiQF1OZkG9rg9/M/v/W+cGnsbWw4TtEHhJTITNywZ6fBJRH9DigAkGCwZYiw92+HW/JfcePIVpetQhE7UokWJlgVKiackVOmIAb/7OxzSuFKqCrakZIU7s5eZXrxH2Szw+HgYVBKVzsevelmrtHN/K6SO5eOLGQUrBjGCDwEJhjEzwXsnf8Ge4cO4soVRh1FQPJiYZ/T11iprrPGwe4/fXfwHLtz+I7ms4k2odZbWG9kH4nRQGOgLC9W/a3+O9VbJoEhRfy/GUmYd/nT9t/z28j/woDtNKT2QAidgB/pmRjZZiRVw2mTC7eP9k79m1/ARKBs0XZNMDN9M8H2X3u0z1WpsKIAEixFHKSVLfo6rD84zszqNOI176zW1kQoDq7N+vNisaMASPT6P8qz3lIt3v2Q1X8JIH8fYMNSLICGGxyqeIIKngbgMSSdsWIb42Vu/5Oie01jaqIkRjxHBAQ0K8J4QoBRPYTs8Wr7GH7/8v7h060+slYtIFsDU+oo6B/OShJfvGzHNE+j4BT65+P/w3z77P3iwfIueFJQV6catIaaHEQUytC4TcBzafYafv/krtplhyk43OfLfXL1NDaFuk2WswXvPnYc3uDb1FV16qLXgLBBSUtClHBQxTZHGt66YEBle4uPLrdHh87ufM7U8hbc5wecRPdtMLkcl1YhENrcXoZQsdtcLIGvKyd1n+OnxD2kyQSgbiFGCejQoFsFpj6ZVMAU5Xe4s3uBfvvo/uf7wU1b1KT1Zo6BAjSbaZCUU9kWv+oOHGEUclC6nbK9x7fHn/OHSPzC1cJOu9PBSIuQgXYQcSVXyKtFhHpYJ3jz0U87sP0ubDKlS7t8AETc+jDEEDbGHqTFkWUZuVrnx6CLTi1Pk+BggpESO0UqLKiHVIMF3IKTxxCk5Xabm73B+8nOWdIlgQ9wsI5QS2Aw9v3ILYwhmUDEYLXHBMmxHee/YhwwxToNWpMTV/G6TKPYe6FFIj+nle/z2q3/kzrNraKOg1IJgAlhHCFWIUJmPrWp0ooiUUUNYwAo9ybn2+BJeLeENz+HxY7TE0CCqcKMGL9G0W4mZ7lEmeOvgOZ48vcvjtftI5vrL+hIJQ1Ul+ICI1H/mtseDpftcf3iRncP7GZcxmtqgEoGYJ13Pzv/246SxiEZtyVp4ztWp88yVs3RMjzIoQgwnQ6r23vCka3NkUGy0kSHQ8E3ePHyOI9tfJ/NNxFdTtLEyzlQnv4GIj47x5X/i5rPr9GxOR3NoWIKxsXo/za+2119Pdb/SEcBAidJVpWeUbqLufX7jt8z3nhBwlMEOAIt9BNYYyHzG0R2neOPQOZraRkKfECwD/9vo0JBCVgEfPKUvKU1Jx6xyeeoLpuZvRvDSCH1meirFGBCJbwhH5YypQGHWuPP4MtcffkXXrhCsgo1+SPy5vgr63iEKJiD0sQcVj3rY0d7DB6//mnG7h4Y0MSap68SICgpBlYBhWZf48tYfuf3kAr1GB29BraPwJnYIVpe638QXjs5yeKkTuKGhBh9CdAiNIdiMwgSKrMOV+19w/uYnLLGGNxmIQ1LkBNVJzXFqGHe7ObXvHXYPH8CoRcQk7VEJyrcJxwveScDYpDmrNp0iBOd5ujbNpXt/ZtHPUVT+jfExkgyeMCCY36o5ggS8KXjSmearyT/zrDNDoKgZWTESSVyNja5hem5EU0mcqZKsdJw+8CZ7hg7TphEXRQqgrEowUJTSeFZY4dL0V3w5+RnLukBpytjppgLpNCOxaWJIV7PGXp4q991DahyorwtAjYHMkNuci/fOc/nB56ywRCkx6qqCfK8elQJrDFYz9o0d49S+t2nYdvQFkoDUJmagPdamNaFGP6c0HW49vsD1R1/RYZWiPjixfMTQT9C9IPHm6bDEnblb3H56m8IUWIEsRLUYJBBEU/vIjau7kHIIVgNWC6wq21u7Ob73DYZkNJkqjSyyACH4qjyVkh4PV+7y+0v/lYWwQGEH7WOFpfSLoQU/IBibEePNjj6OYxK5SUOsddFMWSqf86frv+VJd4oePVSjn2aUdBAaYOKBGbZDHN11mlbWxodImBIqM/HDZunEEQrFNg3LfoHPrn/Ec/+IwnaTSDuszXADqOkLhKPkyfIDLtz5kiW/DJmABxci+qkSSfoS3IZDxCibJn2ox1JiVTm67xR7x49gQ6SnR3aoRRNN0AgESlbCMlemPmN6eZKezcE5nI3UQ6m/fFLbnqqcMSb+qgr7Vz00IqIKJkHXVhVnoQw5tm3pmi4zK5N8eftPrOlKBO9C1ZjFkquj1Ag2ZhgOThxn3+59OJecUpENoZnfN6xaGiYjoHiXM7M0xeW7X9AJywSJYXU0kQOh7HqBjM5bR5e5PXOFW49uUpgSr4GGzfrQeMq2Rt9hYxMfdKo00dacdxzZc5LtjZ0RkLGBUmPHPGssNklxHnos9ma5OPkZoR1hZmMtofARKk5MsZjTCQOCkSDPr2sOfbFS3tQ2iIIUCX2N/M/oJXnEKt2yS2kLemaNydkbPFqYirUvPs5LSP4A6SAAY62dHN13kpHmCJIcy9hIX/of+RKzVe9j9kcsaoUy6/H5tU94svSQgkozyQClEEwBFFpBhQU5q0yuXufPz35P3l7BNQ3WOgoNFEajr5FY1CFVoG9kGFVavqCnBT1jUR3m0NAJToycoKUOLbqolDTIsJojkgOOXGHVPOdPN/6RxbBAoB39Ct/DhphDiazv6ssScBFo0ipjGc1NkJpjE38vRaCmEpYKOd3wiguqjchzFR+/MJTB4n0qxxAQY3m0+oCP7v0TKywT75gRTKwxx0p0vmNz6xZnhj5kd7mXlgaw8TB4PAbFqUTtTZX13diw0kNCl7LI6GqLVRd4Zmc5/+gPLPOU3PhUB5Ua0UUKQBHVR4gO40qY58ubnzO3NIe4aPeDD3XL6nUn7iUiAGMtxmQUvcDuiX2MtscQTDwdxNDKGYcPnqBQUrKwMsvt+zcoKeo2FCg4u1E2bv+Hvm05B928zXuuA/D6d6yH14K5pSfMLDyI9jn1Wqkc2VosFXaN7WH39j1xT0KIgGTlC3z3x7xwaPrFqvZFgMLnTD66xe2Zq+SsRfAwUPuRJksdbBTo0OXmk2vcnblJr9dLJYRxJuEHtjWMOYvogRs1NEyTneO7GW4Mk44X/bDNEDRSnEvWuDN9g26xQtCCqsGLakq+bZmj+YqHKEsr80zN3KGgE7O0tReWRtqUBhl7d+4lM02ssS8m5mzi1YNEgyuEFBBEmGN+ZY7Lk1+ykM9S0IuRVjJh8TYxVdQqT9Ye8+mtj5kvn2NtvPpCiLS6VxELRrUl4IXx4QnGh3diK4a72GR7BQ1gjENNoBOWeDB7l2DyiJNUsbmYzaW2/8JDRMnLDg+f3WOx9wyVAtWULa4X19RmbffEXmzICGWIfsc6g5fs3yY2xYuhNALio3CkbHphcu48vsr1B1+Rs4qaKu0nGLwiRumxwvUHF5hevk/ZiB5rdIbk1R1OMYQQEC+MtyfYNbqPMigVmTlWw6TOYCFGKU8Xp3i2PIO3JcaBqk+xh6H04a9GcYTg8aHL7OI0s8uPIvlGQs3Qr8JtUXBYdo7uJqON+qrW9WsvusnD2u/0GjWHUUCU0uSsmQWu3j/Po+UpSopUsQcmqFCanIcrd7n26CtW/BIlZbJRpAStvpoWCiaWK9hg2NYcZWxoAmeyhJYCNewdfRPFM/30LqvlIrnGzr1VqBF9oL+ePukigFGWigVml5/Qo0dIzXmrIukqonIY2nYbY8M7yWyjz/lEvtnTbINDRdDEcRkkM2CV0vSYnL3F1akLdFhB8QQCBmdYYZmL9z9jZnkqEnYGuvBohS/+UNlIzqxRaIhjOBumKcOYxPtYt8mqqAZ6dFlYe0qPLl50ABaPau+vRWtAhLEx0GGN52tzdEMXa/qHIW58eqEQ+R47xvaSWUeNvA6alfRbGx7aP0iVZoDYfMdLic8Kbj++ztTKXXI6BDzGU3Bv7i6Xpi+w7BdRLfpXWb7ioQREoGEzxtpjNGhTtXnsC4imn/R0yw6La89ilGINiqsjmlqt/bWMtDm55MytzrHSW6U+MQy8SUT+cTTZu+MATuw6i/JyEVWVnY6/WibKZUBjawpj8FLwYPE+X07+mdXeMkqJWWaBO7O3mO3N4Z1ig9LYgiMZk3nRsmbGsq01gsMN2Nz0xqnKzQj0yjU65RreRNSUUOVOqkKlv3Bfh02MqsAtWM9Sd4VO3osFb9/QBoBYLA3Gtu2M0Z1ILSBaAZBsTnHGfJZEklX6ik6nQ4IhGKVnu9yYuczc4pMoHM9XnzD9fIquFKgIDQQptrK5W2R2NbNmjcqtTyTFlzfA6uoy3aIbSwcltr9el8vZ0lT8Kx5pM7wo3aJLGXyEBwamX38bAhZLuzGEExf5GVrVBkE/9b/xdzdogiwqvikQESYkmMifcZ7nnac8nJkm9znmyeITZhdmQAqaEpNBfkvWu9IOBiHDmSaiNsHIlZMUJ4wIJbDWWyP3eVwY7WufemF0c46ZhoAPET+JVTVpkasOzJiUHIyM9ZC6HWsoQCSVaVLncfp82O8fIrGUtCTQKzqEUMSUgbF1hruPeRQogcw1ycRhQpUrqnyTzW/QwOrWfUISII+Kqcp28ZoztXyXrq7i5tcW6JSrWOnhfCBIRrFlCcy4oSIZ1jYxuNqIVr3DQjphJVBKGWt1JYFwEohNSVLqP9gNx/tGKmQw1pX2i46U2Fo7tco0VTuD7/AAACAASURBVMLJxLCOLkiJsYYyGKrrPyrW94aFc0Bz9PJVgu/FJTGRZlM1+lYRcDFatJLh1OKIGdqQBLjul7qJjHglUBEh7a9ZVfQfJQOcMcyU03R0DdPtrRG0JOJc8YWN3ZqLqsUIQQOqge+8hkpj2yiDwVdqrL4rU/vaYzNmpQrJjUE1FkBVwhoX2WOkwLISWe4hblCnl2NMFqmHNR+1MnEbz/SqKj5FgT7E+pEX1xRVlwxLQoGTOd0k8PWyIy969Ioepig6qMa71oJq7KuxBZeVCrGXlQAhlPhQRPLP1yj/VdtoQclshk3AWAWTiX699fMm5iBC8CXLK/OsdhYpQwGaQWhCcMnd8QTpUdicgpzV7lq8H6bCFlJLKtV+i+yNvX/ASOxyZLBYMes4XpWKjyOVn6Z3jFotRTY/gp9VliW+LDCa+ntpUmlewYet+vBYghe0pPC9VGysfbVGsr0pqmllbVqNoZgFNtJX5/X0Nj5PJTphOQWP5qZ5MHcXb3uUklS1pmopteTSJWeFe3N3eLrwlKCKc67+/M2WZcQRYvZVYag5hDNZPbOvt1yIl4MqedGjKMuvgV6a1mkrYR5NzHUZ+FCJLRT8FrX+U9UoHHgK36Pq+gPrt1mS+mxmQzRcG1GDTe2mvv4SG/5sic3tQgbzvWdcuPspD1bv0JUuPasUFkpr8OIopMucf8BnV/7I08UnqAmUPieSiVLiDzblGAqKMyBqaDWGsKbBi7CaRDCg8L1o3jShp1UTuvTErRKPGD4bXDNr1vYdDcnnsLHh2isesdAmkJc9llcXCJSoVKWT619UMAw1R2ll27A4ekUvGpday9BHdTYwVCFYS64e0+xy8+kF5JLyzrEP2TN2hJHmGEYhL7o8WrzBV3f+xP25G0i7quTziAk1hzY9lY1ukBFBvYdgGB2eYLg1Ujvjde9ZJd7sgBAomZt/TBkKjLOoL2LiWkJ0xF8yahkcQqQChIp4guK9x5HRdC3ccHOUlhui1JWozq2hKMtXf0e6VoRZjw8lq51levRo0PyavY1okRVL0w0x3BzDmQZkSrcsaxXc79O58REXw+BtCabgysNPmZ2f4cCuo4xvG4egrC6vMT17m/nuU4qswJtA6UuMre4uqMLJqD9koxGDKkYNmTbZPrKbdnM0Fu7aAR1QO5yBkh7PF56A8bFm2QxiG+k3ah/k5Yeq1tVxAI2sQTsbomnbuLGhCYabI6zlcxBiJepW9SmPN1PHl+90Vyl8jtr+ZtefqlFzNMwQYyM7cKZBXsYC4PgiMXe7ObUuSOljg3mnBFMgLZjtPGBu6gnqA1bAaANswGc5IfOUgFiDNUBIXYIq6uFmanZCfCdnWoyP7KJph2JVuPoBDyJufixszpmde0hedglZ9AlF+sIhKXr5Ybx6JYRY3VgJSVl4du3ZRdsNYXZP7GNidCd4wUpVQb4VPocQqo7+RlnrrrC2tvKCuCNGBQbHzok9DLW2UeRlfbCqZjKbsbkWJQsBUwQo4yd6CUhL0JaHYY8Ml+SNLoXLyU1BT/MIihlXC2QMfe06GH9jby8QDNuGxhgb2YmhUf/L+qFRbxQrLK3MUYZev5Zo3WrJxrXWC4ZWtzIotUKwxnBwzyHadhgz1pzg0P4jNGwjqXOJzt8WjKAhTUZZXl1mfnG+jpTWj4jvCrBrx17Gx7YPhNfrg7+Nf3jAhYJMBectlA5CRgiWooS8DPRUKYLGFklOwBowBlWblEYSjKredRPFwlUov2N8F+OjOzBk9b+sf0YE2eYXnlKGHtbFLgRSZc4GSNOvYkjK21gbOxPt3LGDvTv3kZFhWjrC2YlzHHDHCHmLjicyhgAJDhNiBbZQIpJai1Sx/ma9dfF4gV5WMh9mebh0PTp6gKhHtQO4yE+zSquAA7KX46MnaOoQmAZBLc4YTAgYn2349KgYvG3gHam4SABL0DI6eSY2XzMu4j0aBBMc1ismlLFyMLWuRkoMBVZjiYZqBqGBCQZLSSjXcCZETRwcohlBMsS0eW30BPvtBJn3id0cw3lF8SLkNOhheLj8EJ910OCxmmHUoWoio8t6vCkIZuNBQ2rYGaECVYwKiMETMFlkmg/1hnl37wecGHoLSxPToMWebQd59+Qv2NbYgaiLhTd1iFm50mEgsh+MuTcmILHDZrq/3kJPO8x3ZlnTlfpRFk29F5UQShBwvsmJPWcYdROE3KPqE3pJ7Ka8wRHZibG/aexjMRDxSD+c1hqBlVThV91cMOCISr/zMN/4r5BlGVolK4gssLJQhrNxju04xjDtSNOrfAiN0YIqFCHQocv0s2l62kGspHvrK2ylut59s2BYZZiqd42mWYxQFjnGC8f3vMbZA+/RYBuCjRzSBm1OH32bAzuO4gqD1bgA8cK8gUvzkp2tpmQ2UYalAmVKlFRp+tnFJzxffR5bIXqiqq1hQ0ktHjIObD/B6QNvMERG5qJwlRJQE7aoen7jI25ZzPkgGhvMShNwCGBMwDqlZRoc232CQzuO4MiQyHkE6PszyawvlM95PPcodigiXqhTCULsnFhhhxt/eUHT7d8pM4sQVGJKwStDpsVrB86wt32kfm7sGVZaJtxe3jv5c3ZkE7iy6tYzeAFerIzXlAndrOVXBO+i96M+4DLD05WnzCw9xFNgxYLPICWZMJZCuxjToskYP3ntA/a0dyA+RIBIAqVsopB7i0ZUMj5VAWqsqC9TGk1LnFNC6ZloTXDu6E8YYQzxsS4hFoen/IkPyfTC1OM7rIXVWIQmVaZM66SZUR24g26D8yQgqYIg1tlE5pkVSyNkHNtzgtcPvk2T0TpnZNDYK9PR4Nju1ziz/yxNH1HJCNCkhmysvxlxs+BxRChjlsSKofQFK+UKNx9eZ6lYQFKuT7WM/IUgCdqO1WSHR4/xxv53kW4WtYzjG/0kfuwRT68OWKaUeK96x/sSUwqNMMTJPW9wfOdpHO0E06e4MFmHoAFjA6u9BSYf3WDVL8d0j5XEug/9A1lblU1qDgA1iSboAY8UhlGzmzcO/ZQ9rYPYgZ5kBlUyZ7AIY2acd47/NLYBCBnVHSdGYr5lsD/gy8TXIVHljAg+eLwpmXxymyfLDynJQTRlbVM0Lw6lxAk0afHGgZ+xf9sJXNnEpuYyIgPq9S8gKaZW733kNNb4BpwINs/YO3yUN4+8zzBjmDKDVD0fga04dxVPSZeZhfs8nLtLLyTerFCblSgYUu/CpiyqhsQoi+3HwSMh0DbbeG3ve7y27xwZQzjRAeEAwGMJNGhxeMcpXj98jjYjNLSBrS6TETvgkPWduI1PLuYVNASCKsY61MJC5ym3Hl1mlQW85PFOFQ0xikx9BA0eqw32jZ7il2/9R3a19tEMDUzVGjAJiLUWswUZ5e98KUgnuHKWYoPJUJQ0pcH25m4+PPsbjkycwYZmCoVJULjE+RoQF1hjiTuzV5jvPEVtSEnQ5EamksMqOtt8blZQr1TtIqwoWRB2D+/lvVO/ZsweJNMWsZ15/I0UDEWPWTC0GOWNo+9zcPsJTM/Fm4O80sr6WcR+wmwzak1iZ+L6KanfZrPg9uMrzPlHFKZH7HZT2TyhLopGaMkIZ/b/hHcOv89wOYIpHFZie2gfQr8q7EfVIF87wakVVkOamE6T1w+c480DP2GIsUhuWv/D0YTGRpo8XJrk2uMLlK5HSOSnfkZ2UMvoOgb5RoaRdP1p6q/WUMewDPP6wbc5vv00Wc1rKfq/E1IrACRd+RSE8fZuXj/8HlnZwhSCU2LPicHq9QEYeSNDiP09hH4oaVVQyXmyMsWnNz9iQZ9ThLLypbHqsViqjsDWwgijvH/iQ17b/SaNso0vYo8yNCaNfmjZ5qaHVO0zU8SC4nuGrBzl9IGf8v7pv2GMbVgkYSTpyyQPRQxeS1ZZ4s6Ta9xfuYM3eVpWw+C1n1X5ggoDPNANThOLNTE8FQ8mz9g9fIAzB8/G+FOrUD6rf8cY60BSExYFZzLabOP4vjOcOvo6TdOIoFxIXIbEDtdNSq5orB8GrW93liAoJYXpcOH259x/eg9nXMQQpEy9NjKgGQtyFJraZHfrID878zcc3XeSzGWEELDWxhsO4FWBhxt4qfg+mhx3TcIx3Bjl0O7X+eW5/8TOVmzmbwmR3FS3CklhbIi+wNTje1yavEje6hJM6pFRtcgcOIRV5dpm+Kv9yQoiisWwLRvnnVM/Y8/wPhoQWy8YCFJRCdI0Q+wPHcsLVbFYdmW7eevEe7TttjrvMugIvQwfK3Ik+2ATEaQjULLUXeTavYussoinSE9OZZlUDmp0jpva5sT21/n1e3/HoR2HadKEQgdYZGlt69kOAkjf78rF6LF/Yd83Xaz1Fa5SBfpBaPiMA9uP8+v3/0f2DB2jLSPgU6chKh5sX7t5UzJfzHHp7gWm56YILrHMtf9Z35R26a9h+v8yQNTuR1B9zZOHMqYEgqfhM/YOH+Tdwz+jSdUHpEgJv37Nkv3f//7v/z7i9gZrXGwIq4Y2Gc3mGAu958wuPaUXInSeCbEJPk085cYzuAI+9joChGAiiGWkgZSOhmmy3JknjHbYM3KAdpiglB491giECCF7Sc6nkkmTHY1DTOzYRm9llc7yChDvHCkJBDGIydK2VTiNqZ3qdTFh1RY67Uim0T+y1Y+k+Ys1NVtOqwjFC5kIthBGZYw397/Pv3vzf+Ho8Ou0wzBZ0KjHg8YQ3IbkZxgKCaywxJePPuKzyT/Qc6sgBhm4YCABKbXUxqlXNcWkeltb/7xUzWRwSIo4MZ4yUzyerGs46A7yn975Xzm47RRNhiIgl5KuUdCjQL3gdkgFMQy7YV4/do77T+/QXV4mOI9IM7Up8jgbK+I3qj2SFqZP0lG8L7HGISgr3RXOX/yCQ61TjGzfHXMBZYuGbcZcQCK7VE5xg8DpoTeY+OkOzt/8lD9d/yOd3iwyZMAFAj1ELVZtUo9F//2ozl8VBiemqgpeAt5GTnh9LQaSNhcyC2UoccbQzBqENaWt23j32M94/7Vfsr99hGbNEhdE2iAeKwG8AWvJtYeny9T8df781R/oFB1Mw2GqOuWNrumAhom0h9RWHCU2ptd065VgvMOFjJNHXufgvsO4mv0/sD8D41uFQyUypTPrODh+jLeOvcfilUcshx4qDrEh9sKqX+P7tUd1AtdpS2LewRpLXuZY53i29IzPrv+ZkXd2sWfoME3TTtdEAKktNlQgvifzI+yz2/j5yVGGWjv44s7HPFi+S0GHUgqQdO2ERr7GelGuHKe0+Qn99VJ1PqzmXp1YRX3sHepU8d0Ca7exb3Qfbx55j3eP/5wdZicuOEQDxgTUODypB7oGMJauV0pb8Fwf8um13/J0ZQZtR0CvLHzd7up717TaL5IPV3d6TDhU3So7YIMj8xkHJ45z5ti7tBiOa59KX6U+BP3x4jveVHFkjDLBG4fe5vb0efKVLnkArCGox4QAAzbq+4ZR6sr4uikMChKwDUsoPWTCtYeXGBnezi/fGGKPO4CWqUufpT4dqQUNQhMpYbs7wIfHdnBg50GuTH/K1QdfMrP8CNOyeCMEZwg+kXVqzSV1VIBWTUukBp8GAu5aaZlg4i2mXti1bQ9vHfwFbx4/x5GhE9jQpOXbybn3YIRISbCxskBjPU5hC5Z5zu/O/xM3Zy5iRpRO2SMEcGJZz9v47iED38Ww16Y1jasb/TzF5LDNjPLmsZ9wYOwkQgMjQqwDGgyX+5/7gqtDBWtjlNKQJjtbe3n35AfMX17kaW8h9gJTn0LRDUpGeg1J5qQ2owkBLFURZwhBKaTDZzc+otVo8eGpv2XM7STTZqpES1IuMcTNiaRlhyHzQ7w2fJZ9r+3k1O5TXJz6gltP7zCXL9DRnGAqaFu/+WeVGU0W3QapOxM6DVg1mNLRpMVoew8H9x3n9WPvcqD9BqPZOE0yrE9iFIi0A1XQSLkMCsbGWwzWmOPTa7/j4uQXdFyHQEAdGLGxVif4zUWCJEspJomVr81vlaBr0eLw9mOcOvAWDcZi8k+r8DsJhg488IXCUf1MACueYTPM+4d/zZ2HUyw8+DReh21dDV1vGnPqy0YEZ6pwMCXdnC0ozBJ/vPJfcA3PB8d/zZDsoBm21YVAqoY82NgjNrmHVsBqxli2l1M7Rjm48xTPyidcvXeZa9NXebg4Q6fbQazinKAUSNWby0TmfQieJg7xkYuRmQzxgikdu0cP8sbx9zl+8G22Dx+kzQjDmsUABPogqYNQlhhJXI4QlUkhJT3muXD3d1y4+wm561LaSCOoeBZB451tm1vO/lUlMZEXCVuhKLDicKbBkI7w9rFz7Gruo0ELzUN0nlLppQxiE98pHIOhmyg2GZh3T3zIo7k7zBWPKYlkFd0wUKqRcjfgBPZ9lv4zVJTC57SajuXeMz6+/s+owPvH/pYdNsNobBMVAFxGVTypBIJJnrZaMh1lG8O03Bg7ju3lncM/ZbY3y+yzWZ7Pz7K0/JyVziKl71GGAl/GdLaxhixkNBot2s0W49vG2bfrADtH9zE+tJvR1i7aZjuiDUwAQ7o6PZmoGKIHNIsdAJXYQiEHlpnn/K1/5otbv2Ou+5jC+RrzgYqFvskm/snBH+zSrMFjkhmz3kLXcfrImxzeeYJW4pJIpdnqBjhfby31AuEQBn8mhkWOjGO7TnPmwFm+vLfEqnZiT80N8k1VBtquaxVJVq0FdL2QWej6HtJSnvVm+d1X/5W8E/jgtV+xO9uNSIbQQIOQ1c5bIFJzY99wI5YsGDKf0ZYRtjf2sLNxiDMjJXLM48nJtcPq2hK5z2P1mwHnHJkZYrg1Rps2scFURoMWgo1GJ4WaxgDaixMmo1/xGsg1R8QQxGJoMu+f8vnd3/HZ5f/GKs/QZpkcxz5k+nJNcio/IUZX0dVQnI01yaZssH3oAGeP/oQdrb1pM5JQBFBj68/9ur/+3UWxJp4KVYsBtskI505+wMzTKe6vTFKkMsqNjiD9OvsqgVSluk00KjG6UMU1IiPNNRyd3gp/vvYv5MUqPz39IXtah2gyQiYNbIhIWr/+pVqqQGzKCniQwrHNjKTgJEY6Hs+O4VigHNIV54KgwRK9mOiKSIjgm031xGJKqO6MqnAI9SkcTiGlCIGCnBWeLs9yfvJTvrj3CR1dQF1BoUW8CDhAv9RS2bAihr5TTUibG+2Xs/F6NVMKTYY4fehtDu86RYPhWCFkStCMeFWujWalAs++T3P0R7rPXgSjSgPL/pGjnD15jtkrj1ilu+5h3/ceVfFOFXqt+8eBuExtRCRMmWFxiARKt8b5yU9YXVvl56f+lpM7zpAlHmS86C9LDUrSsyTiHEFAMls7ZrGcMv6gi6lRDP3qfogaQYgXAYmAuOo3Q+pdLojEazKCyTAErEQyjQSLFYc3ni7LTD6/yPnrH3Ht8XVWXY5tODwm9j0n9XYPJm2SouI3fJd9vNCnyrH0qYSRUKXYkHFg12HeOP4Ow4xjcBjiBdIaEquevrJQWV+H84JopdoxSx+Jg2jRt3H8wDvcenSTlZkv0VaglNSvHGK3v9QMVdQSxNR3j5l1akZrzKL6tOqj48SjnvPBY2wgl4CGHlceXeT5yjxvHH2Lc6+dY6ceJpOh2lRpSIGMSAzV8MTbUCQWS4vUmjhC8rWHGz9fpG5RYNJCkwJSSffVeh8JyWIsdf1utTfEixDn88dcmPqM8/c+4vHaND2Xg7UUIadyoY1aqitNJV2BuhkmRCzKBgkxSonXegTUGYo1xZUt3jj8HkeHT9CgGX/AxB5jYgxWqmlX3ob0D+kLhaO2YbZ2eKLzaFGajDf3c/bI+zyfe8BsPoNmIbK7iYkdqYWjqvGMTx2ktdVAzbe+tICndjKj0AkmM/T8KpNLt3h84xH3O3f51b6/4+iuE2TSwtIEY6MvE4g+QtWeWaJ9Xf9BUt9GEGUmCoIi9f8qLoVIxWJTjEs1OOrJUkZWUwvqrqxw/9kdvrz7GZemv2JJFvCNMgp76LfGjOarAp8q+H5zI0Y4AeoW2wGVkiJARouDe05xdNfrjDBOsudQlZRWe5KeNDCxenw7QsrAz0klKPEkOYQmTU4eOs2DmVM8n17AS4FYQ9AihpoqAwscJfyHE4HTxknAOke31+H6nasszDzltYOnOHv0bQ4MH6Mt42TaRjRdGhQsXrL4HtKPj1RjGyQj9hubEmSgBq3OZwTQyFmtugBjYrhWSs4SCzxee8ile19x69F1nq8+o7A9nBhs6cBBQckrHRUdkZirqTITTg0jdoxfvPM3TGzblczX5psAfofPMegFh/pvLIZShVHZzhuH3uPe8wc87j5CbZmSSuDTHWtx0dPv1n2sXmZoHe0ABClRI3j1PAnTzN59wKV7X/Dusfd5++j77Bw6QENHcLQQyQjxl7Gm2ujkxGrMvn4jSEiOZ22LqfCD6Bf4QGzXhGdVnvFk5RFXpy9wefoCs70n5KYHWSDeLWtxmsXGLVtBUpNo8ipU16jQKBqc2n+G49tP02aEoKmGZpO66cXwefKCq9ul4zwUgtK0LTxwYu9ZXpu7x/ydJVZ6c4SWR8SB2FjGsK5lwEu898D30Q2IV2mgATERUeyFAlWl9PN8fOsjrt6/yvF9pzg4cYy92w8z2tpB2w3TNK1o9pIDarCRU1l5/INy69MaGNJNCPFi3oKcnB659FhZW2Zu6SnXZy5wb+YOHb9Mh2VyOoiJoJQYoSwrf+UHq84XjmhOIojlQoO9Q/t57+TPGGI0IqGy3uff6PjOaKWiFA8YLJxEiNuaFk52cvboe0w+vkN3cYkQisiWTlK6Li2nbNi0fF3HVC8mJvkAITqEmMia93i8KHmW87D3gJk7M9hrH7OjvZvXj7zJ8QMnGWtNMNIYjziGbeAkdg2KfT6re2Oi8IQg6TR6SnrkdOiwyvPuM579v+2d21Mc1xHGf33OXJZdEEhCCAkJEEjoioQsm5LjJJW8pPI35z1VqTzErorjWKrYcuwkSLKRrDu7O+d0HvrM7GKhMiDWDrG7akBi2WV3puec7q+//vr5A/799b+499Vn3H/8gGrMOvCRPk4iJY5Y9cELQSPqnPXlRJOtPkgz3Q5v7HTAxZyyanN98T3mjy6Tx8KUDUjXco/e8UbneP11pLm6DoEoOArOjC9xY+ldNj/aoOr3CKmTvoZ0BwniXmD211cbBZOcRGvqAVUM+JDhyFAX6IYumkekjIQy8LD3FY8/f8BHX/6Jjj/C9NhJpiaPMjE+wVjZppUVFFmLzGfGQIsQKgss+7HHVvWKF1vPePTyGx692uTxy2942v2WLe0SXCAcUbZE8aoGgQWb55JplvTHoO8w5Na5g+9PFyGSI74iC+Arz8LRi1yYXWNCpshTNhSpM7e92S6U4Sx+GEwYHoSrotCmw5Wz17nz+cd0n7yi5/sEMYnGQRIte1/TtrmSvP5IWo4q32+CXh/FPlLQppjVl5c81xf4/ib3t/4Djy3+yXxGkZe0ipLMGVFZFTQolW7RC136VZ9KbfRmIDTMe+fT5hSVwpnIvMMeq9DUV2srURYFF+sC5X5jrjeZkY+0UrJKmHKTrC68w6kji5a5qYKPuLi/FeuN8PkgGKsdo37QGmxqZT0fPdP5DOuXf8nmXzb5pr+BKwMRQwxroGZvNgzNyHe+b38Ul6ZWJv1QaWhearexGO81ZspWZdojToSuwvP4DF4aydfGhhiuYUitYS2qsVkBnZO0uVqm4yFN7bafGSPc/nYtw+3UGXEbI1YfpBmyC4Vm5L2chdlFLs5dpkUn6XckaqL6fYnxfO+20izwCYmTlD5ZSdjjoqcMY1ydu8mdjbts3nuIhoj4kNDLBDy91V0zcJDvvkqdbkeVhpfqJBWVYkQ0mPCKQMzShXOg0VYXnzmoyb8k3ENdgz/EWAe/qQ6UKrcipmVBYGiCg6RCmlmtdrKPuvWuTJNDuirjWGuaqwurzJQzFlCnCQlRa/7qgaayMAyObLtb6/RUAkSPl5ICZfXCTT7d+JCnvCIMn5A9h8p2x2+PYHcmBvvorY3ImYpScBGXJhHlEYroySpz8q6jESzJUgzgaoeQOmgTnFYNG0uGx48q4AYUgyiSbpb03lIDWJ38ROKgz5W9oZ+DTz04f689XaDSgIstzi9c5uL8VcvEvDWgVUFMrqLhbOxt+fie3x4QWZ0kvgQeRwuXqpTB9yELtMg5317ig5XfUPQm0aqNUlL1rb3YZXvxjlokZTg3H+aODw6j6ZOcQSkrKILNiFeEvhNeeWHLJnaizu7uoIp4aViC9W5kgJLQj9BXiOLQNEVKSUP9jA5kVU2puwBJW26wDr00XNir1rvbrq1u5POq5FHJI2g/kvmE2YjDOyHTSCcKJ/IZbsy/z5ScIYtt0tqOeGer957lGpqrsHuT5mvTfGE5vQYIQieb4vLZVeanl3B9T+aEvPAWqB2IfKW+dgwvLvU7GwKDm+afukNs2zH0Stv+yg6Pv+n0Dn6+02+//XZSM+eyzCeGmHlajJHYj0xkE1y/cJPTxxcsCI2D6diDs7I/jOWtMTurVCo4h5OS2fY8a0s3OVpMosHK4mRJeP1n25VJoz9W96cALq1p3mIh5xylG+Ps0WVWL9yiRRutlFr9eXtXUb007s3eHtBNeuK9aHNJc9pcPHmFCzPL0FdLatyee8J/0rYtzkjpc6WG0iqRzHvoK3koub6wzjF/Cq/FUP1k2EFgr9Mlantr53AURHVG3gbKUDCdz3Dz3DrT46fw5FQhjET09v/VmkYq6gxIU1ekgkaoBB9zlk+tsDy9SkGHTAvzpFQS2N7b9yM5h6TpAdYTYsBXGTucP3mNldlVXLfAR2cDgn+23dkAPdgW+xRZbhB8V5jwU6xf+SXHi1lKHcNm16TnNlVl3W8sChxQndCKStb8DEDMaXOMy3O3ODVxhizkaPUDd78fatOhf9n9751HA/iQM6YdVhdvuPc2vgAABV1JREFUsjh5npa28TWW1CwQw5Mm9h/sHUBAambOXvd2gg8lS8cvcX3+HcaZIB9q7f/Zvs+2I8SKEYNiT/G9jJPt09xYfI8Ox1JPduo/qYlRgODeatWAg3COhO44nBFsaiKnQFvHWZ2/wdzkPFks2W9K9VOzWu6yJjxYHcdRSElL2qyee4e5iWVaOmFPkIBKZfSCBiwb4EP7zaoPYFsxWSbRRM93rnnVIubMtGa5tnSDMT++L4Twp2nDzmFfolFhmT+5wIWzl2kziVQeWzUqrIc+NgDawPa/nR9AQLrdFAOcQhJp9bHkyumbnJu6CJKn+8C4jwMFvrptodaV2AmxesPB4ThqcYPtSeZ3IbQkgJBgeBVppjj64JiQI9w6v85MZw6vxdAFMFByQBQeujrbYpG92VsPc5P6JWTwTSA1PSt57DCtY3xw7vd8dvcLnj75Cu+sWhg0I/qM4EjsdLUOLfaAi+jBIJGjNhVHxBnEXjPWm/etjeMYm8tqIyFz9KloBaGtbS7OXGV58jotnbSLnoNd+XIIsx6yGvfY524+mkl/0MzwcM7K4Utzy1x7vMafN74m6/SofA/U6lIS7C4RUYILKZDa5aJ2SPYqp2leS+3MDXE7wRP18i9CwNkEbrEm7lxbTE/McuPSOpOtaWtpaJxrdBDBSJyjofIn9lGMkVxybs29y/17d3nQ+wLNIurUCN0IqCe61HeR7qNd/rVRfIQDN1dvmen/qfUbqFtBB4TmyoG4SAx9CjKKqsXK6WssT1/BxcLIwjVsMELnGNkrq2pzOOfIyFiYXOTWyjptxtE+bB+oY/ttbN7SmwpZh/MQogXuDRvfKs+qOTahMkc0s0YwQDVS+owy5pw5Ms+luTXGmCLXpJlea42M0EbmHCEY6yrGaBKQUWm5Nmsrt1g5cxXXLZBgzcPBRSpnkfYgyPzxL+iBHik9tQqxbR2RjEhOJEcxB0FzawRXIet7jmXHubl0mzNTy2TkRuwKfSvFj3DVgBFtKyJCltlL1/KPitLTQEuO84vV3/Fiq8vnj+9Quaf0XN+U7oJSiIdo8+4FSXPcY2K873AyDgl0opqmFIgYESrFHCKg0caK+swYbHkwGYhx7fDe5V+ztvQ+bY4Y689HGomm6EfqH6KN7O9oTYEulqx1ecHDl//kj5/8gb9ufMhTfWItlaGilHQio01kdt6h0QRofbYT1e1wxBz1+E+FpgGpSXJDRKJSeFMzcL0Ox1szrF+6zdribabcHJm2jFRWT4rQDJCROsfIspWdzBZCR0snmGuf57drnqIsubvxd75+9oAoWxS5EgQq52zEdxXNSZwxrw63CYMhPkmvq4r46MjV4/qOdtHi9NQF1q/8iiuzqxQ6jg+mPGyEJUet/jXq++IHWzmMK90DbYGa6kDFc57pJvcefManX37Cvfuf8qz3kJfyykavDL9R3nQuDsfKIUhToIyJsCEqSHAUoaDjJjjemeb8wgrX529zYmyOQsfIQ25pLZGQsBIHeA22Dsno7u8f0Dkq4Fugg4Yclcx+phG88Kj3iDsPP+be47/x5dN/sPnqIc9fvGhOah3g7vAJOAwO4jQpcIgm2QOPixknjpziROcMc1PLLM1eYmbyNFMyRaGF7SAxgK8IHoIU1qAEZPRxRKAc2XuWSm04F4mLo64muA4kFk2nApPEq/UtGtvthYlAL+2VSaWt0T+AIIE+XbZ4zmZvg82XD3jy5AndbrfBTOKOPNT/fccA04uts3YRT+YLvCuYnT5Dp5yiXU7SlglMYsr6XZpJPVJrzTs0jcRwtVz2blsOUhYYnJGx69MWEkkLhUqUPko7NcH/F38dL1zF13rzAAAAAElFTkSuQmCC;" vertex="1" parent="1">
          <mxGeometry x="323.25" y="448.12" width="36.75" height="33.75" as="geometry" />
        </mxCell>
        <mxCell id="rXRJDe7qG6HzljNRHyR7-35" value="&lt;i&gt;produces&lt;/i&gt;" style="text;html=1;align=center;verticalAlign=middle;resizable=0;points=[];autosize=1;strokeColor=none;fillColor=none;" vertex="1" parent="1">
          <mxGeometry x="400" y="126.88" width="70" height="30" as="geometry" />
        </mxCell>
        <mxCell id="rXRJDe7qG6HzljNRHyR7-36" value="&lt;i&gt;produces&lt;/i&gt;" style="text;html=1;align=center;verticalAlign=middle;resizable=0;points=[];autosize=1;strokeColor=none;fillColor=none;" vertex="1" parent="1">
          <mxGeometry x="370" y="396.25" width="70" height="30" as="geometry" />
        </mxCell>
        <mxCell id="rXRJDe7qG6HzljNRHyR7-37" value="&lt;i&gt;consumes&lt;/i&gt;" style="text;html=1;align=center;verticalAlign=middle;resizable=0;points=[];autosize=1;strokeColor=none;fillColor=none;" vertex="1" parent="1">
          <mxGeometry x="330" y="266.25" width="80" height="30" as="geometry" />
        </mxCell>
      </root>
    </mxGraphModel>
  </diagram>
</mxfile>
